<svg width="90" height="90" fill="none" xmlns="http://www.w3.org/2000/svg"><path d="M74.327 45.527L63 56.855l-2.328-2.328-2.545 2.546L63 61.945l13.872-13.873-2.545-2.545zM19.8 37.8h-3.6v3.6h3.6v-3.6zM28.8 37.8h-3.6v3.6h3.6v-3.6zM37.8 37.8h-3.6v3.6h3.6v-3.6zM46.8 37.8h-3.6v3.6h3.6v-3.6zM55.8 37.8h-3.6v3.6h3.6v-3.6zM64.8 37.8h-3.6v3.6h3.6v-3.6zM73.8 37.8h-3.6v3.6h3.6v-3.6zM19.8 46.8h-3.6v3.6h3.6v-3.6zM28.8 46.8h-3.6v3.6h3.6v-3.6zM37.8 46.8h-3.6v3.6h3.6v-3.6zM46.8 46.8h-3.6v3.6h3.6v-3.6zM19.8 55.8h-3.6v3.6h3.6v-3.6zM28.8 55.8h-3.6v3.6h3.6v-3.6zM37.8 55.8h-3.6v3.6h3.6v-3.6zM46.8 55.8h-3.6v3.6h3.6v-3.6zM19.8 64.8h-3.6v3.6h3.6v-3.6zM28.8 64.8h-3.6v3.6h3.6v-3.6zM37.8 64.8h-3.6v3.6h3.6v-3.6zM19.8 73.8h-3.6v3.6h3.6v-3.6zM28.8 73.8h-3.6v3.6h3.6v-3.6zM37.8 73.8h-3.6v3.6h3.6v-3.6zM46.8 64.8h-3.6v3.6h3.6v-3.6z" fill="#9F4A4A"/><path d="M75.6 7.2V0H64.8v7.2H25.2V0H14.4v7.2H0V90h74.545l.835-.835 13.78-13.78.84-.84V7.2H75.6zm-7.2 0V3.6H72v10.8h-3.6V7.2zM18 7.2V3.6h3.6v10.8H18V7.2zm57.6 76.655V75.6h8.255L75.6 83.855zM86.4 72H72v14.4H3.6V27h82.8v45zm0-48.6H3.6V10.8h10.8V18h10.8v-7.2h39.6V18h10.8v-7.2h10.8v12.6z" fill="#9F4A4A"/><path d="M70.2 59.4v5.4H55.8V50.4h9v-3.6H52.2v21.6h21.6v-9h-3.6z" fill="#9F4A4A"/></svg>