<svg width="98" height="84" fill="none" xmlns="http://www.w3.org/2000/svg"><path d="M83.3 16.333H60.433V14.7C60.423 6.585 53.848.01 45.733 0H14.7C6.585.01.01 6.585 0 14.7v19.6C.01 42.415 6.585 48.99 14.7 49h1.633v13.067a1.634 1.634 0 002.789 1.154L33.343 49h4.224v1.633c.01 8.115 6.585 14.69 14.7 14.7h9.123L78.88 82.822a1.635 1.635 0 002.788-1.155V65.333H83.3c8.115-.01 14.69-6.585 14.7-14.7v-19.6c-.01-8.114-6.585-14.69-14.7-14.7zm-50.633 29.4c-.433 0-.849.173-1.155.479L19.6 58.124V47.367c0-.902-.731-1.634-1.633-1.634H14.7C8.388 45.726 3.274 40.612 3.267 34.3V14.7C3.274 8.388 8.388 3.274 14.7 3.267h31.033c6.312.007 11.427 5.121 11.434 11.433v1.633h-4.9c-8.115.01-14.69 6.586-14.7 14.7v14.7h-4.9zm62.066 4.9c-.007 6.312-5.121 11.426-11.433 11.434h-3.267c-.902 0-1.633.731-1.633 1.633v14.024L63.221 62.545a1.633 1.633 0 00-1.154-.478h-9.8c-6.312-.008-11.427-5.122-11.434-11.434v-19.6c.008-6.311 5.122-11.426 11.434-11.433H83.3c6.312.007 11.426 5.122 11.433 11.433v19.6z" fill="#9F4A4A"/><path d="M86.566 29.4H49a1.633 1.633 0 000 3.267h37.567a1.634 1.634 0 000-3.267zM86.566 39.2H49a1.633 1.633 0 000 3.267h37.567a1.633 1.633 0 000-3.267zM86.566 49H49a1.633 1.633 0 000 3.267h37.567a1.634 1.634 0 000-3.267zM9.8 16.333h34.3a1.633 1.633 0 000-3.266H9.8a1.633 1.633 0 000 3.266zM34.3 22.867H9.8a1.633 1.633 0 000 3.266h24.5a1.634 1.634 0 000-3.266zM32.667 32.667H9.8a1.633 1.633 0 000 3.266h22.867a1.633 1.633 0 000-3.266z" fill="#9F4A4A"/></svg>