<svg width="21" height="39" fill="none" xmlns="http://www.w3.org/2000/svg"><path d="M15.031 17.85l.42 2.522-2.408-.866a8.26 8.26 0 00-2.807-.498c-4.757 0-8.736 4.07-8.736 9.246S5.48 37.5 10.236 37.5c4.75 0 8.724-4.057 8.736-9.222v-.096c.004-.094.156-4.311-.978-9.476-1.074-4.897-3.256-10.432-7.597-14.207 1.678 3.283 3.737 7.95 4.634 13.35z" fill="#F2EFEF"/><path d="M15.031 17.85l.42 2.522-2.408-.866a8.26 8.26 0 00-2.807-.498c-4.757 0-8.736 4.07-8.736 9.246S5.48 37.5 10.236 37.5c4.75 0 8.724-4.057 8.736-9.222v-.096c.004-.094.156-4.311-.978-9.476-1.074-4.897-3.256-10.432-7.597-14.207 1.678 3.283 3.737 7.95 4.634 13.35z" stroke="#fff" stroke-width="3"/><path d="M15.031 17.85l.42 2.522-2.408-.866a8.26 8.26 0 00-2.807-.498c-4.757 0-8.736 4.07-8.736 9.246S5.48 37.5 10.236 37.5c4.75 0 8.724-4.057 8.736-9.222v-.096c.004-.094.156-4.311-.978-9.476-1.074-4.897-3.256-10.432-7.597-14.207 1.678 3.283 3.737 7.95 4.634 13.35z" stroke="url(#paint0_linear)" stroke-width="3"/><defs><linearGradient id="paint0_linear" x1="10.241" y1="0" x2="10.241" y2="39" gradientUnits="userSpaceOnUse"><stop stop-color="#fff"/><stop offset="1" stop-color="#fff" stop-opacity="0"/></linearGradient></defs></svg>