<svg width="89" height="77" fill="none" xmlns="http://www.w3.org/2000/svg"><path d="M84.223 0H12.848c-2.366 0-4.283 2.068-4.283 4.62v1.54c-2.365 0-4.282 2.068-4.282 4.62v1.54C1.917 12.32 0 14.388 0 16.94v55.44C0 74.932 1.917 77 4.283 77h71.375c2.365 0 4.283-2.068 4.283-4.62v-1.54c2.365 0 4.282-2.068 4.282-4.62v-1.54c2.365 0 4.283-2.068 4.283-4.62V4.62c0-2.552-1.918-4.62-4.283-4.62zm-7.137 72.38c0 .85-.64 1.54-1.428 1.54H4.283c-.789 0-1.428-.69-1.428-1.54V32.648l23.091 35.988c.45.7 1.339.873 1.987.39.14-.106.263-.238.36-.39l24.525-38.21 24.268 37.816v4.138zm0-9.548L53.99 26.844c-.5-.7-1.43-.83-2.078-.29-.101.084-.191.181-.269.29l-24.52 38.21L2.855 27.238V16.94c0-.85.64-1.54 1.428-1.54h71.375c.788 0 1.428.69 1.428 1.54v45.892zm4.282 3.388c0 .85-.639 1.54-1.427 1.54V16.94c0-2.552-1.918-4.62-4.283-4.62H7.138v-1.54c0-.85.639-1.54 1.427-1.54h71.376c.788 0 1.427.69 1.427 1.54v55.44zm4.283-6.16c0 .85-.64 1.54-1.428 1.54V10.78c0-2.552-1.917-4.62-4.282-4.62H11.42V4.62c0-.85.638-1.54 1.427-1.54h71.375c.789 0 1.428.69 1.428 1.54v55.44z" fill="#9F4A4A"/></svg>