<svg width="161" height="130" fill="none" xmlns="http://www.w3.org/2000/svg"><path d="M114.897 92.545h-.028a2.59 2.59 0 01-2.194-1.262l-24.58-41.28a2.56 2.56 0 01-.177-.358 32.079 32.079 0 01-4.683-16.71C83.266 15.159 97.74.716 115.507.716h.04c8.624.012 16.722 3.38 22.8 9.484 6.075 6.097 9.413 14.203 9.401 22.821 0 5.823-1.61 11.559-4.662 16.622a2.438 2.438 0 01-.231.478l-25.764 41.21a2.599 2.599 0 01-2.194 1.214zm-22.12-44.788l22.173 37.239 23.232-37.16c.058-.158.132-.313.224-.46 2.727-4.356 4.168-9.321 4.168-14.357v-.003c.012-7.24-2.791-14.047-7.892-19.168-5.103-5.122-11.902-7.95-19.142-7.962h-.035c-14.92 0-27.074 12.128-27.098 27.052 0 5.093 1.433 10.061 4.14 14.364.094.143.17.297.23.455z" fill="#9F4A4A"/><path d="M115.516 45.049h-.027c-3.641 0-7.07-1.422-9.648-4.005a13.566 13.566 0 01-3.99-9.673 13.549 13.549 0 014.009-9.642 13.574 13.574 0 019.646-3.985h.014c7.524.008 13.643 6.142 13.636 13.674a13.56 13.56 0 01-4.01 9.649 13.553 13.553 0 01-9.63 3.982zm-.012-22.134c-2.262 0-4.391.88-5.992 2.478a8.408 8.408 0 00-2.49 5.987 8.438 8.438 0 002.481 6.011 8.41 8.41 0 005.991 2.486h.017a8.417 8.417 0 005.984-2.472 8.416 8.416 0 002.489-5.99c.003-4.68-3.796-8.493-8.471-8.498-.002-.002-.006-.002-.009-.002zm11.066 8.501h.017-.017zM157.735 129.227H2.827a2.588 2.588 0 01-2.377-3.603l28.178-65.927a2.588 2.588 0 012.377-1.57h66.488a2.585 2.585 0 110 5.171H32.712L6.744 124.053h147.073l-25.166-58.872a2.585 2.585 0 114.756-2.033l26.705 62.474a2.586 2.586 0 01-2.377 3.605z" fill="#9F4A4A"/><path d="M115.203 128.763a2.584 2.584 0 01-2.565-2.293c-.016-.128-1.667-12.85-19.48-15.872-1.657-.281-4.3-.538-7.362-.833-16.858-1.631-32.235-3.748-35.2-11.631-1.914-5.086.882-8.963 3.127-12.078 2.458-3.41 3.268-4.9 2.013-7.039-.794-1.355-3.325-2.458-5.773-3.525-4.793-2.09-11.357-4.952-11.392-12.795a2.586 2.586 0 012.574-2.598h.012a2.585 2.585 0 012.586 2.574c.019 4.171 3.145 5.835 8.289 8.078 3.206 1.398 6.521 2.843 8.168 5.65 3.077 5.249-.02 9.544-2.28 12.68-2.12 2.941-3.375 4.864-2.482 7.232 2.077 5.522 21.516 7.401 30.858 8.306 3.16.305 5.89.569 7.727.881 21.604 3.667 23.676 19.705 23.754 20.386a2.585 2.585 0 01-2.574 2.877z" fill="#9F4A4A"/></svg>