<svg width="25" height="19" fill="none" xmlns="http://www.w3.org/2000/svg"><path d="M22.024 0H2.976C1.333 0 .001 1.484 0 3.314v12.372C0 17.516 1.333 19 2.976 19h19.048c1.643 0 2.975-1.484 2.976-3.314V3.314C25 1.484 23.667 0 22.024 0zM2.976 1.325h19.048c.857.003 1.593.68 1.756 1.617L12.5 9.941 1.22 2.942c.163-.937.899-1.614 1.756-1.617zm19.048 16.343H2.976c-.985-.003-1.783-.891-1.786-1.988V4.44l11.018 6.84c.09.054.19.084.292.086a.521.521 0 00.292-.087L23.81 4.44v11.24c-.001 1.098-.8 1.987-1.786 1.988z" fill="#9F4A4A"/></svg>