<svg width="23" height="23" fill="none" xmlns="http://www.w3.org/2000/svg"><path d="M21.184 15.144c-1.419 0-2.808-.222-4.127-.658-.642-.221-1.371-.05-1.795.38l-2.61 1.973c-2.996-1.598-4.913-3.515-6.492-6.49l1.92-2.55c.482-.484.655-1.19.448-1.852a13.164 13.164 0 01-.66-4.131A1.818 1.818 0 006.053 0H1.816A1.818 1.818 0 000 1.816C0 13.496 9.504 23 21.184 23A1.818 1.818 0 0023 21.184V16.96a1.818 1.818 0 00-1.816-1.815zm.605 6.04a.606.606 0 01-.605.605c-11.013 0-19.973-8.96-19.973-19.973 0-.334.272-.605.605-.605h4.237c.333 0 .605.27.605.605 0 1.546.242 3.064.717 4.503.07.226.013.46-.209.69L4.963 9.926a.605.605 0 00-.055.64c1.795 3.526 3.975 5.707 7.527 7.527a.602.602 0 00.64-.056l2.98-2.259c.163-.16.4-.215.617-.144 1.447.478 2.965.72 4.512.72.333 0 .606.271.606.605v4.225z" fill="#9F4A4A"/></svg>