<svg width="24" height="32" fill="none" xmlns="http://www.w3.org/2000/svg"><path d="M10.72.065C8.535.29 6.264 1.23 4.526 2.611 2.362 4.344.805 6.864.247 9.535c-.18.883-.28 2.02-.237 2.721.125 2.07 1.714 5.78 4.41 10.29 2.659 4.447 5.861 8.626 7.131 9.308.544.294.87.15 1.82-.782 3.065-3.015 8.25-11.372 9.927-15.988.626-1.733.795-2.778.657-4.173-.419-4.266-2.927-7.868-6.768-9.726A12.043 12.043 0 0010.72.065zm3.183 2.12c4.541.907 7.838 4.71 8.088 9.315.056 1.094-.144 2.033-.776 3.634-1.613 4.078-5.685 10.671-8.088 13.073-.631.638-.969.85-1.232.782-.907-.225-3.409-3.41-5.786-7.35-2.196-3.646-3.697-6.943-4.028-8.838-.125-.707-.088-1.72.1-2.697.776-4.003 3.953-7.174 7.932-7.912.931-.176 1.044-.188 2.17-.157a9.519 9.519 0 011.62.15z" fill="#9F4A4A"/><path d="M10.932 6.101c-1.2.213-2.258.776-3.159 1.676-3.302 3.31-1.782 8.808 2.784 10.059.688.194 2.202.194 2.89 0 2.233-.613 3.853-2.264 4.416-4.491.163-.645.144-2.146-.031-2.784-.639-2.352-2.484-4.06-4.81-4.466a6.336 6.336 0 00-2.09.006zm1.914 1.996c1.49.312 2.752 1.576 3.065 3.065.594 2.84-1.914 5.348-4.754 4.754-1.138-.238-2.202-1.064-2.714-2.096-.588-1.2-.588-2.427 0-3.628.788-1.595 2.62-2.47 4.403-2.095z" fill="#9F4A4A"/></svg>