<svg width="18" height="12" fill="none" xmlns="http://www.w3.org/2000/svg"><path d="M15.692.044H2.121C.95.044 0 .902 0 1.96v7.15c0 1.058.95 1.915 2.12 1.915h13.572c1.17 0 2.12-.857 2.12-1.915V1.96c0-1.057-.95-1.914-2.12-1.915zM2.121.81h13.571c.61.002 1.135.393 1.251.935L8.906 5.789.87 1.745c.117-.542.64-.933 1.252-.935zm13.571 9.445H2.121c-.702-.002-1.27-.516-1.273-1.15V2.61l7.85 3.953a.485.485 0 00.208.05.436.436 0 00.208-.05l7.85-3.953v6.496c0 .634-.57 1.148-1.272 1.149z" fill="#9F4A4A"/></svg>