<svg width="90" height="90" fill="none" xmlns="http://www.w3.org/2000/svg"><path d="M90 29.81a6.592 6.592 0 00-6.585-6.584 6.539 6.539 0 00-4.655 1.929l-4.302 4.303-4.78 4.78V20.206c4.916-.708 8.71-4.936 8.71-10.045C78.387 4.558 73.828 0 68.225 0H10.16C4.558 0 0 4.558 0 10.161v72.58c0 .802.65 1.453 1.452 1.453H8.71v4.354c0 .802.65 1.452 1.451 1.452h58.065c.801 0 1.451-.65 1.451-1.452V52.86l14.091-14.09 1.491-1.492a19.45 19.45 0 01-5.346 9.951l-6.906 6.905 2.053 2.053 6.905-6.905c4.12-4.12 6.424-9.56 6.559-15.365C89.463 32.75 90 31.329 90 29.81zm-9.187-2.602a3.658 3.658 0 012.602-1.079 3.686 3.686 0 013.682 3.681c0 .983-.383 1.908-1.079 2.603l-3.276 3.276-5.206-5.205 3.277-3.276zm-5.33 5.328l1.577 1.577-18.27 18.27-1.576-1.577 18.27-18.27zM40.96 70.844l2.986-5.973 4.41 4.41-5.973 2.986-1.423-1.423zm4.641-8.424l9.56-9.56 5.206 5.206-9.56 9.56-5.206-5.206zM68.226 2.903c4.002 0 7.258 3.256 7.258 7.258 0 4.002-3.256 7.258-7.258 7.258H17.26a10.127 10.127 0 000-14.516h50.966zm-56.613 14.37v-4.208c0-.8.652-1.452 1.452-1.452h4.208a7.28 7.28 0 01-5.66 5.66zM2.903 81.29V10.161c0-4.002 3.256-7.258 7.258-7.258 3.505 0 6.437 2.498 7.112 5.807h-4.208a4.36 4.36 0 00-4.355 4.354V81.29H2.903zm63.871 5.807H11.613V20.323h55.161V37.14l-6.407 6.407H17.419v2.904h40.044l-2.903 2.903H17.42v2.903h34.237l-9.135 9.135a1.422 1.422 0 00-.255.385l-.016-.009-4.355 8.71a1.45 1.45 0 00.273 1.675l.424.427-3.329 3.328 2.053 2.053 3.328-3.329.425.426a1.451 1.451 0 001.676.273l8.71-4.355-.01-.016a1.42 1.42 0 00.385-.256l11.613-11.613 3.33-3.33v31.335zM62.42 56.012l-1.576-1.577 18.27-18.27 1.576 1.577-18.27 18.27z" fill="#9F4A4A"/><path d="M17.419 26.129h43.548v2.903H17.42V26.13zM17.419 31.936h43.548v2.903H17.42v-2.903zM17.419 37.742h43.548v2.903H17.42v-2.903zM17.419 72.58h15.968v2.904H17.419V72.58zM17.419 78.387h43.548v2.903H17.42v-2.903z" fill="#9F4A4A"/></svg>