<?xml version="1.0" encoding="utf-8"?><svg xmlns="http://www.w3.org/2000/svg" xmlns:xlink="http://www.w3.org/1999/xlink"><symbol viewBox="0 0 496 496" id="architecture-and-city" xmlns="http://www.w3.org/2000/svg"><path d="M488 184h-8v-8c0-13.2-10.8-24-24-24h-16c-13.2 0-24 10.8-24 24v8h-8c-4.4 0-8 3.6-8 8v28.1L229.3 352H200c-4.4 0-8 3.6-8 8v24H72c-4.4 0-8 3.6-8 8v24H8c-4.4 0-8 3.6-8 8v64c0 4.4 3.6 8 8 8h240c4.4 0 8-3.6 8-8v-84l144-108c0 4.4 3.6 8 8 8h8v48h-48c-1.8 0-3.6.6-5 1.8l-40 32c-1.9 1.5-3 3.8-3 6.2v40h-40c-4.4 0-8 3.6-8 8v48c0 4.4 3.6 8 8 8h192c4.4 0 8-3.6 8-8V304h8c4.4 0 8-3.6 8-8v-32c0-4.4-3.6-8-8-8h-8v-24h8c4.4 0 8-3.6 8-8v-32c0-4.4-3.6-8-8-8zm-56-8c0-4.4 3.6-8 8-8h16c4.4 0 8 3.6 8 8v8h-32v-8zM208 368h16v16h-16v-16zM16 432h48v48H16v-48zm224 48H80v-80h160v80zm13.2-93.9c-1.4-1.2-3.2-2.1-5.2-2.1h-8v-20.1L410.7 232h5.3v24h-8c-4.4 0-8 3.6-8 8v12L253.2 386.1zM288 448h32v32h-32v-32zm48-8v-44.2l34.8-27.8H416v112h-80v-40zm128 40h-32V304h32v176zm16-192h-64v-16h64v16zm-16-32h-32v-24h32v24zm16-40h-64v-16h64v16zM96 112h3.7c1.3 4.1 2.9 8.2 4.9 12l-6.3 6.3c-3.1 3.1-3.1 8.2 0 11.3l24 24c3 3 8.3 3 11.3 0l6.3-6.3c3.9 2 7.9 3.6 12 4.9v3.7c0 4.4 3.6 8 8 8h32c4.4 0 8-3.6 8-8v-3.7c4.1-1.3 8.2-2.9 12-4.9l6.3 6.3c3.1 3.1 8.2 3.1 11.3 0l24-24c3.1-3.1 3.1-8.2 0-11.3l-6.3-6.3c2-3.9 3.6-7.9 4.9-12h3.7c4.4 0 8-3.6 8-8V72c0-4.4-3.6-8-8-8h-3.7c-1.3-4.1-2.9-8.2-4.9-12l6.3-6.3c3.1-3.1 3.1-8.2 0-11.3l-24-24c-3.1-3.1-8.2-3.1-11.3 0l-6.3 6.3c-3.9-2-7.9-3.6-12-4.9V8c0-4.4-3.6-8-8-8h-32c-4.4 0-8 3.6-8 8v3.7c-4.1 1.3-8.2 2.9-12 4.9l-6.3-6.3C132.2 8.8 130.1 8 128 8s-4.2.8-5.7 2.3l-24 24c-3.1 3.1-3.1 8.2 0 11.3l6.3 6.3c-2 3.9-3.6 7.9-4.9 12H96c-4.4 0-8 3.6-8 8v32c0 4.5 3.6 8.1 8 8.1zm8-32h1.8c3.7 0 7-2.6 7.8-6.2 1.5-6.7 4.1-13.1 7.8-19 1.9-3.2 1.4-7.2-1.2-9.8l-4.9-4.9L128 27.3l4.9 4.9c2.6 2.6 6.7 3.1 9.8 1.2 5.9-3.6 12.3-6.2 19-7.8 3.6-.8 6.2-4.1 6.2-7.8V16h16v1.8c0 3.7 2.6 7 6.2 7.8 6.7 1.5 13.1 4.1 19 7.8 3.2 1.9 7.2 1.5 9.8-1.2l4.9-4.9L236.7 40l-4.9 4.9c-2.6 2.6-3.1 6.7-1.2 9.8 3.6 5.9 6.2 12.3 7.8 19 .8 3.6 4.1 6.2 7.8 6.2h1.8v16h-1.8c-3.7 0-7 2.6-7.8 6.2-1.5 6.7-4.1 13.1-7.8 19-1.9 3.2-1.4 7.2 1.2 9.8l4.9 4.9-12.7 12.9-4.9-4.9c-2.6-2.6-6.7-3.1-9.8-1.2-5.9 3.6-12.3 6.2-19 7.8-3.6.8-6.2 4.1-6.2 7.8v1.8h-16v-1.8c0-3.7-2.6-7-6.2-7.8-6.7-1.5-13.1-4.1-19-7.8-3.1-1.9-7.2-1.4-9.8 1.2l-4.9 4.9-12.9-12.7 4.9-4.9c2.6-2.6 3.1-6.7 1.2-9.8-3.6-5.9-6.2-12.3-7.8-19-.8-3.6-4.1-6.2-7.8-6.2H104V80z"/><path d="M176 136c26.5 0 48-21.5 48-48s-21.5-48-48-48-48 21.5-48 48 21.5 48 48 48zm0-80c17.6 0 32 14.4 32 32s-14.4 32-32 32-32-14.4-32-32 14.4-32 32-32zM8 288h3.7c1.3 4.1 2.9 8.2 4.9 12l-6.3 6.3c-3.1 3.1-3.1 8.2 0 11.3l24 24c3 3 8.3 3 11.3 0l6.3-6.3c3.9 2 7.9 3.6 12 4.9v3.7c0 4.4 3.6 8 8 8h32c4.4 0 8-3.6 8-8v-3.7c4.1-1.3 8.2-2.9 12-4.9l6.3 6.3c3.1 3.1 8.2 3.1 11.3 0l24-24c3.1-3.1 3.1-8.2 0-11.3l-6.3-6.3c2-3.9 3.6-7.9 4.9-12h3.7c4.4 0 8-3.6 8-8v-32c0-4.4-3.6-8-8-8h-3.7c-1.3-4.1-2.9-8.2-4.9-12l6.3-6.3c3.1-3.1 3.1-8.2 0-11.3l-24-24c-3.1-3.1-8.2-3.1-11.3 0l-6.3 6.3c-3.9-2-7.9-3.6-12-4.9V184c0-4.4-3.6-8-8-8H72c-4.4 0-8 3.6-8 8v3.7c-4.1 1.3-8.2 2.9-12 4.9l-6.3-6.3c-1.5-1.5-3.5-2.3-5.7-2.3s-4.2.8-5.7 2.3l-24 24c-3.1 3.1-3.1 8.2 0 11.3l6.3 6.3c-2 3.9-3.6 7.9-4.9 12H8c-4.4 0-8 3.6-8 8v32c0 4.5 3.6 8.1 8 8.1zm8-32h1.8c3.7 0 7-2.6 7.8-6.2 1.5-6.7 4.1-13.1 7.8-19 1.9-3.2 1.4-7.2-1.2-9.8l-4.9-4.9L40 203.3l4.9 4.9c2.6 2.6 6.7 3.1 9.8 1.2 5.9-3.6 12.3-6.2 19-7.8 3.6-.8 6.2-4.1 6.2-7.8V192h16v1.8c0 3.7 2.6 7 6.2 7.8 6.7 1.5 13.1 4.1 19 7.8 3.2 1.9 7.2 1.5 9.8-1.2l4.9-4.9 12.7 12.7-4.9 4.9c-2.6 2.6-3.1 6.7-1.2 9.8 3.6 5.9 6.2 12.3 7.8 19 .8 3.6 4.1 6.2 7.8 6.2h1.8v16H158c-3.7 0-7 2.6-7.8 6.2-1.5 6.7-4.1 13.1-7.8 19-1.9 3.2-1.4 7.2 1.2 9.8l4.9 4.9-12.5 12.9-4.9-4.9c-2.6-2.6-6.7-3.1-9.8-1.2-5.9 3.6-12.3 6.2-19 7.8-3.6.8-6.2 4.1-6.2 7.8v1.8H80v-1.8c0-3.7-2.6-7-6.2-7.8-6.7-1.5-13.1-4.1-19-7.8-3.1-1.9-7.2-1.4-9.8 1.2l-4.9 4.9L27.3 312l4.9-4.9c2.6-2.6 3.1-6.7 1.2-9.8-3.6-5.9-6.2-12.3-7.8-19-.8-3.6-4.1-6.2-7.8-6.2H16V256z"/><path d="M88 312c26.5 0 48-21.5 48-48s-21.5-48-48-48-48 21.5-48 48 21.5 48 48 48zm0-80c17.6 0 32 14.4 32 32s-14.4 32-32 32-32-14.4-32-32 14.4-32 32-32zm296 152h16v16h-16v-16zm0 32h16v16h-16v-16zm0 32h16v16h-16v-16zM96 416h16v16H96v-16zm32 0h16v16h-16v-16zm32 0h16v16h-16v-16zm32 0h16v16h-16v-16zM368 96h80c17.6 0 32-14.4 32-32 0-1.4-.2-2.8-.4-4.2C489.3 54.3 496 44 496 32c0-17.6-14.4-32-32-32-10.8 0-20.3 5.4-26.1 13.6C430.6 5.3 419.9 0 408 0c-19.3 0-35.5 13.8-39.2 32-17.9-.5-32.8 14.1-32.8 32 0 17.6 14.4 32 32 32zm96-80c8.8 0 16 7.2 16 16 0 5.3-2.6 9.9-6.6 12.8-6-8-15.6-13.1-26.2-12.8h.8c0-8.8 7.2-16 16-16zm-96 32c1.7 0 3.5.3 5.4 1 2.5.9 5.3.5 7.5-1.1s3.4-4.1 3.3-6.8c0-.3-.1-.9-.1-1.2 0-13.2 10.8-24 24-24s24 10.8 24 23.7c0 .3-.1 1.2-.1 1.4-.1 2.7 1.1 5.2 3.3 6.8 2.2 1.6 5 2 7.5 1.1 1.9-.7 3.7-1 5.4-1 8.8 0 16 7.2 16 16s-7.2 16-16 16h-80c-8.8 0-16-7.2-16-16S359.2 48 368 48z"/></symbol><symbol viewBox="0 0 451.847 451.847" id="arrow-left" xmlns="http://www.w3.org/2000/svg"><path d="M97.141 225.92c0-8.095 3.091-16.192 9.259-22.366L300.689 9.27c12.359-12.359 32.397-12.359 44.751 0 12.354 12.354 12.354 32.388 0 44.748L173.525 225.92l171.903 171.909c12.354 12.354 12.354 32.391 0 44.744-12.354 12.365-32.386 12.365-44.745 0l-194.29-194.281c-6.167-6.177-9.252-14.274-9.252-22.372z"/></symbol><symbol viewBox="0 0 451.846 451.847" id="arrow-right" xmlns="http://www.w3.org/2000/svg"><path d="M345.441 248.292L151.154 442.573c-12.359 12.365-32.397 12.365-44.75 0-12.354-12.354-12.354-32.391 0-44.744L278.318 225.92 106.409 54.017c-12.354-12.359-12.354-32.394 0-44.748 12.354-12.359 32.391-12.359 44.75 0l194.287 194.284c6.177 6.18 9.262 14.271 9.262 22.366 0 8.099-3.091 16.196-9.267 22.373z"/></symbol><symbol viewBox="0 0 512 512" id="auction" xmlns="http://www.w3.org/2000/svg"><path d="M506.4 413.5L401.1 308.2c-3.6-3.6-8.4-5.6-13.4-5.6-3.5 0-6.9 1-9.8 2.7l-59.2-59.2c-3-3-7.9-3-11 0-3 3-3 7.9 0 11l58.7 58.7-21.6 21.6-107.6-107.5 21.6-21.6 14.4 14.4c3 3 7.9 3 11 0 3-3 3-7.9 0-11l-14.4-14.4 37.5-37.5 3 3c3.7 3.7 8.6 5.7 13.8 5.7 5.2 0 10.1-2 13.8-5.7l13.8-13.8c3.7-3.7 5.7-8.6 5.7-13.8 0-5.2-2-10.1-5.7-13.8L245.6 15.1c-3.7-3.7-8.6-5.7-13.8-5.7-5.2 0-10.1 2-13.8 5.7L204.2 29c-3.7 3.7-5.7 8.6-5.7 13.8 0 5.2 2 10.1 5.7 13.8l3 3L88.5 178.2l-3-3c-7.6-7.6-20-7.6-27.6 0L44.1 189c-3.7 3.7-5.7 8.6-5.7 13.8 0 5.2 2 10.1 5.7 13.8l106.1 106.1c3.7 3.7 8.6 5.7 13.8 5.7s10.1-2 13.8-5.7l13.8-13.8c7.6-7.6 7.6-20 0-27.6l-3-3 37.5-37.5L334.3 349c-1.8 2.9-2.7 6.3-2.7 9.8 0 5.1 2 9.8 5.6 13.4l105.3 105.3c3.6 3.6 8.4 5.6 13.4 5.6 5.1 0 9.8-2 13.4-5.6l37.1-37.1c3.6-3.6 5.6-8.4 5.6-13.4s-2-9.9-5.6-13.5zM215.1 39.9L229 26.1c.8-.8 1.8-1.2 2.8-1.2 1.1 0 2.1.4 2.8 1.2l106.1 106.1c.8.8 1.2 1.8 1.2 2.8s-.4 2.1-1.2 2.8l-13.8 13.8c-1.5 1.5-4.1 1.5-5.7 0l-106.1-106c-.8-.8-1.2-1.8-1.2-2.8.1-1.1.5-2.1 1.2-2.9zM180.6 298l-13.8 13.8c-1.5 1.5-4.1 1.5-5.7 0L55 205.7c-.8-.8-1.2-1.8-1.2-2.8s.4-2.1 1.2-2.8l13.8-13.8c.8-.8 1.8-1.2 2.8-1.2s2 .4 2.8 1.2l106.1 106.1c1.7 1.5 1.7 4 .1 5.6zm40.1-73.6l-43 43-78.2-78.2L218.1 70.5l78.2 78.2-43 43-32.6 32.7zm274.8 205l-37.1 37.1c-.9.9-1.9 1-2.4 1s-1.6-.1-2.4-1L348.1 361.2c-.9-.9-1-1.9-1-2.4s.1-1.6 1-2.4l2.3-2.3 34.9-34.9c.9-.9 1.9-1 2.4-1s1.6.1 2.4 1l105.3 105.3c.9.9 1 1.9 1 2.4s-.1 1.6-.9 2.5z"/><path d="M294.8 433.8h-11.9v-40.9c0-9.1-7.4-16.5-16.5-16.5H132.6c-4.3 0-7.8 3.5-7.8 7.8s3.5 7.8 7.8 7.8h133.8c.6 0 1 .5 1 1v40.9H61.1V393c0-.6.5-1 1-1h21.6c4.3 0 7.8-3.5 7.8-7.8s-3.5-7.8-7.8-7.8H62.2c-9.1 0-16.5 7.4-16.5 16.5v40.9h-12C15.1 433.8 0 448.9 0 467.5v22.1c0 7.2 5.8 13 13 13h302.6c7.2 0 13-5.8 13-13v-22.1c0-18.6-15.2-33.7-33.8-33.7zm18.2 53.3H15.5v-19.6c0-10 8.2-18.2 18.2-18.2h261.1c10 0 18.2 8.2 18.2 18.2v19.6z"/></symbol><symbol viewBox="0 0 512 512" id="calendar" xmlns="http://www.w3.org/2000/svg"><path d="M462 172c2.6 0 5.2-1.1 7.1-2.9 1.9-1.9 2.9-4.4 2.9-7.1s-1.1-5.2-2.9-7.1c-1.9-1.9-4.4-2.9-7.1-2.9s-5.2 1.1-7.1 2.9-2.9 4.4-2.9 7.1 1.1 5.2 2.9 7.1c1.9 1.8 4.5 2.9 7.1 2.9zM196.5 443.7h-.1c-5.5 0-10 4.5-10 10s4.5 10 10 10h.1c5.5 0 10-4.5 10-10s-4.5-10-10-10z"/><path d="M512 401.6V70c0-16.5-13.5-30-30-30h-34.3v-6c0-18.7-15.3-34-34-34s-34 15.3-34 34v6h-89.9v-6c0-18.7-15.3-34-34-34s-34 15.3-34 34v6H132v-6c0-18.7-15.3-34-34-34S64 15.3 64 34v6H30C13.5 40 0 53.5 0 70v412c0 16.5 13.5 30 30 30h371.6c2.8 0 5.3-1.1 7.1-2.9l100.4-100.4c1.8-1.8 2.9-4.3 2.9-7.1zM399.7 34c0-7.7 6.3-14 14-14s14 6.3 14 14v49c0 7.7-6.3 14-14 14s-14-6.3-14-14V34zm-157.8 0c0-7.7 6.3-14 14-14s14 6.3 14 14v49c0 7.7-6.3 14-14 14s-14-6.3-14-14V34zM84 34c0-7.7 6.3-14 14-14s14 6.3 14 14v49c0 7.7-6.3 14-14 14s-14-6.3-14-14V34zM20 482v-18.3h136.5c5.5 0 10-4.5 10-10s-4.5-10-10-10H20V172h402c5.5 0 10-4.5 10-10s-4.5-10-10-10H20V70c0-5.5 4.5-10 10-10h34v23c0 18.7 15.3 34 34 34s34-15.3 34-34V60h89.9v23c0 18.7 15.3 34 34 34s34-15.3 34-34V60h89.9v23c0 18.7 15.3 34 34 34s34-15.3 34-34V60H482c5.5 0 10 4.5 10 10v321.6h-70.4c-16.5 0-30 13.5-30 30V492H30c-5.5 0-10-4.5-10-10zm391.6-4.1v-56.3c0-5.5 4.5-10 10-10h56.3l-66.3 66.3z"/><path d="M196.1 350.5v-69c0-10.7-8.7-19.5-19.5-19.5h-43.3c-5.5 0-10 4.5-10 10s4.5 10 10 10h42.8v24h-42.8c-5.5 0-10 4.5-10 10s4.5 10 10 10h42.8v24h-42.8c-5.5 0-10 4.5-10 10s4.5 10 10 10h43.3c10.7 0 19.5-8.7 19.5-19.5zm86.8-68.5c5.5 0 10-4.5 10-10s-4.5-10-10-10h-43.3c-10.7 0-19.5 8.7-19.5 19.5v69c0 10.7 8.7 19.5 19.5 19.5h33.8c10.7 0 19.5-8.7 19.5-19.5v-25c0-10.7-8.7-19.5-19.5-19.5h-33.3v-24h42.8zm-24.2 44h14.2v24h-32.8v-24h18.6zm111.5-20h-33.3v-24h42.8c5.5 0 10-4.5 10-10s-4.5-10-10-10h-43.3c-10.7 0-19.5 8.7-19.5 19.5v25c0 10.7 8.7 19.5 19.5 19.5h33.3v24h-42.8c-5.5 0-10 4.5-10 10s4.5 10 10 10h43.3c10.7 0 19.5-8.7 19.5-19.5v-25c0-10.8-8.8-19.5-19.5-19.5z"/></symbol><symbol viewBox="0 0 358.4 512" id="card" xmlns="http://www.w3.org/2000/svg"><path d="M213.3 0H42.7C19.1 0 0 19.1 0 42.7v307.2c0 23.5 19.1 42.7 42.7 42.7h153.6v-17.1H42.7c-14.1 0-25.6-11.5-25.6-25.6V42.7c0-14.1 11.5-25.6 25.6-25.6h170.7c14.1 0 25.6 11.5 25.6 25.6v247.5h17V42.7C256 19.1 236.9 0 213.3 0z"/><path d="M337.8 227.3l-83.7-104.6-13.3 10.7L324.5 238c10.9 13.6 16.8 30.6 16.8 48v209H216.5c-44.1 0-80-35.9-80-80v-31h-17.1v31c0 53.5 43.5 97 97 97h133.4c4.7 0 8.5-3.8 8.5-8.5V286c.1-21.3-7.2-42.1-20.5-58.7z"/><path d="M145 201.2c6 .2 11.6 2.7 15.7 7l114.7 121.9 12.4-11.7-114.7-121.9c-7.2-7.7-17.1-12.1-27.6-12.4-10.7-.4-20.6 3.5-28.2 10.7-.1.1-.8.7-.9.8-14.6 14.6-15.6 37.6-2.3 53.4l73.5 86.8v26.4c0 47.2 29.6 89.9 73.8 106.5l6-16c-37.5-14.1-62.7-50.4-62.7-90.5v-29.5c0-2-.7-4-2-5.5l-75.5-89.1c-7.6-9-7-22.1 1.7-30.8 4.4-4.1 10.1-6.1 16.1-6.1z"/><path d="M187.7 17.1h17.1v213.3h-17.1zm-42.6 264.5h17.1V384h-17.1zm0-273.1h17.1v187.7h-17.1zM42.7 42.7h17.1v110.9H42.7zm42.6 0h17.1V111H85.3zm17.1 238.9H51.2c-4.7 0-8.5 3.8-8.5 8.5v51.2c0 4.7 3.8 8.5 8.5 8.5h51.2c4.7 0 8.5-3.8 8.5-8.5v-51.2c0-4.7-3.8-8.5-8.5-8.5zm-8.5 51.2H59.7v-34.1h34.1v34.1z"/></symbol><symbol viewBox="0 0 20 20" id="check" xmlns="http://www.w3.org/2000/svg"><g clip-path="url(#gclip0)"><path d="M18.317 8.383a.808.808 0 0 0-.808.808v.814a7.894 7.894 0 0 1-2.33 5.617 7.895 7.895 0 0 1-5.617 2.324h-.004c-4.382-.002-7.945-3.569-7.942-7.95a7.895 7.895 0 0 1 2.33-5.618 7.895 7.895 0 0 1 5.616-2.325h.005a7.897 7.897 0 0 1 3.23.689.808.808 0 0 0 1.066-.41.808.808 0 0 0-.409-1.066A9.502 9.502 0 0 0 9.568.438h-.006a9.5 9.5 0 0 0-6.757 2.797A9.5 9.5 0 0 0 0 9.995a9.5 9.5 0 0 0 2.797 6.763 9.5 9.5 0 0 0 6.76 2.804h.005a9.5 9.5 0 0 0 6.758-2.797 9.5 9.5 0 0 0 2.805-6.76V9.19a.808.808 0 0 0-.808-.808z"/><path d="M19.763 1.555a.808.808 0 0 0-1.142 0l-9.059 9.058-2.055-2.055a.808.808 0 0 0-1.142 1.143l2.626 2.626a.805.805 0 0 0 .571.237.805.805 0 0 0 .572-.237l9.63-9.63a.808.808 0 0 0 0-1.142z"/></g><defs><clipPath id="gclip0"><path d="M0 0h20v20H0z"/></clipPath></defs></symbol><symbol viewBox="0 0 512 512" id="check-mark" xmlns="http://www.w3.org/2000/svg"><path d="M428 0c-46.3 0-84 37.7-84 84s37.7 84 84 84 84-37.7 84-84-37.7-84-84-84zm0 148c-35.3 0-64-28.7-64-64s28.7-64 64-64 64 28.7 64 64-28.7 64-64 64zm-111.9 2.9c-1.9-1.9-4.4-2.9-7.1-2.9s-5.2 1.1-7.1 2.9c-1.9 1.9-2.9 4.4-2.9 7.1s1.1 5.2 2.9 7.1c1.9 1.9 4.4 2.9 7.1 2.9s5.2-1.1 7.1-2.9c1.9-1.9 2.9-4.4 2.9-7.1s-1.1-5.2-2.9-7.1z"/><path d="M400 197.2c-5.5 0-10 4.5-10 10V252H138v-84h118c5.5 0 10-4.5 10-10s-4.5-10-10-10H128c-5.5 0-10 4.5-10 10v104c0 5.5 4.5 10 10 10h272c5.5 0 10-4.5 10-10v-54.8c0-5.6-4.5-10-10-10zm0 158.8H288.2c-5.5 0-10 4.5-10 10s4.5 10 10 10H400c5.5 0 10-4.5 10-10s-4.5-10-10-10zm0-52H288.2c-5.5 0-10 4.5-10 10s4.5 10 10 10H400c5.5 0 10-4.5 10-10s-4.5-10-10-10zm0 104H288.2c-5.5 0-10 4.5-10 10s4.5 10 10 10H400c5.5 0 10-4.5 10-10s-4.5-10-10-10zM239.8 304h-55.9c-5.5 0-10 4.5-10 10s4.5 10 10 10h45.9v84H128c-5.5 0-10 4.5-10 10s4.5 10 10 10h111.8c5.5 0 10-4.5 10-10V314c0-5.5-4.5-10-10-10zM448 201.5c-5.5 0-10 4.5-10 10v86.3c0 5.5 4.5 10 10 10s10-4.5 10-10v-86.3c0-5.5-4.5-10-10-10zm7.1 129.4c-1.9-1.9-4.4-2.9-7.1-2.9s-5.2 1.1-7.1 2.9c-1.9 1.9-2.9 4.4-2.9 7.1s1.1 5.2 2.9 7.1c1.9 1.9 4.4 2.9 7.1 2.9s5.2-1.1 7.1-2.9c1.9-1.9 2.9-4.4 2.9-7.1s-1.1-5.2-2.9-7.1z"/><path d="M448 372.7c-5.5 0-10 4.5-10 10V482c0 5.5-4.5 10-10 10H100c-5.5 0-10-4.5-10-10v-59.1l60.5-47c10.9-8.5 15.9-22.1 13.1-35.6-2.1-10-8.3-18.6-17.1-23.8-8.8-5.1-19.4-6.3-29.1-3.1l-40.5 13.1c-5.3 1.7-8.1 7.3-6.4 12.6 1.7 5.3 7.3 8.1 12.6 6.4l40.5-13.1c4.4-1.4 8.9-.9 12.9 1.4s6.6 6 7.6 10.5c1.2 6-1 12-5.8 15.7l-64.4 50c-2.4 1.9-3.9 4.8-3.9 7.9V485c0 .8.1 1 .3.9 2 14.6 14.5 26 29.7 26h328c16.5 0 30-13.5 30-30v-99.3c0-5.4-4.5-9.9-10-9.9z"/><path d="M304.3 68H100c-16.5 0-30 13.5-30 30v122.3L1.6 324.1c-1.1 1.6-1.6 3.5-1.6 5.5V502c0 5.5 4.5 10 10 10s10-4.5 10-10V332.6l50-75.9v41.1c0 5.5 4.5 10 10 10s10-4.5 10-10V98c0-5.5 4.5-10 10-10h204.3c5.5 0 10-4.5 10-10s-4.4-10-10-10zm161.6-7.2c-3.9-3.9-10.2-3.9-14.1 0L426 86.5l-9.3-9.3c-3.9-3.9-10.2-3.9-14.1 0-3.9 3.9-3.9 10.2 0 14.1l16.4 16.4c2 2 4.5 2.9 7.1 2.9s5.1-1 7.1-2.9L466 74.9c3.8-3.9 3.8-10.2-.1-14.1z"/></symbol><symbol viewBox="0 0 496 496" id="checklist" xmlns="http://www.w3.org/2000/svg"><path d="M352.5 256c4.8 0 9.4 1.4 13.3 4l55.9 37.3c6.6 4.4 14.3 6.7 22.2 6.7H496v-16h-52.1c-4.8 0-9.4-1.4-13.3-4L408 269V0H104v48H0v448h304v-48h104v-67.3l1.5-.3 37.2-9.3c8.3-2.1 16.8-3.1 25.3-3.1h24v-16h-24c-9.8 0-19.6 1.2-29.1 3.6l-37.2 9.3c-19.1 4.8-39.5 4-58.2-2.2l-13.5-4.5c-12.3-4.1-25.1-6.2-38-6.2h-69.8c0-13.2 10.8-24 24-24h88c13.2 0 24-10.8 24-24 0-12.3-9.3-22.3-21.2-23.7l6.6-24.3h4.9zm-10.1 121.8c12.3 4.1 25.1 6.2 38 6.2 3.9 0 7.8-.3 11.6-.7V432h-88v-26.2c2.8-3.2 5-7.1 6.2-11.4l6.6-24.3c4.1.8 8.2 1.8 12.2 3.2l13.4 4.5zm-41.7-9.6l-6 22.1c-1.6 5.7-6.8 9.8-12.7 9.8h-2.6c-7.3 0-13.2-5.9-13.2-13.2 0-1.2.2-2.3.5-3.4l4.2-15.4H296c1.6-.1 3.1 0 4.7.1zm-46.5-.2l-3 11.2c-.7 2.5-1 5-1 7.6 0 10.8 6 20.2 14.7 25.2l-2.5 10 15.5 3.9 2.5-9.9h1.5c2.1 0 4.1-.3 6-.7V480H16V64h104V16h272v242.3l-17.3-11.5c-6.6-4.4-14.3-6.7-22.2-6.7h-.6l33.3-123.2c.7-2.5 1-5 1-7.6 0-16.1-13.1-29.2-29.2-29.2h-2.6c-13.2 0-24.7 8.9-28.2 21.6L304 183.9V48H136v16h152v176h-16.6c-8.7 0-16.9 2.9-23.8 8H168v16h62.9l-16 16H168v16h30.9l-13.4 13.4c-4.7 4.7-7.3 11-7.3 17.7 0 13.8 11.2 25 25 25 2.5 0 4.8-.5 7.1-1.2 0 .4-.1.8-.1 1.2 0 8.8 7.2 16 16 16h28zm61.7-56H286l33.8-125 27.4 9.1L315.9 312zm-61.4-49c4.5-4.5 10.7-7 17-7h13.1l-6.5 24.1c-10.1.4-19.6 4.4-26.8 11.6l-41.7 41.7c-1.7 1.7-4 2.6-6.3 2.6-5 0-9-4-9-9 0-2.4.9-4.6 2.6-6.3l57.6-57.7zm8 40c3-3 6.9-5.1 11-6.2l-4.1 15.1h-15.9l9-8.9zm107.2-190.4l-9.8 36.2-27.4-9.1 9.2-34c1.6-5.7 6.8-9.8 12.7-9.8h2.6c7.3 0 13.2 5.9 13.2 13.2 0 1.3-.2 2.4-.5 3.5zm-41.4 42.6l27.4 9.1-4.4 16.3-27.4-9.1 4.4-16.3zm9.9 140.8c4.4 0 8 3.6 8 8s-3.6 8-8 8h-5.8l4.3-16h1.5z"/><path d="M240 80H32v80h208V80zm-16 64H48V96h176v48z"/><path d="M64 112h16v16H64v-16zm32 0h16v16H96v-16zm32 0h16v16h-16v-16zm32 0h16v16h-16v-16zm32 0h16v16h-16v-16zm-64 144h-16v32H48v-64h48v-16H32v96h96v-48z"/><path d="M154.3 178.3L80 252.7l-10.3-10.3-11.3 11.3L80 275.3l85.7-85.7-11.4-11.3zM112 424H48v-64h48v-16H32v96h96v-48h-16v32z"/><path d="M69.7 378.3l-11.3 11.3L80 411.3l85.7-85.7-11.3-11.3L80 388.7l-10.3-10.4zM256 440h16v16h-16v-16zm-104 0h88v16h-88v-16zm16-224h104v16H168v-16z"/></symbol><symbol viewBox="0 0 48 48" id="close" xmlns="http://www.w3.org/2000/svg"><path d="M28.2 24L47.1 5.1c1.2-1.2 1.2-3.1 0-4.2C45.9-.3 44-.3 42.9.9L24 19.7 5.1.9C3.9-.3 2-.3.9.9-.3 2.1-.3 4 .9 5.1L19.7 24 .9 42.8C-.3 44-.3 45.9.9 47c.6.7 1.3 1 2.1 1s1.5-.3 2.1-.9L24 28.2l18.9 18.9c.6.6 1.4.9 2.1.9s1.5-.3 2.1-.9c1.2-1.2 1.2-3.1 0-4.2L28.2 24z"/></symbol><symbol viewBox="0 0 496 496" id="collective" xmlns="http://www.w3.org/2000/svg"><path d="M360 376c-22.1 0-40-17.9-40-40 0-8.3 2.6-16.3 7.4-23.1l-13-9.3c-6.8 9.6-10.4 20.8-10.4 32.4 0 30.9 25.1 56 56 56 11.7 0 22.9-3.6 32.4-10.4l-9.3-13c-6.8 4.8-14.8 7.4-23.1 7.4z"/><path d="M424 176v-24c0-17.6-14.4-32-32-32V88h-24V72h16V24h-48v48h16v16h-24v88h-16v-43.7c0-15.7-11.2-29-26.7-31.6L264 97.2V88h-.2c9.8-7.3 16.2-18.9 16.2-32V40c0-22.1-17.9-40-40-40s-40 17.9-40 40v16c0 13.1 6.4 24.7 16.2 32h-.2v9.2l-21.3 3.5c-15.5 2.6-26.7 15.9-26.7 31.6V176h-8v-43.7c0-15.7-11.2-29-26.7-31.6L112 97.2V88h-.2c9.8-7.3 16.2-18.9 16.2-32V40c0-22.1-17.9-40-40-40S48 17.9 48 40v16c0 13.1 6.4 24.7 16.2 32H64v9.2l-21.3 3.5C27.2 103.3 16 116.6 16 132.3V176H0v320h496V176h-72zM352 40h16v16h-16V40zm24 64v16h-32v-16h32zm45.8 195.3c3.5 5.9 6.2 12.3 7.9 19l1.2 4.9 17.1 3.4v18.9l-17.1 3.4-1.2 4.9c-1.7 6.7-4.4 13.1-7.9 19l-2.6 4.3 9.6 14.5-13.4 13.4-14.5-9.6-4.3 2.6c-5.9 3.5-12.3 6.2-19 7.9l-4.9 1.2-3.4 17.1h-18.9l-3.4-17.1-4.9-1.2c-6.7-1.7-13.1-4.4-19-7.9l-4.3-2.6-14.5 9.6-13.4-13.4 9.6-14.5-2.6-4.3c-3.5-5.9-6.2-12.3-7.9-19l-1.2-4.9-17.1-3.4v-18.9l17.1-3.4 1.2-4.9c1.7-6.7 4.4-13.1 7.9-19l2.6-4.3-9.6-14.5 13.4-13.4 14.5 9.6 4.3-2.6c1.5-.9 3.1-1.6 4.7-2.4v42.9l32 42.7 32-42.7V312c5.1 6.8 8 15.2 8 23.9 0 8.3-2.6 16.3-7.4 23.1l13 9.3c6.8-9.6 10.4-20.8 10.4-32.4 0-18.3-9.1-35.4-24-45.8v-18.4c1.6.8 3.2 1.5 4.7 2.4l4.3 2.6 14.5-9.6 13.4 13.4-9.6 14.5 2.7 4.3zM344 296h32v13.3l-16 21.3-16-21.3V296zm32-16h-32V136h32v144zM216 40c0-13.2 10.8-24 24-24s24 10.8 24 24v16c0 13.2-10.8 24-24 24s-24-10.8-24-24V40zm-32 92.3c0-7.9 5.6-14.5 13.4-15.8l34.6-5.8V95.2c2.6.5 5.3.8 8 .8s5.4-.3 8-.8v15.6l34.6 5.8c7.7 1.3 13.4 7.9 13.4 15.8V176H184v-43.7zM64 40c0-13.2 10.8-24 24-24s24 10.8 24 24v16c0 13.2-10.8 24-24 24S64 69.2 64 56V40zm-32 92.3c0-7.9 5.6-14.5 13.4-15.8l34.6-5.8V95.2c2.6.5 5.3.8 8 .8s5.4-.3 8-.8v15.6l34.6 5.8c7.7 1.3 13.4 7.9 13.4 15.8V176H32v-43.7zM480 480H16V192h312v62.2c-2.9 1.1-5.7 2.4-8.5 3.8l-17.1-11.4-31.9 31.9 11.4 17.1c-2.3 4.4-4.2 9.1-5.7 13.8l-20.2 4.1v45.1l20.2 4.1c1.5 4.8 3.4 9.4 5.7 13.8l-11.4 17.1 31.9 31.9 17.1-11.4c4.4 2.3 9.1 4.2 13.8 5.7l4.1 20.2h45.1l4.1-20.2c4.8-1.5 9.4-3.4 13.8-5.7l17.1 11.4 31.9-31.9-11.4-17.1c2.3-4.4 4.2-9.1 5.7-13.8l20.2-4.1v-45.1l-20.2-4.1c-1.5-4.8-3.4-9.4-5.7-13.8l11.4-17.1-31.9-31.9-17.1 11.4c-2.7-1.4-5.6-2.7-8.5-3.8V136c8.8 0 16 7.2 16 16v56c0 13.2 10.8 24 24 24h16v-16h-16c-4.4 0-8-3.6-8-8v-16h56v288z"/><path d="M240 216h16v16h-16v-16zm-32 0h16v16h-16v-16zm-32 0h16v16h-16v-16zm16.5 112.9L213 288h43v-16h-52.9l-11.5 23.1-27-47.1H32v16h123.4l37.1 64.9z"/><path d="M32 280h120v16H32v-16zm0 32h120v16H32v-16zm184 96h-16v40h-16v-64h-16v64h-16V344h-16v104h-16v-64h-16v64H88v-40H72v40H56v16h176v-16h-16v-40zm232 40h16v16h-16v-16zm-32 0h16v16h-16v-16zm-32 0h16v16h-16v-16z"/></symbol><symbol viewBox="0 0 480 480" id="contract" xmlns="http://www.w3.org/2000/svg"><path d="M479.1 113.8c-1.7-6.1-5.7-11.4-11.2-14.6-5.5-3.2-12.1-4.1-18.2-2.4-6.1 1.7-11.4 5.7-14.6 11.2l-4 7c-3.8-2.2-8.7-.9-10.9 2.9l-20.3 34.6-7-4c-1.8-1.1-4-1.4-6.1-.8-2.1.6-3.8 1.9-4.9 3.8-2.2 3.8-.8 8.7 3 10.9l7 4-68 117.8-16.8 44.9-8 15c-4.7 8.1-4.2 18.3 1.3 25.9l-18 22.1-5-12.6c-2.3-5.6-7.5-9.5-13.6-10s-11.9 2.5-15 7.7L246 382l-2.7-32c-.6-7.6-6.5-13.7-14-14.6-7.5-.9-14.7 3.6-17.1 10.8l-19.7 59c-1.4 4.2.9 8.7 5 10.1.8.4 1.6.6 2.5.6 3.4 0 6.5-2.2 7.6-5.4l19.6-59L230 384c.6 6.9 5.6 12.7 12.3 14.3 6.8 1.6 13.8-1.4 17.3-7.4l3-4.9 5 12.6c2.1 5.3 6.9 9.1 12.5 9.9 5.6.8 11.3-1.4 14.9-5.8l18.6-23.6c2.1.5 4.2.8 6.3.8 8.6.1 16.5-4.4 20.9-11.8l8-13.4 30.5-37L448 198.4l7 4c1.9 1.1 3.2 2.8 3.8 4.9.6 2.1.3 4.2-.8 6.1l-32 55.4c-1.2 1.8-1.6 4.1-1.1 6.2.5 2.1 1.8 4 3.7 5.1 1.8 1.1 4 1.4 6.1.8 2.1-.6 3.8-1.9 4.9-3.8l32-55.4c3.2-5.5 4.1-12.1 2.4-18.2-1.7-6.1-5.7-11.4-11.2-14.6l-7-4 20-34.6c2.2-3.8.9-8.7-2.9-10.9l4-7c3.1-5.6 4-12.3 2.2-18.6zm-30.1 2.3c1.1-1.9 2.8-3.2 4.9-3.8 2.1-.5 4.2-.2 6.1.8 1.9 1.1 3.2 2.8 3.8 4.9.5 2.1.2 4.2-.8 6.1l-4 7-13.9-8 3.9-7zM339.9 339.4l-4-2.3-11.8-6.9 11.4-30.4 25.2 14.6-20.8 25zm-24 23.1c-3.4-2.4-4.4-6.9-2.4-10.5l4-7 13.9 8-4 6.9c-1.1 1.9-3 3.3-5.2 3.8-2.1.5-4.4.1-6.3-1.2zm53.9-61.3l-27.7-16 64-110.9 27.7 16-64 110.9zm72-124.7l-27.7-16 16-27.7 27.7 16-16 27.7zm-315.6 182l-28.3 28.2-17-17c-3.1-3.1-8.2-3.1-11.3 0-1.5 1.5-2.4 3.5-2.4 5.7s.9 4.2 2.4 5.7l17 17c3 3 7.1 4.6 11.3 4.6 4.2 0 8.3-1.6 11.4-4.6l28.2-28.3c2.7-3.2 2.5-7.9-.4-10.9-3-2.9-7.7-3.1-10.9-.4z"/><path d="M32 380c0 37.6 30.4 68 68 68s68-30.4 68-68c0-4.4-3.6-8-8-8s-8 3.6-8 8c0 28.7-23.3 52-52 52s-52-23.3-52-52 23.3-52 52-52c11.3 0 22.2 3.6 31.2 10.4 3.5 2.7 8.5 1.9 11.2-1.6 2.7-3.5 1.9-8.5-1.6-11.2-20.6-15.5-48.2-17.9-71.2-6.4C46.5 330.7 32 354.3 32 380zM288 64.1c4.4 0 8-3.6 8-8s-3.6-8-8-8H80c-4.4 0-8 3.6-8 8v32c0 4.4 3.6 8 8 8h208c4.4 0 8-3.6 8-8s-3.6-8-8-8H88v-16h200zm-184 48c-4.4 0-8 3.6-8 8s3.6 8 8 8h160c4.4 0 8-3.6 8-8s-3.6-8-8-8H104zm207.9 56H136c-4.4 0-8 3.6-8 8s3.6 8 8 8h176c4.4 0 8-3.6 8-8-.1-4.5-3.6-8-8.1-8zM232 224c0-4.4-3.6-8-8-8H64c-4.4 0-8 3.6-8 8s3.6 8 8 8h160c4.4 0 8-3.5 8-8zm79.9-8h-56c-4.4 0-8 3.6-8 8s3.6 8 8 8h56c4.4 0 8-3.6 8-8s-3.5-8-8-8zM144 272c4.4 0 8-3.6 8-8s-3.6-8-8-8H64c-4.4 0-8 3.6-8 8s3.6 8 8 8h80zm32 0h56c4.4 0 8-3.6 8-8s-3.6-8-8-8h-56c-4.4 0-8 3.6-8 8 0 4.5 3.6 8 8 8z"/><path d="M359.9 368c-4.4 0-8 3.6-8 8v80c0 4.4-3.6 8-8 8H24c-4.4 0-8-3.6-8-8V24.1c0-4.4 3.6-8 8-8h319.9c4.4 0 8 3.6 8 8v150.2c0 4.4 3.6 8 8 8s8-3.6 8-8V24.1c0-13.3-10.7-24-24-24H24C10.7.1 0 10.8 0 24.1V456c0 13.3 10.7 24 24 24h319.9c13.3 0 24-10.7 24-24v-80c0-4.4-3.5-8-8-8z"/></symbol><symbol viewBox="0 0 512 512" id="credit-card" xmlns="http://www.w3.org/2000/svg"><path d="M152.8 163.9c-6.3 0-12.4 1.7-17.7 4.9-5.2-3.1-11.2-4.9-17.7-4.9-18.9 0-34.3 15.4-34.3 34.3s15.4 34.3 34.3 34.3c6.5 0 12.5-1.8 17.7-4.9 5.3 3.2 11.4 4.9 17.7 4.9 18.9 0 34.3-15.4 34.3-34.3s-15.4-34.3-34.3-34.3zm-35.4 53.7c-10.7 0-19.3-8.7-19.3-19.3s8.7-19.3 19.3-19.3 19.3 8.7 19.3 19.3-8.7 19.3-19.3 19.3zm35.4 0c-2.2 0-4.3-.4-6.3-1.1 3.3-5.3 5.3-11.5 5.3-18.3s-1.9-13-5.3-18.3c2-.7 4.2-1.1 6.3-1.1 10.7 0 19.3 8.7 19.3 19.3 0 10.8-8.7 19.5-19.3 19.5zm254.1 107.6h-72.7c-4.1 0-7.5 3.4-7.5 7.5s3.4 7.5 7.5 7.5h72.7c4.1 0 7.5-3.4 7.5-7.5 0-4.2-3.3-7.5-7.5-7.5zm-96.1 0h-14.4c-4.1 0-7.5 3.4-7.5 7.5s3.4 7.5 7.5 7.5h14.4c4.1 0 7.5-3.4 7.5-7.5s-3.3-7.5-7.5-7.5zm-206.5 0H89.8c-4.1 0-7.5 3.4-7.5 7.5s3.4 7.5 7.5 7.5h14.4c4.1 0 7.5-3.4 7.5-7.5.1-4.2-3.3-7.5-7.4-7.5z"/><path d="M437 75c-10.3-10.3-21.4-19.7-33.2-28-3.4-2.4-8.1-1.6-10.5 1.8-2.4 3.4-1.6 8.1 1.8 10.5 11.1 7.9 21.6 16.7 31.3 26.4 45.5 45.5 70.6 106 70.6 170.4S471.9 381 426.4 426.5C380.9 471.9 320.4 497 256 497s-124.9-25.1-170.4-70.6c-3.3-3.3-6.6-6.8-9.7-10.3-.3-.8-.8-1.6-1.4-2.3-2.8-3.1-7.5-3.3-10.6-.5l-.6.6c-2.8 2.8-2.9 7.3-.3 10.2 3.9 4.5 8 8.8 12.1 13 48.4 48.3 112.6 75 181 75s132.7-26.6 181-75c48.3-48.4 75-112.6 75-181S485.4 123.3 437 75z"/><path d="M385.8 98.7c-.1-2.1-1.2-4.1-2.9-5.5-36.6-28.6-80.5-43.8-127-43.8-32.8 0-64.2 7.5-93.3 22.3-27.7 14.1-52.4 34.7-71.2 59.6C64 167.5 49.5 210.6 49.5 256c0 45.4 14.5 88.5 41.9 124.6l1.8 2.4c1.3 1.7 3.3 2.7 5.4 2.9h.4c2 0 3.9-.8 5.3-2.2l2.3-2.3 276.9-276.9c1.7-1.5 2.5-3.6 2.3-5.8zM199.7 267.2H98v-10h111.7l-10 10zm25-25H90.5c-4.1 0-7.5 3.4-7.5 7.5v25c0 4.1 3.4 7.5 7.5 7.5h94.2l-17.1 17.1H89.4c-4.1 0-7.5 3.4-7.5 7.5s3.4 7.5 7.5 7.5h63.2L100 366.9C76.8 334.4 64.5 296.2 64.5 256c0-40.8 12.7-79.7 36.7-112.6h222.3l-98.8 98.8zm113.8-113.8H113.3c36.4-40.8 87.5-63.9 142.7-63.9 40.2 0 78.4 12.2 110.9 35.5l-28.4 28.4zm82 3l-1.8-2.4c-1.3-1.7-3.3-2.7-5.4-2.9-2.1-.1-4.2.7-5.8 2.2l-2.3 2.3-276.9 276.9c-1.5 1.5-2.3 3.6-2.2 5.8.1 2.1 1.2 4.1 2.9 5.5 36.6 28.6 80.5 43.8 127 43.8 68.9 0 133-34.2 171.5-91.6.1-.1.1-.2.2-.3 22.7-34 34.8-73.6 34.8-114.6 0-45.5-14.5-88.6-42-124.7zm-68.7 87.8c0-1.8 1.5-3.3 3.3-3.3h30.6v6.9h-33.9v-3.6zm0 18.6h33.9v4.4h-33.9v-4.4zm0 19.4h33.9v5.3H355c-1.8 0-3.3-1.5-3.3-3.3v-2zm-51.9 0h6.1v10h-16.1l10-10zm116.4 103.4c-10.3 5.2-21.9 8-33.6 8H267.3c-4.1 0-7.5 3.4-7.5 7.5s3.4 7.5 7.5 7.5h115.3c5.9 0 11.8-.6 17.5-1.7-36.2 41.5-88.5 65.6-144.2 65.6-40.2 0-78.4-12.2-110.9-35.5l28.4-28.4h63.8c4.1 0 7.5-3.4 7.5-7.5s-3.4-7.5-7.5-7.5h-48.8l54.3-54.3h164.2c4.1 0 7.5-3.4 7.5-7.5s-3.4-7.5-7.5-7.5H257.7l17.1-17.1h38.6c4.1 0 7.5-3.4 7.5-7.5v-25c0-3.7-2.7-6.8-6.3-7.4l22-22v38.9c0 10.1 8.2 18.3 18.3 18.3h54.9c10.1 0 18.3-8.2 18.3-18.3v-40c0-10.1-8.2-18.3-18.3-18.3H356l55.8-55.8c23.2 32.5 35.5 70.8 35.5 110.9.2 37.3-10.6 73.5-31 104.6zm-15.7-98.1v-46.6h9.3c1.8 0 3.3 1.5 3.3 3.3v40c0 1.8-1.5 3.3-3.3 3.3h-9.3z"/><path d="M376.9 30.2C340.1 10.4 298.3 0 256 0 187.6 0 123.3 26.6 75 75 26.6 123.3 0 187.6 0 256c0 51.7 15.3 101.4 44.1 143.8 1.5 2.1 3.8 3.3 6.2 3.3 1.5 0 2.9-.4 4.2-1.3 3.4-2.3 4.3-7 2-10.4C29.4 351.5 15 304.7 15 256c0-64.4 25.1-124.9 70.6-170.4C131.1 40.1 191.6 15 256 15c39.8 0 79.2 9.8 113.8 28.4 3.6 2 8.2.6 10.2-3.1 1.9-3.6.5-8.1-3.1-10.1z"/></symbol><symbol viewBox="0 0 496 496" id="customer-service" xmlns="http://www.w3.org/2000/svg"><path d="M402.5 432L384 376.4c-6.5-19.4-23-33.7-43.1-37.4l-53.5-9.7v-4.1c9.3-5.4 17.4-12.6 23.8-21.2h16.2c13.2 0 24-10.8 24-24v-96c0-57.3-46.7-104-104-104s-104 46.7-104 104v56c0 15.4 11 28.3 25.5 31.3 4.5 23 18.9 42.4 38.5 53.8v4.1L154 339c-20.1 3.7-36.6 18-43.1 37.4l-3.2 9.6-27.2-27.2c-3.1-3.1-3.1-8.2 0-11.3l31.6-31.6-59.3-59.3L17 292.3C6.4 302.9.6 316.9.6 331.9s5.8 29 16.4 39.6l108.1 108.1c10.6 10.6 24.6 16.4 39.6 16.4s29-5.8 39.3-16.2l39-35.7-12.1-12.1h171.6zm-67.1-152c0 4.4-3.6 8-8 8h-6.7c2.3-5.3 4.1-10.9 5.2-16.7 3.4-.7 6.6-2.1 9.5-3.8V280zm-8-26.2v-27.6c4.8 2.8 8 7.9 8 13.8s-3.2 11-8 13.8zm-160 0c-4.8-2.8-8-7.9-8-13.8s3.2-11 8-13.8v27.6zm0-53.8v9.1c-2.8.7-5.5 1.9-8 3.3V184c0-48.5 39.5-88 88-88s88 39.5 88 88v28.4c-2.5-1.4-5.2-2.6-8-3.3V200h-8c-23.7 0-45.9-9.2-62.6-25.9l-9.4-9.4-9.4 9.4c-16.7 16.7-39 25.9-62.6 25.9h-8zm16 56v-40.3c24-1.8 46.4-11.7 64-28.4 17.6 16.7 40 26.6 64 28.4V256c0 11.7-3.2 22.6-8.7 32h-55.3v16h42.2c-11.3 9.9-26 16-42.2 16-35.3 0-64-28.7-64-64zm88 76.3v.4l-24 24-24-24v-.4c7.6 2.4 15.6 3.7 24 3.7s16.4-1.3 24-3.7zM126 381.5c4.6-13.9 16.4-24.1 30.8-26.7l55.9-10.2 34.7 34.7 34.7-34.7 55.9 10.2c14.4 2.6 26.2 12.8 30.8 26.7l11.5 34.5H214.9l-31.2-31.2-34.6 31.3c-3 3-8.3 3-11.3 0l-17.5-17.5 5.7-17.1zM52.7 279.2l36.7 36.7-8.7 8.7L44 287.9l8.7-8.7zM193 468.3c-7.6 7.5-17.6 11.7-28.3 11.7s-20.7-4.2-28.3-11.7L28.3 360.2c-7.6-7.6-11.7-17.6-11.7-28.3s4.2-20.7 11.7-28.3l4.4-4.4 36.7 36.7-.3.3c-9.4 9.4-9.4 24.6 0 33.9l57.4 57.4c4.5 4.5 10.6 7 17 7s12.4-2.5 16.7-6.8l.6-.5 36.9 36.9-4.7 4.2zm16.4-15l-36.8-36.8 10.6-9.6 36.7 36.7-10.5 9.7zM471.4 0h-112c-13.2 0-24 10.8-24 24v64c0 13.2 10.8 24 24 24h21.4l-8.3 48.2 77.2-48.2h21.7c13.2 0 24-10.8 24-24V24c0-13.2-10.7-24-24-24zm8 88c0 4.4-3.6 8-8 8h-26.3l-50.8 31.8 5.4-31.8h-40.3c-4.4 0-8-3.6-8-8V24c0-4.4 3.6-8 8-8h112c4.4 0 8 3.6 8 8v64z"/><path d="M367.4 32h96v16h-96zm0 32h64v16h-64zm80 0h16v16h-16zm-200-40c-104.5 0-194.6 72.3-218 173.2l-15.2-25.3-13.7 8.2L28.7 227l46.9-28.1-8.2-13.7-21.7 13C68.3 105.9 151.3 40 247.4 40c21 0 41.8 3.1 61.6 9.3l4.7-15.3c-21.3-6.6-43.6-10-66.3-10zm244.1 153.1L444.7 149l-28.1 46.9 13.7 8.2 14-23.3c7.4 21.6 11.1 44.1 11.1 67.2 0 47.6-16.5 94.1-46.4 131l12.4 10.1c32.2-39.7 50-89.8 50-141 0-24.5-3.9-48.4-11.6-71.2l23.5 14.1 8.2-13.9z"/></symbol><symbol viewBox="0 0 421.5 512" id="discount" xmlns="http://www.w3.org/2000/svg"><path d="M317 473.5c-5 14.8-15.5 26.2-28.5 32.6-12.5 6.2-27.2 7.8-41.4 3.4L38.5 439.2c-14.8-5-26.2-15.5-32.6-28.5-6.4-13-7.9-28.4-2.9-43.2l82.4-244c4.1-12 11.8-22.1 22.4-29.1l99.1-82.5C213.3 6.3 224 2.1 232.3.7c9.1-1.5 18.5-.8 27.3 2.2l74.5 25c9.9 3.4 18.3 9.2 24.7 16.6 6.5 7.5 10.9 16.7 12.8 26.5l28.8 125.7c1.5 5.4 2.1 11 1.9 16.4-.2 5.7-1.2 11.2-2.9 16.4l-13.1 38.9c8.5 2.9 17.7 5.5 27.5 7.6 5.4 1.2 8.8 6.5 7.6 11.9-1.2 5.4-6.5 8.8-11.9 7.6-10.6-2.4-20.4-5.1-29.6-8.2L317 473.5zM152.4 349.7c0-4.6-2.5-8-6.8-9.5l-52.1-17.5c-5.2-1.8-10.9 1.1-12.7 6.3-1.8 5.2 1.1 10.9 6.3 12.7l51.8 17.4c1.1.4 2.2.6 3.4.6 5.6 0 10.1-5.1 10.1-10zm67.6 15.5c-6.2-1.8-12.8 3.2-12.8 9.6 0 4.5 2.3 7.7 6.4 9.3.2.1.4.2.7.2l51.4 17.3c5.2 1.8 10.9-1.1 12.7-6.3s-1.1-10.9-6.3-12.7L220 365.2zm-40.4-12.8c-5.5 0-10 4.5-10 10s4.5 10 10 10 10-4.5 10-10-4.5-10-10-10zm70.2-227.7c.1-5.5 4.7-9.9 10.2-9.8 5.5.1 9.9 4.7 9.8 10.2 0 .1-.4 12.5 4 30.4.3-.1.6-.3.9-.4 7.7-3.8 14-10.6 16.9-19.3 3-8.8 2.1-18-1.7-25.7-3.8-7.7-10.6-14-19.3-16.9-8.8-3-18-2.1-25.7 1.7-7.7 3.8-14 10.6-16.9 19.3-3 8.8-2.1 18 1.7 25.7 3.8 7.7 10.6 14 19.3 16.9 1.6.6 3.3 1 5 1.3-4.7-19.7-4.2-33.2-4.2-33.4zm30.2 50c11.5 28.8 35.8 63.9 87.4 86.5l12.8-38.1c1.1-3.4 1.8-6.9 1.9-10.5.1-3.5-.3-7.1-1.3-10.7L351.9 75.5c-1.2-6.7-3.9-12.7-8.4-17.8-4.1-4.8-9.5-8.5-15.9-10.7l-74.5-25c-5.7-1.9-11.8-2.4-17.7-1.4-1.5.2-12.7 4.5-16.1 7L119.1 111c-6.9 4.5-12.1 11.2-14.7 18.9L22 373.9c-3.2 9.6-2.3 19.6 1.9 27.9 4.1 8.4 11.5 15.2 21 18.4L251.6 490c9.6 3.2 19.6 2.3 27.9-1.9 8.4-4.1 15.2-11.5 18.4-21l63-186.9c-60.7-26-88.3-67.8-100.8-101.6-20.4.1-39.3-11.4-48.5-29.9-13.1-26.6-2.3-58.8 24.3-71.9 26.6-13.1 58.8-2.3 71.9 24.3 6.1 12.3 7.5 26.9 2.8 40.9-4.7 14.1-14.7 24.9-27 31-1.2.6-2.4 1.2-3.6 1.7zm-156.2 58.6l178.5 60.1c5.2 1.8 10.9-1.1 12.7-6.3s-1.1-10.9-6.3-12.7l-178.5-60.1c-5.2-1.8-10.9 1.1-12.7 6.3s1 10.9 6.3 12.7zm-18.3 54.1L284 347.5c5.2 1.8 10.9-1.1 12.7-6.3s-1.1-10.9-6.3-12.7l-178.5-60.1c-5.2-1.8-10.9 1.1-12.7 6.3s1 11 6.3 12.7z"/></symbol><symbol viewBox="0 0 417.3 470" id="file" xmlns="http://www.w3.org/2000/svg"><path d="M334.5 384.3c1.7-1.4 2.8-3.5 2.8-5.8v-341c0-4.1-3.4-7.5-7.5-7.5h-217C107.4 12.6 91.2 0 72.1 0 53.4 0 36.9 12.5 31.5 30h-24C3.4 30 0 33.4 0 37.5v425c0 4.1 3.4 7.5 7.5 7.5h238.2c2.4 0 4.5-1.1 5.9-2.8l82.9-82.9zm-81.2 60V386h58.3l-58.3 58.3zM72.1 15c10.7 0 19.9 6.1 24.5 15h-49c4.7-8.9 14-15 24.5-15zM15 45h84.6v52.5c0 6.9-5.6 12.5-12.5 12.5s-12.5-5.6-12.5-12.5v-30c0-4.1-3.4-7.5-7.5-7.5s-7.5 3.4-7.5 7.5v30c0 15.2 12.3 27.5 27.5 27.5s27.5-12.3 27.5-27.5V45h207.6v326h-76.5c-4.1 0-7.5 3.4-7.5 7.5V455H15V45z"/><path d="M269.8 345.5c4.1 0 7.5-3.4 7.5-7.5s-3.4-7.5-7.5-7.5H67.5c-4.1 0-7.5 3.4-7.5 7.5s3.4 7.5 7.5 7.5h202.3zm-202.3-45h202.3c4.1 0 7.5-3.4 7.5-7.5s-3.4-7.5-7.5-7.5H67.5c-4.1 0-7.5 3.4-7.5 7.5s3.4 7.5 7.5 7.5zm0-45h202.3c4.1 0 7.5-3.4 7.5-7.5s-3.4-7.5-7.5-7.5H67.5c-4.1 0-7.5 3.4-7.5 7.5s3.4 7.5 7.5 7.5zm0-45h202.3c4.1 0 7.5-3.4 7.5-7.5s-3.4-7.5-7.5-7.5H67.5c-4.1 0-7.5 3.4-7.5 7.5s3.4 7.5 7.5 7.5zm0-45h202.3c4.1 0 7.5-3.4 7.5-7.5s-3.4-7.5-7.5-7.5H67.5c-4.1 0-7.5 3.4-7.5 7.5s3.4 7.5 7.5 7.5zM369.8 30h-10c-4.1 0-7.5 3.4-7.5 7.5s3.4 7.5 7.5 7.5h2.5v410h-80.1c-4.1 0-7.5 3.4-7.5 7.5s3.4 7.5 7.5 7.5h87.6c4.1 0 7.5-3.4 7.5-7.5v-425c0-4.1-3.4-7.5-7.5-7.5zm40 0h-10c-4.1 0-7.5 3.4-7.5 7.5s3.4 7.5 7.5 7.5h2.5v410h-2.5c-4.1 0-7.5 3.4-7.5 7.5s3.4 7.5 7.5 7.5h10c4.1 0 7.5-3.4 7.5-7.5v-425c0-4.1-3.4-7.5-7.5-7.5z"/></symbol><symbol viewBox="0 0 512 512" id="handshake" xmlns="http://www.w3.org/2000/svg"><path d="M512 174.4c0-7.8-2.3-15.7-7.4-22.2L464 100.3c-6.8-8.6-17.1-13-27.5-13-6.1 0-12.4 1.6-17.9 5L379 116.9c-4.2 2.7-11.3 4.5-18.2 4.4-5.4 0-10.5-1-13.9-2.7l-38.7-18.8c-6.2-3-13.2-4.2-20.2-4.3-10.1 0-20.2 2.5-28.4 8.2l-4.5 3.2c-3.6-1.8-9.1-4.6-15.4-7.7-7.5-3.7-16.3-5.2-25.2-5.2-8 0-16.1 1.3-23.2 4.2l-26.4 11.3c-4.3 1.9-11.1 3.1-17.9 3-6.8 0-13.6-1.2-17.9-3l-26.4-11.3c-4.8-2.1-10-2.9-15.1-2.9-5.9 0-11.7 1.2-17.1 3.4-5.4 2.2-10.5 5.5-14.5 10L8 162.6c-5.3 6-8 13.4-8 20.8 0 8.8 3.8 17.6 11 23.8l44.8 38.3-21.3 22.2c-5.9 6.1-8.8 14.1-8.8 21.9 0 8.3 3.3 16.8 9.9 23l4.3 4.1c4.1 3.9 9 6.3 14.1 7.6-2.6 4.7-4 9.9-4 15.1 0 8.4 3.3 16.8 9.9 23l4.3 4.1c6.2 5.8 14.2 8.8 22 8.7 4.2 0 8.5-.8 12.4-2.5 1.4 5.7 4.3 11.1 8.8 15.4l4.3 4.1c6.2 5.8 14.1 8.8 22 8.7 6.2 0 12.4-1.8 17.7-5.3 1.6 5 4.2 9.8 8.3 13.6l4.3 4.1c6.1 5.8 14.1 8.8 22 8.7 8.4 0 16.8-3.3 23.1-9.8l18.8-19.6 25.5 23.6c6.1 5.7 14 8.5 21.7 8.5 8.5 0 17.1-3.4 23.4-10.1l4.1-4.4c3.5-3.8 5.8-8.3 7.2-12.9l9.9 9.1c6.1 5.6 14 8.5 21.7 8.5 8.5 0 17.1-3.4 23.4-10.1l4.1-4.4c4.7-5 7.3-11.2 8.1-17.5 2.6.7 5.3 1.1 7.9 1.1 8.5 0 17.1-3.4 23.4-10.1l4.1-4.4c5.7-6.1 8.5-13.9 8.5-21.6 0-2.4-.3-4.8-.9-7.1 7.1-.9 13.9-4.1 19.1-9.7l4.1-4.4c5.7-6.1 8.5-13.9 8.5-21.6 0-8.5-3.4-17-10.2-23.3l-7.6-7 68.8-76.1c6.4-6.8 9.3-15.6 9.3-24.3zM62 308.1c-3.6 0-7.2-1.3-10-4l-4.3-4.1c-3-2.8-4.5-6.6-4.5-10.5 0-3.6 1.3-7.2 4-9.9l43.6-45.5c2.8-3 6.6-4.4 10.5-4.4 3.6 0 7.2 1.3 10 4l4.3 4.1s4.5 6.6 4.5 10.5c0 2.9-.9 5.7-2.6 8.2-.1.1-47 49-47 49-2.5 1.6-5.5 2.6-8.5 2.6zm34.8 45.3c-2.8 3-6.6 4.4-10.5 4.4-3.6 0-7.2-1.3-10-4l-4.3-4.1c-3-2.8-4.5-6.6-4.5-10.5 0-3.6 1.3-7.2 4-9.9 0 0 58.1-60.5 58.6-61 2.8-2.7 6.4-4 10-4.1 3.6 0 7.2 1.3 10 4l4.3 4.1c3 2.8 4.5 6.6 4.5 10.5 0 3.6-1.3 7.2-4 10l-58.1 60.6zm47.6 25.7c-2.8 3-6.6 4.4-10.5 4.4-3.6 0-7.2-1.3-10-4l-4.3-4.1c-3-2.8-4.5-6.6-4.5-10.5 0-3.2 1.1-6.4 3.2-9l40.5-42.2c2.7-2.5 6.1-3.8 9.7-3.8 3.6 0 7.2 1.3 10 4l4.3 4.1c3 2.8 4.5 6.6 4.5 10.4 0 3.6-1.3 7.2-4 10l-38.9 40.7zm76.9-4.4l-24.5 25.6c-2.8 3-6.6 4.4-10.5 4.4-3.6 0-7.2-1.3-10-4l-4.3-4.1c-3-2.8-4.5-6.6-4.5-10.5 0-3.6 1.3-7.2 4-9.9l24.5-25.6c2.8-3 6.6-4.4 10.5-4.4 3.6 0 7.2 1.3 10 4l4.3 4.1c3 2.8 4.4 6.6 4.5 10.4 0 3.7-1.4 7.2-4 10zm213.2-69.5c0 3.6-1.3 7-3.9 9.8l-4.1 4.4c-2.8 3-6.7 4.6-10.6 4.6-3.6 0-7.1-1.3-9.9-3.8l-68.5-63.4-11.9 12.7 73.4 68c3.1 2.8 4.6 6.7 4.6 10.6 0 3.6-1.3 7.1-3.9 9.8l-4.1 4.4c-2.8 3-6.7 4.6-10.6 4.6-3.6 0-7.1-1.3-9.9-3.8l-68.6-63.4-11.8 12.7 60.8 56.3c2.9 2.8 4.4 6.6 4.4 10.4 0 3.6-1.3 7-3.8 9.8l-4.1 4.4c-2.8 3-6.7 4.6-10.6 4.6-3.6 0-7.1-1.3-9.9-3.8L271 337.7l-11.8 12.7.2.2 30.4 28.1c2.7 2.8 4.1 6.3 4.1 10 0 3.5-1.3 7-3.8 9.8l-4.1 4.4c-2.8 3-6.7 4.6-10.6 4.6-3.6 0-7.1-1.3-9.9-3.8L239 379.2c2.3-4.5 3.6-9.4 3.6-14.3 0-8.3-3.3-16.8-9.9-23l-4.3-4.1c-6.1-5.8-14.1-8.8-22-8.7-.6 0-1.2.1-1.8.2v-.4c0-8.3-9.9-23-9.9-23l-4.3-4.1c-4.6-4.4-10.2-7.1-16.1-8.2 1.2-3.4 1.9-7 1.9-10.5 0-8.3-3.3-16.8-9.9-23L162 256c-6.2-5.8-14.1-8.8-22-8.8-.9 0-1.8.2-2.7.3-.3-8-3.5-16-9.8-22l-4.3-4.1c-6.2-5.8-14.1-8.8-22-8.8-8.4 0-16.8 3.3-23.1 9.8l-10.3 10.7-45.6-38.9c-3.3-2.8-4.9-6.7-4.9-10.7 0-3.3 1.1-6.6 3.6-9.3L69 120.4c1.9-2.1 4.7-4.1 8-5.4 3.3-1.3 7.1-2.1 10.6-2.1 3.1 0 5.9.6 8.2 1.5l26.4 11.3c7.4 3.1 16.1 4.4 24.8 4.5 8.7 0 17.3-1.3 24.8-4.4l26.4-11.3c4.1-1.8 10.2-2.9 16.3-2.9 6.7 0 13.5 1.4 17.4 3.4 2.5 1.2 4.9 2.4 7 3.5L212 137.4c-8.6 6.1-13.3 15.7-13.3 25.5 0 6.5 2 13 6.2 18.6l3.6 4.8c6.7 9 17.3 13.6 27.8 13.6 5.9 0 12-1.5 17.4-4.7l16.1-9.7c3.3-2 8.2-3.3 13.4-3.3 6 0 12.1 1.7 15.7 4.4l44.5 31.9c9.9 7.1 26 20.3 35 28.5l51.5 47.6c3.1 2.8 4.6 6.7 4.6 10.6zM490 187.1L421.4 263l-31.2-28.8c-9.8-9-25.9-22.2-36.7-29.9L309 172.4c-7.5-5.3-16.8-7.7-25.9-7.7-7.8 0-15.6 1.7-22.4 5.7l-16.1 9.7c-2.5 1.5-5.4 2.2-8.4 2.2-5.4 0-10.8-2.5-13.8-6.6l-3.5-4.8c-1.9-2.5-2.8-5.4-2.8-8.3 0-4.4 2-8.6 5.9-11.4l47.6-33.4c4.1-3 11.4-5.1 18.4-5 4.8 0 9.4.9 12.6 2.5l38.7 18.8c6.6 3.2 14.1 4.5 21.6 4.5 9.6 0 19.4-2.1 27.4-7.1l39.6-24.6c2.5-1.6 5.6-2.4 8.7-2.4 5.3 0 10.7 2.4 13.7 6.4l40.6 51.9c2.3 3 3.7 7.2 3.7 11.5 0 4.9-1.7 9.7-4.6 12.8z"/></symbol><symbol viewBox="0 0 512 512" id="insurance" xmlns="http://www.w3.org/2000/svg"><path d="M51.2 93.9h51.2c4.7 0 8.5-3.8 8.5-8.5s-3.8-8.5-8.5-8.5H51.2c-4.7 0-8.5 3.8-8.5 8.5s3.8 8.5 8.5 8.5zm93.9 0h76.8c4.7 0 8.5-3.8 8.5-8.5s-3.8-8.5-8.5-8.5h-76.8c-4.7 0-8.5 3.8-8.5 8.5s3.8 8.5 8.5 8.5zm-93.9 93.8h273.1c4.7 0 8.5-3.8 8.5-8.5s-3.8-8.5-8.5-8.5H51.2c-4.7 0-8.5 3.8-8.5 8.5s3.8 8.5 8.5 8.5zm0 34.2h119.5c4.7 0 8.5-3.8 8.5-8.5s-3.8-8.5-8.5-8.5H51.2c-4.7 0-8.5 3.8-8.5 8.5s3.8 8.5 8.5 8.5zm0 68.2h119.5c4.7 0 8.5-3.8 8.5-8.5s-3.8-8.5-8.5-8.5H51.2c-4.7 0-8.5 3.8-8.5 8.5s3.8 8.5 8.5 8.5zm0 68.3h119.5c4.7 0 8.5-3.8 8.5-8.5s-3.8-8.5-8.5-8.5H51.2c-4.7 0-8.5 3.8-8.5 8.5s3.8 8.5 8.5 8.5zm0 68.3h119.5c4.7 0 8.5-3.8 8.5-8.5s-3.8-8.5-8.5-8.5H51.2c-4.7 0-8.5 3.8-8.5 8.5s3.8 8.5 8.5 8.5z"/><path d="M506.9 248.6l-97.3-42v-181C409.6 11.5 398.1 0 384 0H59.7C45.6 0 34.1 11.5 34.1 25.6v8.5h-8.5C11.5 34.1 0 45.6 0 59.7v426.7C0 500.5 11.5 512 25.6 512h324.3c6.9 0 13.5-2.8 18.3-7.8l7 5c5.3 3.8 12.4 3.8 17.7 0l82.6-58.8c22.9-16.2 36.5-42.5 36.6-70.6V256.4c-.1-3.4-2.1-6.5-5.2-7.8zM51.2 25.6c0-4.7 3.8-8.5 8.5-8.5H384c4.7 0 8.5 3.8 8.5 8.5v173.6l-5.1-2.2a8.9 8.9 0 0 0-6.8 0l-5.1 2.2v-54.1c0-.2-.1-.4-.1-.6 0-.7-.2-1.4-.4-2.1-.1-.2-.1-.4-.1-.6-.1-.2-.1-.2-.2-.3-.4-.9-1-1.8-1.7-2.5L270.6 36.6c-.7-.7-1.6-1.3-2.5-1.7-.1-.1-.2-.1-.3-.2-.1 0-.4-.1-.6-.1-.7-.2-1.4-.4-2.1-.4-.2 0-.4-.1-.6-.1H51.2v-8.5zm221.9 37.7l73.3 73.3h-64.7c-4.7 0-8.5-3.8-8.5-8.5V63.3zm76.8 431.6H25.6c-4.7 0-8.5-3.8-8.5-8.5V59.7c0-4.7 3.8-8.5 8.5-8.5H256V128c0 14.1 11.5 25.6 25.6 25.6h76.8v53l-27.5 11.9c1.2-1.4 1.8-3.3 1.9-5.1 0-4.7-3.8-8.5-8.5-8.5H204.8c-4.7 0-8.5 3.8-8.5 8.5s3.8 8.5 8.5 8.5H323L283.5 239H51.2c-4.7 0-8.5 3.8-8.5 8.5s3.8 8.5 8.5 8.5h204.9c0 .1-.1.3-.1.4v16.7h-51.2c-4.7 0-8.5 3.8-8.5 8.5s3.8 8.5 8.5 8.5H256v17.1H51.2c-4.7 0-8.5 3.8-8.5 8.5s3.8 8.5 8.5 8.5H256v17.1h-51.2c-4.7 0-8.5 3.8-8.5 8.5s3.8 8.5 8.5 8.5H256v17.1H51.2c-4.7 0-8.5 3.8-8.5 8.5s3.8 8.5 8.5 8.5h205.9c.8 5.8 2.3 11.5 4.3 17.1h-56.6c-4.7 0-8.5 3.8-8.5 8.5s3.8 8.5 8.5 8.5H270c4 6.3 8.9 12 14.3 17.1H51.2c-4.7 0-8.5 3.8-8.5 8.5s3.8 8.5 8.5 8.5h256l46.5 33.1c-1.2.8-2.5 1.2-3.8 1.2zm145-115.1c-.1 22.5-11 43.7-29.4 56.7l-81.5 58-81.5-58c-18.4-13-29.3-34.1-29.4-56.7V262.1l15.4-6.7.2-.1 95.3-41.2L494.9 262v117.8z"/><path d="M380.6 234.1L295.3 271c-3.1 1.4-5.1 4.4-5.1 7.8v101c.1 17 8.4 33 22.3 42.8l66.7 47.5c3 2.1 6.9 2.1 9.9 0l66.7-47.5c13.9-9.8 22.2-25.8 22.3-42.8v-101c0-3.4-2-6.5-5.1-7.8l-85.3-36.9c-2.5-.9-4.9-.9-7.1 0zm80.2 50.4v95.3c-.1 11.5-5.7 22.3-15.1 28.9L384 452.6l-61.7-43.9c-9.4-6.6-15-17.4-15.1-28.9v-95.4l76.8-33.2 76.8 33.3z"/><path d="M337.9 360.1c-2.4-1.8-5.7-2.2-8.5-1-2.8 1.2-4.8 3.8-5.1 6.8-.4 3 .9 6 3.4 7.8l34.1 25.6c3.7 2.8 8.9 2.1 11.8-1.5l68.3-85.3c2.9-3.7 2.3-9.1-1.3-12s-9.1-2.3-12 1.3l-63.1 78.9-27.6-20.6z"/></symbol><symbol viewBox="0 0 512 512" id="paper" xmlns="http://www.w3.org/2000/svg"><path d="M504 92.7L419.3 8H200v99.1l-56.1-54.3L8 188.7v118.7l208.1 199.8L331.3 392H504V92.7zm-80-57.4L476.7 88H424V35.3zM60.7 248L24 284.7v-73.4L60.7 248zm155.2 236.8L27.4 303.9 83.3 248l-56-56L144.1 75.2l244.5 236.9-172.7 172.7zM328 231.1l-16-15.5V184h16v47.1zm64 62l-16-15.5V168h16v125.1zM379.3 344l12.7-12.7V344h-12.7zm-32 32l16-16H472V120h-48v224h-16v-28.7l3.4-3.4-3.4-3.3V152h-48v110.1l-16-15.5V168h-48v32.1l-80-77.5V24h192v80h80v272H347.3zm92.7-32V136h16v208h-16z"/><path d="M216 368c-.3 0-.6.1-1 .1l-15.7-35.4-14.6 6.5 14.5 32.6C185.5 378.2 176 392 176 408c0 22.1 17.9 40 40 40s40-17.9 40-40-17.9-40-40-40zm0 64c-13.2 0-24-10.8-24-24 0-9.5 5.6-17.7 13.7-21.6l7.9 17.8-9.2 4.6 7.2 14.3 22.8-11.4-11.9-26.7c10 2.9 17.5 12 17.5 23 0 13.2-10.8 24-24 24zm-96-152c-.3 0-.6.1-1 .1l-15.7-35.4-14.6 6.5 14.5 32.6C89.5 290.2 80 304 80 320c0 22.1 17.9 40 40 40s40-17.9 40-40-17.9-40-40-40zm0 64c-13.2 0-24-10.8-24-24 0-9.5 5.6-17.7 13.7-21.6l7.9 17.8-9.2 4.6 7.2 14.3 22.8-11.4-11.9-26.7c10 2.9 17.5 12 17.5 23 0 13.2-10.8 24-24 24zM74.3 218.3l96-96 11.3 11.3-96 96-11.3-11.3zm-24-24l96-96 11.3 11.3-96 96-11.3-11.3zm128 96l80-80 11.3 11.3-80 80-11.3-11.3zm-24-24l80-80 11.3 11.3-80 80-11.3-11.3zm-24-24l80-80 11.3 11.3-80 80-11.3-11.3zm144 136l80-80 11.3 11.3-80 80-11.3-11.3zm-24-24l80-80 11.3 11.3-80 80-11.3-11.3zm-24-24l80-80 11.3 11.3-80 80-11.3-11.3zM232 40h16v16h-16V40zm32 0h128v16H264V40zm-32 32h160v16H232V72zm0 32h160v16H232v-16z"/></symbol><symbol viewBox="0 0 512 512" id="plants" xmlns="http://www.w3.org/2000/svg"><path d="M488 488h16v16h-16v-16zM8 488h16v16H8v-16zm421.5-64H352v-16h24c22.1 0 40-17.9 40-40v-8h-40c-9 0-17.3 3.1-24 8.2V296c0-11.3-2.2-22.1-6.1-32H408c48.5 0 88-39.5 88-88v-8h-72c-45.2 0-82.6 34.3-87.4 78.3-15.9-23.1-42.5-38.3-72.6-38.3h-72v8c0 48.5 39.5 88 88 88h56v32.9c-10.2-10.4-24.3-16.9-40-16.9h-40v8c0 30.9 25.1 56 56 56h24v40h-77.5L240 473.2 221.5 424H160v-16h24c22.1 0 40-17.9 40-40v-8h-40c-9 0-17.3 3.1-24 8.2v-.2c0-30.9-25.1-56-56-56H64v8c0 30.9 25.1 56 56 56h24v48H82.5l-24 64H40v16h432v-16h-18.5l-24-64zM376 376h22.6c-3.3 9.3-12.2 16-22.6 16h-22.6c3.3-9.3 12.2-16 22.6-16zm48-192h55.6c-4 36-34.6 64-71.6 64h-55.6c4-36 34.6-64 71.6-64zM280 288c-37 0-67.6-28-71.6-64H264c37 0 67.6 28 71.6 64H280zm32 80c-19.3 0-35.5-13.8-39.2-32H296c19.3 0 35.5 13.8 39.2 32H312zm-128 8h22.6c-3.3 9.3-12.2 16-22.6 16h-22.6c3.3-9.3 12.2-16 22.6-16zm-64-16c-19.3 0-35.5-13.8-39.2-32H104c19.3 0 35.5 13.8 39.2 32H120zM75.5 488l18-48h116.9l18 48H75.5zm176 0l18-48h148.9l18 48H251.5z"/><path d="M104 456h16v16h-16v-16zm64 8h16v16h-16v-16zm112-16h16v16h-16v-16zm48 16h16v16h-16v-16zm56-16h16v16h-16v-16zM480 8H304c-13.2 0-24 10.8-24 24v64c0 13.2 10.8 24 24 24h70.3l81.7 36.3V120h24c13.2 0 24-10.8 24-24V32c0-13.2-10.8-24-24-24zm8 88c0 4.4-3.6 8-8 8h-40v27.7L377.7 104H304c-4.4 0-8-3.6-8-8V32c0-4.4 3.6-8 8-8h176c4.4 0 8 3.6 8 8v64z"/><path d="M312 40h16v16h-16V40zm32 0h128v16H344V40zm0 32h128v16H344V72zm-32 0h16v16h-16V72zM120 176c30.9 0 56-25.1 56-56s-25.1-56-56-56-56 25.1-56 56 25.1 56 56 56zm0-96c22.1 0 40 17.9 40 40s-17.9 40-40 40-40-17.9-40-40 17.9-40 40-40z"/><path d="M37.6 202.4l9.7-.9c12.1-1.2 24.8.8 36.6 5.7 11.9 4.9 22.2 12.5 29.9 21.9l6.2 7.5 6.2-7.5c7.7-9.4 18.1-17 29.9-21.9 11.9-4.9 24.5-6.9 36.6-5.7l9.7.9-.9-9.7c-1.2-12.1.8-24.8 5.7-36.6 4.9-11.9 12.5-22.2 21.9-30l7.5-6.2-7.5-6.2c-9.4-7.7-17-18.1-21.9-30-4.9-11.8-6.9-24.5-5.7-36.6l.9-9.7-9.7.9c-12.1 1.2-24.8-.8-36.6-5.7-11.9-4.9-22.2-12.5-29.9-21.9L120 3.4l-6.2 7.5c-7.7 9.4-18.1 17-29.9 21.9-11.8 4.9-24.5 6.9-36.6 5.7l-9.7-.9.9 9.7c1.2 12.1-.8 24.8-5.7 36.6-4.9 11.9-12.5 22.2-21.9 30L3.4 120l7.5 6.2c9.4 7.7 17 18.1 21.9 30 4.9 11.8 6.9 24.5 5.7 36.6l-.9 9.6zM27.8 120c8.3-8.4 15-18.7 19.7-30s7.2-23.3 7.3-35.2c11.8-.1 23.8-2.6 35.2-7.3s21.6-11.4 30-19.7c8.4 8.3 18.7 15 30 19.7s23.3 7.2 35.2 7.3c.1 11.8 2.6 23.8 7.3 35.2s11.4 21.6 19.7 30c-8.3 8.4-15 18.7-19.7 30s-7.2 23.3-7.3 35.2c-11.8.1-23.8 2.6-35.2 7.3s-21.6 11.4-30 19.7c-8.4-8.3-18.7-15-30-19.7s-23.3-7.2-35.2-7.3c-.1-11.8-2.6-23.8-7.3-35.2-4.6-11.3-11.4-21.6-19.7-30z"/></symbol><symbol viewBox="0 0 147.6 163.9" id="play" xmlns="http://www.w3.org/2000/svg"><path d="M26.7 3.6C12-4.9 0 2.1 0 19.1v125.6c0 17 12 24 26.8 15.5l109.8-63c14.8-8.5 14.8-22.2 0-30.7L26.7 3.6z"/></symbol><symbol viewBox="0 0 432 432" id="report" xmlns="http://www.w3.org/2000/svg"><path d="M300.3 194.2c-11.9 0-21.5 9.6-21.5 21.5v.2l-20.7 19c-7.3-6.3-17.9-7.1-26-1.7s-11.6 15.4-8.6 24.6l-18.9 16c-3.9-5-9.7-8-16-8.2-6.3-.3-12.4 2.3-16.6 6.9L152.6 259c2-10.6-4.1-21-14.3-24.4-10.2-3.4-21.3 1.1-26.2 10.7-4.9 9.6-1.9 21.3 6.9 27.4 8.8 6.2 20.8 4.9 28.1-2.9l19.4 13.5c-1.4 8 1.8 16.1 8.3 21 6.5 4.9 15.2 5.6 22.5 2 7.3-3.7 11.9-11.1 11.9-19.2 0-.5 0-1-.1-1.4l21.1-17.8c7.3 6.1 17.6 6.6 25.5 1.5s11.5-14.9 8.9-24l18.3-16.7c6 8.2 16.9 11.1 26.2 7s14.4-14.2 12.3-24.1c-2.2-10.3-11-17.4-21.1-17.4zm-169 70.3c-5.3 0-9.5-4.3-9.5-9.5 0-5.3 4.3-9.5 9.5-9.5 5.3 0 9.5 4.3 9.5 9.5.1 5.2-4.2 9.5-9.5 9.5zm56.3 32c-5.3 0-9.5-4.3-9.5-9.5s4.3-9.5 9.5-9.5c5.3 0 9.5 4.3 9.5 9.5.1 5.2-4.2 9.5-9.5 9.5zm56.4-35.9c-5.3 0-9.5-4.3-9.5-9.5 0-5.3 4.3-9.5 9.5-9.5 5.3 0 9.5 4.3 9.5 9.5 0 5.3-4.3 9.5-9.5 9.5zm56.3-35.3c-5.3 0-9.5-4.3-9.5-9.5 0-5.3 4.3-9.5 9.5-9.5 5.3 0 9.5 4.3 9.5 9.5s-4.3 9.5-9.5 9.5z"/><path d="M314 251.4h-27.5c-3.3 0-6 2.7-6 6v116.4c0 3.3 2.7 6 6 6H314c3.3 0 6-2.7 6-6V257.4c0-3.3-2.7-6-6-6zm-6 116.4h-15.5V263.4H308v104.4zm-50.3-81.2h-27.5c-3.3 0-6 2.7-6 6v81.2c0 3.3 2.7 6 6 6h27.5c3.3 0 6-2.7 6-6v-81.2c0-3.3-2.7-6-6-6zm-6 81.2h-15.5v-69.2h15.5v69.2zm-50.3-45h-27.5c-3.3 0-6 2.7-6 6v45c0 3.3 2.7 6 6 6h27.5c3.3 0 6-2.7 6-6v-45c0-3.3-2.7-6-6-6zm-6 45h-15.5v-33h15.5v33zm-50.3-76.9h-27.5c-3.3 0-6 2.7-6 6v76.9c0 3.3 2.7 6 6 6h27.5c3.3 0 6-2.7 6-6v-76.9c0-3.3-2.7-6-6-6zm-6 76.9h-15.5v-64.9h15.5v64.9z"/><path d="M318.7 0h-195c-3.3 0-6 2.7-6 6v13.8H70.5C55.3 19.8 43 32.1 43 47.3v357.1c0 15.2 12.3 27.5 27.5 27.5H361c15.2 0 27.5-12.3 27.5-27.5V47.3c0-15.2-12.3-27.5-27.5-27.5h-36.4V6c.1-3.3-2.6-6-5.9-6zm-189 12h182.9v25H129.7V12zm231.4 19.8c8.6 0 15.5 7 15.5 15.5v357.1c0 8.6-7 15.5-15.5 15.5H70.5C62 420 55 413 55 404.5V47.3c0-8.6 7-15.5 15.5-15.5h47.2V43c0 3.3 2.7 6 6 6h194.9c3.3 0 6-2.7 6-6V31.8h36.5z"/><path d="M102.2 169.1h98.1c3.3 0 6-2.7 6-6v-53.8c0-3.3-2.7-6-6-6h-98.1c-3.3 0-6 2.7-6 6v53.8c0 3.3 2.7 6 6 6zm6-53.8h86.1v41.8h-86.1v-41.8zm221.2 41.8h-4.2c-3.3 0-6 2.7-6 6s2.7 6 6 6h4.2c3.3 0 6-2.7 6-6s-2.7-6-6-6zm-77.7 12h45.8c3.3 0 6-2.7 6-6s-2.7-6-6-6h-45.8c-3.3 0-6 2.7-6 6s2.6 6 6 6zm25.6-59.8c0 3.3 2.7 6 6 6h46.1c3.3 0 6-2.7 6-6s-2.7-6-6-6h-46.1c-3.3 0-6 2.7-6 6zm-25.6 6h3.8c3.3 0 6-2.7 6-6s-2.7-6-6-6h-3.8c-3.3 0-6 2.7-6 6s2.6 6 6 6zm-98.1 97.8c0 3.3 2.7 6 6 6h70.7c3.3 0 6-2.7 6-6s-2.7-6-6-6h-70.7c-3.3 0-6 2.7-6 6zm-23.8-6c-3.3 0-6 2.7-6 6s2.7 6 6 6h7.9c3.3 0 6-2.7 6-6s-2.7-6-6-6h-7.9zm-15.6 6c0-3.3-2.7-6-6-6h-6c-3.3 0-6 2.7-6 6s2.7 6 6 6h6c3.3 0 6-2.7 6-6z"/></symbol><symbol viewBox="0 0 200 330" id="ruble" xmlns="http://www.w3.org/2000/svg"><path d="M115 170c46.9 0 85-38.1 85-85S161.9 0 115 0H45c-8.3 0-15 6.7-15 15v185H15c-8.3 0-15 6.7-15 15s6.7 15 15 15h15v85c0 8.3 6.7 15 15 15s15-6.7 15-15v-85h55c8.3 0 15-6.7 15-15s-6.7-15-15-15H60v-30h55zm0-140h.5c30.1.3 54.5 24.8 54.5 55 0 30.3-24.7 55-55 55H60V30h55z"/></symbol><symbol viewBox="0 0 496 496" id="training" xmlns="http://www.w3.org/2000/svg"><path d="M120 32h80v16h-80V32zm24 64h-16v88h-16v-64H96v64H80v-40H64v40H48v16h112v-16h-16V96zM48 216h16v16H48v-16zm32 0h80v16H80v-16z"/><path d="M472 328c13.2 0 24-10.8 24-24V180.8c0-15.8-11.8-29.4-27.5-31.7L440 145v-13.4c9.8-8.8 16-21.5 16-35.7V80c0-26.5-21.5-48-48-48s-48 21.5-48 48v16c0 14.2 6.2 26.9 16 35.7v13.4l-44.8 6.4-27.6-31.5h.4V80h16V32h-84.7l-32-32h-86.6l-32 32H0v48h16v192H0v48h80v22.5L26.5 480H0v16h496v-16h-32V326.5c2.5.9 5.2 1.5 8 1.5zm-56.4-98.9l-7.6 7.6-7.6-7.6 6.6-53.2c.3 0 .6.1.9.1s.6 0 .9-.1l6.8 53.2zM376 80c0-17.6 14.4-32 32-32s32 14.4 32 32v16c0 17.6-14.4 32-32 32s-32-14.4-32-32V80zm32 64c5.6 0 11-1 16-2.8v8.6c-2 3.1-7.5 10.2-16 10.2s-14-7.2-16-10.2v-8.6c5 1.8 10.4 2.8 16 2.8zm-27.9 16.6c2.4 3.3 6.2 7.5 11.5 10.7l-7.9 63.6 24.4 24.4 24.4-24.4-7.9-63.6c5.2-3.2 9-7.4 11.5-10.7l30.3 4.3c7.8 1.1 13.7 7.9 13.7 15.8V304c0 4.4-3.6 8-8 8s-8-3.6-8-8V192h-16v80h-80v-80h-48.3c-2.4 0-4.7-1.1-6.2-3L258 119.5c-1.2-1.5-1.9-3.4-1.9-5.3v-1.7c0-4.7 3.8-8.5 8.5-8.5 2.5 0 4.8 1.1 6.4 2.9l53.9 61.6 55.2-7.9zM136 352v128H75.7l49.8-128H136zm16 0h16v128h-16V352zm32 0h10.5l49.8 128H184V352zm27.7 0h14.8l49.8 128h-14.8l-49.8-128zm28.3-9.5V320h80v-48h-16v-70c4.3 3.8 9.8 6 15.7 6H352v272h-58.5L240 342.5zM368 288h32v192h-32V288zM16 48h75.3l32-32h73.4l32 32H304v16H16V48zm16 32h256v22.1l-5-5.8c-4.7-5.3-11.4-8.4-18.4-8.4C251 88 240 99 240 112.5v1.7c0 5.5 1.9 11 5.4 15.3l42.6 53.3V272H32V80zM16 288h288v16H16v-16zm208 32v16H96v-16h128zM93.5 352h14.8L58.5 480H43.7l49.8-128zM416 480V288h32v192h-32z"/><path d="M224 160c-26.5 0-48 21.5-48 48s21.5 48 48 48 48-21.5 48-48-21.5-48-48-48zm-8 17.1V200h-22.9c2.9-11.2 11.7-20 22.9-22.9zM193.1 216H216v22.9c-11.2-2.9-20-11.7-22.9-22.9zm38.9 22.9v-61.7c13.8 3.6 24 16 24 30.9s-10.2 27.2-24 30.8z"/></symbol><symbol viewBox="0 0 512 512" id="zoom" xmlns="http://www.w3.org/2000/svg"><path d="M495 466.2L377.2 348.4c29.2-35.6 46.8-81.2 46.8-130.9C424 103.5 331.5 11 217.5 11 103.4 11 11 103.5 11 217.5S103.4 424 217.5 424c49.7 0 95.2-17.5 130.8-46.7L466.1 495c8 8 20.9 8 28.9 0 8-7.9 8-20.9 0-28.8zm-277.5-83.3C126.2 382.9 52 308.7 52 217.5S126.2 52 217.5 52C308.7 52 383 126.3 383 217.5s-74.3 165.4-165.5 165.4z"/></symbol></svg>