<?xml version="1.0" encoding="UTF-8"?> <svg xmlns="http://www.w3.org/2000/svg" height="512" viewBox="0 0 496 496" width="512"><path d="M352.504 256c4.7538 0 9.3515 1.3906 13.3124 4.0313l55.8711 37.25c6.6016 4.3906 14.2734 6.7187 22.1914 6.7187H496v-16h-52.1133c-4.75 0-9.3594-1.3906-13.3203-4.0313L408 268.922V0H104v48H0v448h304v-48h104v-67.3047c.504-.121 1.0234-.1601 1.5273-.2812l37.2149-9.3008A104.1308 104.1308 0 0 1 472 368h24v-16h-24c-9.8086 0-19.6172 1.207-29.1367 3.586l-37.2149 9.3007c-19.1289 4.7774-39.4882 4-58.1757-2.2304l-13.4805-4.4961C321.7188 354.0703 308.9375 352 296 352h-69.8086c0-13.2305 10.7695-24 24-24h88c13.2344 0 24-10.7695 24-24 0-12.2734-9.2969-22.3047-21.1914-23.7187L347.5664 256zm-10.1056 121.832C354.672 381.9297 367.457 384 380.3906 384c3.8828 0 7.754-.336 11.6094-.711V432h-88v-26.168c2.8086-3.2382 4.9844-7.0703 6.1523-11.4062l6.5508-24.2656c4.1211.8398 8.207 1.8398 12.2188 3.1836zm-41.7265-9.6484l-5.961 22.0625c-1.5507 5.746-6.789 9.7539-12.7343 9.7539h-2.5938c-7.2695 0-13.1836-5.9102-13.1836-13.1836 0-1.168.1524-2.3203.457-3.4414L270.8087 368H296c1.5586 0 3.1133.121 4.6719.1836zM254.2305 368l-3.0235 11.1914c-.6718 2.4805-1.0078 5.039-1.0078 7.625 0 10.8164 5.9844 20.168 14.7461 25.207l-2.5117 10.0313 15.5195 3.8828L280.4414 416h1.5352c2.0625 0 4.0625-.289 6.0234-.7031V480H16V64h104V16h272v242.2578l-17.3047-11.539C368.0977 242.328 360.4258 240 352.504 240h-.6172l33.2969-123.1914c.6719-2.4805 1.0078-5.039 1.0078-7.625C386.1914 93.0898 373.0977 80 357.0078 80h-2.5937c-13.1563 0-24.7422 8.871-28.1758 21.5742L304 183.8632V48H136v16h152v176h-16.5508c-8.707 0-16.9062 2.8867-23.7617 8H168v16h62.879l-16 16H168v16h30.8867l-13.3672 13.3672c-4.7187 4.711-7.3203 10.9844-7.3203 17.664 0 13.7696 11.1992 24.9688 24.9766 24.9688 2.4648 0 4.8398-.4727 7.1445-1.1602-.0078.3907-.121.7618-.121 1.1602 0 8.8242 7.1757 16 16 16zm61.625-56h-29.9102l33.7813-124.9922 27.4414 9.1445zm-61.375-48.9766C258.953 258.5586 265.1367 256 271.4492 256h13.0547l-6.5273 24.1445c-10.1211.3672-19.6094 4.3672-26.8086 11.5664l-41.6563 41.6563C207.8398 335.039 205.5273 336 203.168 336c-4.9532 0-8.9766-4.0234-8.9766-8.9687 0-2.3985.9375-4.6485 2.6328-6.3438zm8 40c3.0234-3.0234 6.871-5.0859 10.9765-6.1601L269.3672 312h-15.8555zm107.2539-190.3906l-9.7969 36.2461-27.4414-9.1445 9.1836-33.9805C343.2383 100.008 348.4727 96 354.414 96h2.5937c7.2734 0 13.1836 5.9102 13.1836 13.1836 0 1.168-.1523 2.3203-.457 3.4492zm-41.414 42.5742l27.4413 9.1446-4.418 16.328-27.4414-9.1444zM338.1913 296c4.4102 0 8 3.5938 8 8s-3.5898 8-8 8h-5.7656l4.3281-16zm0 0" data-original="#000000" class="active-path" data-old_color="#000000" fill="#47A347"></path><path d="M240 80H32v80h208zm-16 64H48V96h176zm0 0" data-original="#000000" class="active-path" data-old_color="#000000" fill="#47A347"></path><path d="M64 112h16v16H64zm0 0M96 112h16v16H96zm0 0M128 112h16v16h-16zm0 0M160 112h16v16h-16zm0 0M192 112h16v16h-16zm0 0M128 256h-16v32H48v-64h48v-16H32v96h96zm0 0" data-original="#000000" class="active-path" data-old_color="#000000" fill="#47A347"></path><path d="M154.3438 178.3438L80 252.6875l-10.3438-10.3438-11.3124 11.3125L80 275.3125l85.6563-85.6563zm0 0M112 424H48v-64h48v-16H32v96h96v-48h-16zm0 0" data-original="#000000" class="active-path" data-old_color="#000000" fill="#47A347"></path><path d="M69.6563 378.3438l-11.3126 11.3125L80 411.3125l85.6563-85.6563-11.3125-11.3125L80 388.6875zm0 0M256 440h16v16h-16zm0 0M152 440h88v16h-88zm0 0M168 216h104v16H168zm0 0" data-original="#000000" class="active-path" data-old_color="#000000" fill="#47A347"></path></svg> 