<?xml version="1.0" encoding="utf-8"?>
<!-- Generator: Adobe Illustrator 22.1.0, SVG Export Plug-In . SVG Version: 6.00 Build 0)  -->
<svg version="1.1" id="Слой_1" xmlns="http://www.w3.org/2000/svg" xmlns:xlink="http://www.w3.org/1999/xlink" x="0px" y="0px"
	 viewBox="0 0 841.9 595.3" style="enable-background:new 0 0 841.9 595.3;" xml:space="preserve">
<style type="text/css">
	.st0{fill:#D24A44;}
	.st1{fill:#D24A43;}
	.st2{fill:#383838;}
</style>
<g>
	<path class="st0" d="M377.7,237.6l-21.5,36.4l-21.3-36.4h-22v72.2h23v-34.6l14.1,23.4h11.6l14.1-23.4v34.6h22.9v-72.2H377.7z"/>
	<path class="st0" d="M452.3,237.6h-25.7c-11.8,0-17.2,6.6-17.2,21.3v4.7h21.2v-1.8c0-4.5,1.2-5.9,4.8-5.9h8.7
		c4.5,0,5.9,1.8,5.9,7.3v4.6h-29.3c-9,0-14,5.9-14,17.2v7.5c0,11.3,4.9,17.2,14,17.2h12.1c5,0,8.7-0.4,11.2-1.3c2.4-1,5-3,8-6.1
		l1.7,7.4h18.4v-47.7C472.2,244.8,466.3,237.6,452.3,237.6z M450.1,287.7l-2.6,2.7c-1.8,1.9-4.2,2.8-7.2,2.8H433c-3.2,0-4-1.1-4-4.9
		v-2.6c0-3.8,0.9-4.8,4-4.8h17.1V287.7z"/>
	<path class="st0" d="M484.5,237.6c-0.1,24.1-0.2,48.1-0.2,72.2h21.2c0-17.4,0.1-34.7,0.2-52.1h30.7v-20.1H484.5z"/>
	<path class="st0" d="M587.9,237.6v24.1H566v-24.1h-23.2v72.2H566V284h21.9v25.7h23v-72.2H587.9z"/>
	<path class="st0" d="M678.3,242.2c-3.9-2.9-7.9-3.7-10.3-3.9c-8.9-0.1-17.8-0.1-26.7-0.2c-2.5,0-9.2,1.5-14.2,6.5
		c0,0-5,5.4-6.4,17.8c-0.1,1.1-0.2,2.1-0.2,2.1c0,1.4-0.1,2.4-0.1,3.3c0,0,0,1.2,0,5.4c0,1.7,0,1.6,0,4.5c0,0.9,0,2.2,0,3.8
		c0,1.6,0,3.4,0,5.4c0,2.6,0,3.9,0.1,4.2c0.2,2.4,0.9,9.1,6.3,14.4c5,4.8,11.1,5.5,12.7,5.7c0.5,0,0.9,0.1,1.2,0.1
		c9.9,0,19.8-0.1,29.7-0.1h14v-18.3c-7.9,0-15.8-0.1-23.7-0.1c-5,0.1-10.1,0.2-15.2,0.2c-1.1-0.4-1.6-0.9-1.8-1.3
		c-0.5-0.7-0.4-1.5-0.2-5.2c0-0.5,0.1-1,0.1-1.3c14.4,0,28.8,0,43.2,0c0.1-7.6,0.2-15.3,0.3-22.9C687.2,260.9,687.5,249,678.3,242.2
		z M663.9,266.8h-20.5v-6.6c0-2,1.7-3.7,3.7-3.7h13c2,0,3.7,1.7,3.7,3.7V266.8z"/>
	<path class="st0" d="M691.5,237.6v22.4H712v49.8h23v-49.8h20.5v-22.4H691.5z"/>
	<path class="st0" d="M670.5,311.1c-9.9,0-19.8,0.1-29.7,0.1c-0.3,0-0.7,0-1.2-0.1H670.5z"/>
</g>
<path class="st1" d="M226.8,396.9c-66.5,0-120.6-54.1-120.6-120.6h-20c0,77.5,63.1,140.6,140.6,140.6c0.9,0,1.8,0,2.7,0v-20
	C228.6,396.9,227.7,396.9,226.8,396.9z"/>
<path class="st1" d="M229.5,194.6v-20c-56.1,0-101.7,45.6-101.7,101.7c0,56.1,45.6,101.7,101.7,101.7v-20
	c-45.1,0-81.7-36.7-81.7-81.7S184.4,194.6,229.5,194.6z"/>
<path class="st1" d="M291.7,276.3h-62.2v62.2c-34.4,0-62.2-27.9-62.2-62.2c0-34.4,27.9-62.3,62.2-62.3
	C263.9,214,291.7,241.9,291.7,276.3z"/>
<g>
	<polygon class="st2" points="341.1,349.7 331.5,349.7 327.5,356.5 323.5,349.7 313.4,349.7 321.5,362.2 313,375.3 322.5,375.3 
		327,367.9 331.4,375.3 341.5,375.3 332.9,362.2 	"/>
	<path class="st2" d="M359.2,349.7h-10.1c-5.3,0-7.5,2.6-7.5,8.7v8.2c0,6.1,2.2,8.7,7.5,8.7h10.1c5.3,0,7.5-2.6,7.5-8.7v-8.2
		C366.7,352.3,364.5,349.7,359.2,349.7z M358.3,365.1c0,2-0.5,2.5-2.2,2.5h-3.9c-1.7,0-2.2-0.6-2.2-2.5v-5.2c0-2,0.5-2.5,2.2-2.5
		h3.9c1.7,0,2.2,0.6,2.2,2.5V365.1z"/>
	<path class="st2" d="M387.7,349.7h-2.3c-2,0-3.5,0.2-4.4,0.5c-1,0.3-2.1,1.2-3.3,2.3l-0.7-2.9h-7v33.2h8.4v-9.8
		c1,0.9,1.9,1.5,2.9,1.8c1,0.3,2.3,0.4,4.1,0.4h2.3c5.3,0,7.5-2.6,7.5-8.7v-8.2C395.2,352.3,393,349.7,387.7,349.7z M386.9,365.1
		c0,2-0.5,2.5-2.2,2.5h-2c-1.4,0-2.5-0.3-3.2-1l-0.9-0.9v-6.3l0.9-0.9c0.7-0.7,1.7-1.1,3.2-1.1h2c1.7,0,2.2,0.6,2.2,2.5V365.1z"/>
	<path class="st2" d="M415.9,349.7h-10.1c-5.2,0-7.5,2.6-7.5,8.7v8.2c0,6.1,2.2,8.7,7.5,8.7h10.1c5.3,0,7.5-2.6,7.5-8.7v-8.2
		C423.4,352.3,421.2,349.7,415.9,349.7z M415,365.1c0,2-0.5,2.5-2.2,2.5h-4c-1.7,0-2.2-0.6-2.2-2.5v-5.2c0-2,0.5-2.5,2.2-2.5h4
		c1.7,0,2.2,0.6,2.2,2.5V365.1z"/>
	<polygon class="st2" points="457,367.4 450.3,367.4 450.3,349.7 441.9,349.7 441.9,367.4 435.2,367.4 435.2,349.7 426.8,349.7 
		426.8,375.3 465.3,375.3 465.3,349.7 457,349.7 	"/>
	<polygon class="st2" points="477.2,362.7 477.2,349.7 469.1,349.7 469.1,375.3 475.8,375.3 486.3,361.8 486.3,375.3 494.4,375.3 
		494.4,349.7 487.4,349.7 	"/>
	<path class="st2" d="M505.5,348h10.7c2,0,3.1-1.2,3.1-3.6v-2.5h-5.5v1.1c0,0.8-0.3,1.2-1,1.2h-3.8c-0.7,0-1-0.4-1-1.2v-1.1h-5.5
		v2.5C502.4,346.8,503.4,348,505.5,348z"/>
	<polygon class="st2" points="506.2,362.7 506.2,349.7 498.2,349.7 498.2,375.3 504.8,375.3 515.4,361.8 515.4,375.3 523.4,375.3 
		523.4,349.7 516.4,349.7 	"/>
	<polygon class="st2" points="547.6,362.7 547.6,349.7 539.5,349.7 539.5,375.3 546.2,375.3 556.8,361.8 556.8,375.3 564.8,375.3 
		564.8,349.7 557.8,349.7 	"/>
	<polygon class="st2" points="584.9,358.2 577,358.2 577,349.7 568.6,349.7 568.6,375.3 577,375.3 577,366.2 584.9,366.2 
		584.9,375.3 593.2,375.3 593.2,349.7 584.9,349.7 	"/>
	<polygon class="st2" points="595.7,357.6 603.1,357.6 603.1,375.3 611.5,375.3 611.5,357.6 619,357.6 619,349.7 595.7,349.7 	"/>
	<path class="st2" d="M666.6,349.7h-2.3c-2,0-3.5,0.2-4.4,0.5c-1,0.3-2.1,1.2-3.3,2.3l-0.7-2.9h-7v33.2h8.4v-9.8
		c1,0.9,1.9,1.5,2.9,1.8c0.9,0.3,2.3,0.4,4.1,0.4h2.3c5.3,0,7.5-2.6,7.5-8.7v-8.2C674.1,352.3,671.9,349.7,666.6,349.7z
		 M665.8,365.1c0,2-0.5,2.5-2.2,2.5h-2.1c-1.4,0-2.5-0.3-3.2-1l-0.9-0.9v-6.3l0.9-0.9c0.7-0.7,1.7-1.1,3.2-1.1h2.1
		c1.7,0,2.2,0.6,2.2,2.5V365.1z"/>
	<polygon class="st2" points="693.9,358.2 685.9,358.2 685.9,349.7 677.6,349.7 677.6,375.3 685.9,375.3 685.9,366.2 693.9,366.2 
		693.9,375.3 702.2,375.3 702.2,349.7 693.9,349.7 	"/>
	<path class="st2" d="M722.9,349.7h-9.7c-5.3,0-7.5,2.6-7.5,8.7v8.2c0,6.1,2.2,8.7,7.5,8.7h4.4h1.6h10.2v-7.2h-10.2h-1.6h-1.3
		c-1.7,0-2.2-0.6-2.2-2.6v-1.6h16.3v-5.5C730.3,352.3,728.1,349.7,722.9,349.7z M722.3,359H714v-0.6c0-2,0.5-2.5,2.2-2.5h3.9
		c1.7,0,2.2,0.6,2.2,2.5V359z"/>
	<polygon class="st2" points="732.3,349.7 732.3,357.6 739.8,357.6 739.8,375.3 748.2,375.3 748.2,357.6 755.6,357.6 755.6,349.7 	
		"/>
	<path class="st2" d="M638.1,349.7h-9.7c-5.3,0-7.5,2.6-7.5,8.7v8.2c0,6.1,2.2,8.7,7.5,8.7h4.4h1.6h10.2v-7.2h-10.2h-1.6h-1.3
		c-1.7,0-2.2-0.6-2.2-2.6v-1.6h16.3v-5.5C645.6,352.3,643.4,349.7,638.1,349.7z M637.6,359h-8.3v-0.6c0-2,0.5-2.5,2.2-2.5h3.9
		c1.7,0,2.2,0.6,2.2,2.5V359z"/>
</g>
</svg>
