<svg xmlns="http://www.w3.org/2000/svg" viewBox="0 0 512 512" width="512" height="512"><path d="M239.042 360.649h-66c-5.523 0-10 4.478-10 10v66c0 5.522 4.477 10 10 10h66c5.523 0 10-4.478 10-10v-66c0-5.522-4.478-10-10-10zm-10 66h-46v-46h46v46zm119.056-66h-66c-5.523 0-10 4.478-10 10v66c0 5.522 4.477 10 10 10h66c5.523 0 10-4.478 10-10v-66c0-5.522-4.477-10-10-10zm-10 66h-46v-46h46v46zm118.86-66h-66c-5.522 0-10 4.478-10 10v66c0 5.522 4.477 10 10 10h66c5.523 0 10-4.478 10-10v-66c0-5.522-4.477-10-10-10zm-10 66h-46v-46h46v46zm-316.777-66h-66c-5.523 0-10 4.478-10 10v66c0 5.522 4.477 10 10 10h66c5.523 0 10-4.478 10-10v-66c0-5.522-4.477-10-10-10zm-10 66h-46v-46h46v46zM155.07 243.93c-1.86-1.86-4.44-2.93-7.07-2.93s-5.21 1.069-7.07 2.93c-1.86 1.86-2.93 4.44-2.93 7.07s1.07 5.21 2.93 7.069c1.86 1.861 4.44 2.931 7.07 2.931s5.21-1.07 7.07-2.931c1.86-1.859 2.93-4.439 2.93-7.069s-1.07-5.21-2.93-7.07z" data-original="#000000" class="active-path" data-old_color="#000000" fill="#47A347"/><path d="M509.07 298.812l-86.333-86.298a9.998 9.998 0 0 0-17.069 7.072v62.163l-69.263-69.235a9.998 9.998 0 0 0-17.069 7.072v62.163l-69.264-69.235a9.998 9.998 0 0 0-17.069 7.072v76.406h-11V128h3c5.523 0 10-4.478 10-10s-4.477-10-10-10h-90c-5.523 0-10 4.478-10 10s4.477 10 10 10h3v88.75c0 5.522 4.477 10 10 10s10-4.478 10-10V128h44v167.992h-44V286c0-5.522-4.477-10-10-10s-10 4.478-10 10v9.992h-31V128h2.988c5.523 0 10-4.478 10-10s-4.477-10-10-10h-90c-5.523 0-10 4.478-10 10s4.477 10 10 10H23v167.992H10c-5.523 0-10 4.478-10 10V502c0 5.522 4.477 10 10 10h492c5.523 0 10-4.478 10-10V305.884a9.997 9.997 0 0 0-2.93-7.072zM43 128h44v167.992H43V128zm449 364H20V315.992h223c5.523 0 10-4.478 10-10v-62.271l69.264 69.235a10 10 0 0 0 17.069-7.072v-62.163l69.263 69.235a10 10 0 0 0 17.069-7.072v-62.163L492 310.027V492zM191.012 0h-59.807c-45.82 0-83.097 37.277-83.097 83.098 0 5.522 4.477 10 10 10h59.807c45.82 0 83.097-37.277 83.097-83.098 0-5.522-4.477-10-10-10zm-59.807 20h23.622l-82.43 40.259C81.568 36.725 104.465 20 131.205 20zm-13.29 53.098H91.681l85.633-41.823c-8.749 24.355-32.07 41.823-59.399 41.823z" data-original="#000000" class="active-path" data-old_color="#000000" fill="#47A347"/><path d="M328.995 0h-59.807c-45.82 0-83.097 37.277-83.097 83.098 0 5.522 4.477 10 10 10h59.807c45.82 0 83.097-37.277 83.097-83.098 0-5.522-4.477-10-10-10zm-59.807 20h24.046L209.96 61.369C218.836 37.253 242.03 20 269.188 20zm-13.29 53.098h-24.591l83.945-41.703c-8.784 24.292-32.07 41.703-59.354 41.703z" data-original="#000000" class="active-path" data-old_color="#000000" fill="#47A347"/></svg>