<svg xmlns="http://www.w3.org/2000/svg" viewBox="0 0 512.002 512.002" width="512" height="512"><path d="M239.047 360.569h-65.985c-5.521 0-9.998 4.477-9.998 9.998v65.985c0 5.521 4.477 9.998 9.998 9.998h65.985c5.521 0 9.998-4.477 9.998-9.998v-65.985c0-5.523-4.477-9.998-9.998-9.998zm-9.998 65.984h-45.99v-45.989h45.99v45.989zm119.028-65.984h-65.985c-5.521 0-9.998 4.477-9.998 9.998v65.985c0 5.521 4.477 9.998 9.998 9.998h65.985c5.521 0 9.998-4.477 9.998-9.998v-65.985c0-5.523-4.476-9.998-9.998-9.998zm-9.998 65.984h-45.99v-45.989h45.99v45.989zm118.834-65.984h-65.985c-5.521 0-9.998 4.477-9.998 9.998v65.985c0 5.521 4.477 9.998 9.998 9.998h65.985c5.521 0 9.998-4.477 9.998-9.998v-65.985c0-5.523-4.477-9.998-9.998-9.998zm-9.998 65.984h-45.99v-45.989h45.99v45.989z" data-original="#000000" class="active-path" data-old_color="#000000" fill="#47A347"/><path d="M501.945 296.409h-6.998V75.152a9.999 9.999 0 0 0-15.185-8.547l-63.985 38.823a9.999 9.999 0 0 0-4.812 8.547v176.924l-83.075-42.72a9.999 9.999 0 0 0-9.78.357 9.998 9.998 0 0 0-4.79 8.534v33.829l-83.074-42.72a9.999 9.999 0 0 0-9.78.357 9.998 9.998 0 0 0-4.79 8.534v33.829l-83.075-42.72a9.999 9.999 0 0 0-9.78.357 9.998 9.998 0 0 0-4.79 8.534v48.719l-75.543-75.543c-3.905-3.904-10.234-3.904-14.14 0-3.904 3.904-3.904 10.235 0 14.14l89.611 89.611c.023.023.048.042.071.064v74.598L71.983 362.61c-3.905-3.903-10.234-3.903-14.14 0-3.904 3.904-3.904 10.235 0 14.14l60.186 60.186v45.414c-10.88-8.819-26.291-23.163-41.586-43.708-25.725-34.557-56.392-94.307-56.392-182.7S50.721 107.8 76.446 73.239c20.921-28.105 42.083-44.634 51.518-51.237 23.774 16.714 96.248 77.484 106.755 202.731.461 5.502 5.287 9.592 10.799 9.127 5.503-.461 9.589-5.296 9.127-10.799-5.319-63.409-25.935-118.889-61.274-164.897-24.723-32.187-49.679-49.975-59.26-56.128l-.291-.188a9.998 9.998 0 0 0-10.812-.493c-1.277.742-31.599 18.621-61.962 59.091-17.735 23.64-31.861 50.186-41.984 78.903C6.452 175.115.059 214.343.059 255.943c0 41.601 6.394 80.829 19.003 116.594 10.124 28.717 24.249 55.263 41.984 78.901 27.15 36.185 54.251 54.296 60.597 58.256a9.953 9.953 0 0 0 6.387 2.307h373.915c5.521 0 9.998-4.477 9.998-9.998V306.407c0-5.522-4.477-9.998-9.998-9.998zm-70.984-176.805l43.99-26.691V296.41h-43.99V119.604zM138.028 492.005V273.452l81.373 41.844a9.989 9.989 0 0 0 4.572 1.107h1.702c5.521 0 9.998-4.477 9.998-9.998v-32.954l81.372 41.844a9.989 9.989 0 0 0 4.572 1.107h1.702c5.521 0 9.998-4.477 9.998-9.998V273.45l81.373 41.844a9.989 9.989 0 0 0 4.572 1.107h72.685v175.604H138.028z" data-original="#000000" class="active-path" data-old_color="#000000" fill="#47A347"/><path d="M173.057 91.111c-3.905-3.904-10.234-3.904-14.14 0l-20.89 20.89V90.815c0-5.522-4.477-9.998-9.998-9.998-5.521 0-9.998 4.476-9.998 9.998v80.826l-46.925-46.924c-3.905-3.904-10.234-3.904-14.14 0-3.904 3.904-3.904 10.235 0 14.139l58.993 58.992a9.983 9.983 0 0 0 2.071 1.578v18.09c.002 5.523 4.478 9.999 10 9.999 5.521 0 9.998-4.476 9.998-9.998v-77.415c.402-.296.792-.614 1.155-.977l33.874-33.874c3.904-3.904 3.904-10.235 0-14.14zm-37.959-38.692a10.068 10.068 0 0 0-7.067-2.929c-2.629 0-5.209 1.07-7.068 2.929s-2.929 4.439-2.929 7.068 1.069 5.209 2.929 7.068a10.074 10.074 0 0 0 7.068 2.929 10.07 10.07 0 0 0 7.067-2.929c1.86-1.86 2.93-4.439 2.93-7.068s-1.07-5.208-2.93-7.068zm76.792 149.21c-3.905-3.904-10.234-3.904-14.14 0l-31.759 31.759c-3.904 3.904-3.904 10.235 0 14.14 1.954 1.953 4.511 2.928 7.07 2.928s5.117-.976 7.069-2.928l31.759-31.759c3.905-3.904 3.905-10.235.001-14.14zM339.916 20.034H281.33c-5.521 0-9.998 4.476-9.998 9.998v7.87c0 35.352 28.761 64.113 64.114 64.113h58.586c5.521 0 9.998-4.476 9.998-9.998v-7.87c0-35.351-28.762-64.113-64.114-64.113zm-4.469 61.986c-20.014 0-36.954-13.396-42.332-31.693l65.894 31.693h-23.562zm44.595-12.071L317.835 40.03h22.081c19.862 0 36.696 13.193 42.208 31.274a9.997 9.997 0 0 0-2.082-1.355z" data-original="#000000" class="active-path" data-old_color="#000000" fill="#47A347"/></svg>