<svg xmlns="http://www.w3.org/2000/svg" viewBox="0 0 512 512" width="512" height="512"><path d="M512 279.98c0-10.643-4.523-20.244-11.74-27 7.217-6.756 11.74-16.357 11.74-27 0-20.402-16.598-37-37-37h-27.49c-29.807-84.237-90.306-133.813-99.177-140.744l-.074-.058a9.999 9.999 0 0 0-12.288-.173c-1.597 1.207-38.429 29.403-70.358 80.954H220c-34.473 0-68.039 12.112-94.515 34.104-.19.158-.375.323-.553.495l-11.84 11.421H10c-5.522 0-10 4.478-10 10v180c0 5.522 4.478 10 10 10h99c.044 0 .087-.006.131-.007a148.046 148.046 0 0 0 17.626 16.926c26.25 21.319 59.363 33.061 93.242 33.061h51.772c2.557 2.571 5.1 4.958 7.598 7.162 29.539 26.067 59.07 33.33 60.313 33.627a10 10 0 0 0 4.64 0c1.243-.297 30.774-7.56 60.313-33.627a160.693 160.693 0 0 0 7.689-7.251c.46.065.926.11 1.404.11H475c20.402 0 37-16.598 37-37 0-10.643-4.523-20.244-11.74-27 7.217-6.756 11.74-16.357 11.74-27s-4.523-20.244-11.74-27c7.217-6.757 11.74-16.358 11.74-27zM332.191 77.989v50.734h-3.672c-.737 0-1.453.085-2.144.236h-36.933c15.403-22.757 31.377-39.988 42.749-50.97zM221.372 184.112c-5.522 0-10 4.478-10 10s4.478 10 10 10h110.632v89.33l-44.53-44.53c-3.906-3.904-10.236-3.904-14.143 0-3.905 3.905-3.905 10.237 0 14.143l58.673 58.673v120.203c-10.141-4.268-25.208-12.111-40.11-25.436-34.456-30.808-51.925-75.045-51.925-131.48 0-17.525 1.744-35.082 5.183-52.183 1.089-5.415-2.418-10.687-7.832-11.775s-10.687 2.416-11.775 7.832a285.335 285.335 0 0 0-5.575 56.126c0 55.05 15.988 93.592 34.9 119.944H220c-59.535 0-112.09-42.117-124.963-100.146-1.196-5.392-6.539-8.795-11.929-7.597-5.392 1.196-8.793 6.537-7.597 11.929 3.606 16.256 9.997 31.763 18.742 45.835H20v-160h97.13a9.997 9.997 0 0 0 6.942-2.803l14.474-13.961c22.849-18.869 51.761-29.257 81.454-29.257h137.5l2.869-.001c9.757 0 17.694 7.703 17.694 17.46 0 9.757-7.938 17.694-17.694 17.694H221.372zm170.742 232.383c-14.905 13.327-29.975 21.17-40.11 25.437v-59.898l80.087-80.087c3.905-3.905 3.905-10.237 0-14.143-3.906-3.904-10.236-3.904-14.143 0l-65.944 65.944V262.5a9.943 9.943 0 0 0 3.967-2.427l44.483-44.483c3.905-3.905 3.905-10.237 0-14.143-3.906-3.904-10.236-3.904-14.143 0l-34.308 34.308v-31.643h8.365c20.785 0 37.694-16.909 37.694-37.694 0-20.785-16.909-37.695-37.694-37.695h-8.178V78.261c10.728 10.333 25.225 25.924 39.584 46.429 34.68 49.526 52.264 103.467 52.264 160.324.001 56.436-17.469 100.673-51.924 131.481zM475 404.98h-45.876c6.915-9.633 13.435-20.895 18.929-34H475c9.374 0 17 7.626 17 17s-7.626 17-17 17zm0-54h-19.87c3.04-10.37 5.431-21.681 6.966-34H475c9.374 0 17 7.626 17 17s-7.626 17-17 17zm0-54h-11.24c.171-3.906.279-7.879.279-11.965 0-7.508-.305-14.847-.855-22.035H475c9.374 0 17 7.626 17 17 0 9.374-7.626 17-17 17zm0-54h-14.056a285.939 285.939 0 0 0-7.164-34H475c9.374 0 17 7.626 17 17 0 9.374-7.626 17-17 17z" data-original="#000000" class="active-path" data-old_color="#000000" fill="#47A347"/><path d="M174.038 347.852C149.594 332.359 135 305.857 135 276.959c0-5.522-4.478-10-10-10s-10 4.478-10 10c0 35.788 18.067 68.605 48.331 87.785a9.952 9.952 0 0 0 5.344 1.555 9.993 9.993 0 0 0 8.456-4.647c2.957-4.666 1.571-10.844-3.093-13.8zm26.132 10.88l-.194-.043c-5.407-1.156-10.745 2.276-11.901 7.677-1.157 5.4 2.254 10.71 7.654 11.867l.129.029c.722.158 1.441.234 2.15.234a9.988 9.988 0 0 0 9.727-7.825c1.202-5.374-2.195-10.715-7.565-11.939z" data-original="#000000" class="active-path" data-old_color="#000000" fill="#47A347"/></svg>