<svg xmlns="http://www.w3.org/2000/svg" viewBox="0 0 512 512" width="512" height="512"><path d="M166.705 156h-.126c-5.523 0-10 4.478-10 10s4.477 10 10 10h.126c5.523 0 10-4.478 10-10s-4.477-10-10-10zm183.069 53.021a10 10 0 0 0-6.537-6.989c-1.86-.617-45.994-14.656-84.246 23.536a99.951 99.951 0 0 0-8.418 9.531c2.911-4.087 2.356-9.795-1.466-13.228-37.355-33.557-78.606-20.415-80.345-19.839a10.003 10.003 0 0 0-6.536 6.986c-2.237 7.802-11.525 48.262 23.77 83.5 7.251 7.24 15.283 13.104 23.872 17.428a10 10 0 0 0 13.428-4.437c2.483-4.933.497-10.945-4.436-13.429-6.687-3.365-12.989-7.98-18.733-13.715-22.51-22.476-21.765-47.192-19.852-58.528 10.227-1.726 33.571-2.759 55.467 16.912 4.108 3.689 10.431 3.352 14.122-.757.161-.179.305-.368.451-.556-6.821 8.889-11.204 17.87-13.922 26.369l-20.302-20.25c-3.911-3.9-10.242-3.894-14.142.019-3.9 3.91-3.892 10.241.018 14.142l30.438 30.359c-.245 13.478 2.735 22.806 3.012 23.64a10 10 0 0 0 6.343 6.337c.801.266 9.443 3.022 22.084 3.021 16.704 0 40.387-4.816 62.161-26.555 35.155-35.101 26.077-75.383 23.769-83.497zm-187.784 1.227zm149.883 68.116c-15.84 15.815-32.804 20.119-45.266 20.672l44.066-43.96c3.91-3.901 3.917-10.232.017-14.143-3.901-3.91-10.233-3.916-14.142-.018l-44.084 43.978c.564-12.452 4.869-29.409 20.658-45.174 22.795-22.759 47.926-21.688 58.602-19.888 1.914 11.334 2.663 36.056-19.851 58.533z" data-original="#000000" class="active-path" data-old_color="#000000" fill="#47A347"/><path d="M502 458h-4.104V94H502c5.523 0 10-4.478 10-10s-4.477-10-10-10h-76V20h10c5.523 0 10-4.478 10-10s-4.477-10-10-10H76c-5.523 0-10 4.478-10 10s4.477 10 10 10h10v54H10C4.477 74 0 78.478 0 84s4.477 10 10 10h3.896v364H10c-5.523 0-10 4.478-10 10s4.477 10 10 10h76v14H76c-5.523 0-10 4.478-10 10s4.477 10 10 10h360c5.523 0 10-4.478 10-10s-4.477-10-10-10h-10v-14h76c5.523 0 10-4.478 10-10s-4.477-10-10-10zm-416 0H33.896V350H54c5.523 0 10-4.478 10-10s-4.477-10-10-10H33.896V222H54c5.523 0 10-4.478 10-10s-4.477-10-10-10H33.896V94H86v364zM266 20h100v93.469c0 5.238-4.262 9.5-9.5 9.5s-9.5-4.262-9.5-9.5V64c0-16.542-13.458-30-30-30s-30 13.458-30 30v18.5c0 5.79-4.71 10.5-10.5 10.5S266 88.29 266 82.5V20zm140 64v72H200.079c-5.523 0-10 4.478-10 10s4.477 10 10 10H406v160h-27.579c-5.523 0-10 4.478-10 10s4.477 10 10 10H406v136H106V356h205.921c5.523 0 10-4.478 10-10s-4.477-10-10-10H106V176h27.579c5.523 0 10-4.478 10-10s-4.477-10-10-10H106V20h140v62.5c0 16.817 13.682 30.5 30.5 30.5S307 99.317 307 82.5V64c0-5.514 4.486-10 10-10s10 4.486 10 10v49.469c0 16.267 13.233 29.5 29.5 29.5s29.5-13.233 29.5-29.5V20h20v64zm71.896 118H453c-5.523 0-10 4.478-10 10s4.477 10 10 10h24.896v108H453c-5.523 0-10 4.478-10 10s4.477 10 10 10h24.896v108H426V94h51.896v108z" data-original="#000000" class="active-path" data-old_color="#000000" fill="#47A347"/><path d="M345.421 336h-.126c-5.523 0-10 4.478-10 10s4.477 10 10 10h.126c5.523 0 10-4.478 10-10s-4.477-10-10-10z" data-original="#000000" class="active-path" data-old_color="#000000" fill="#47A347"/></svg>