<svg xmlns="http://www.w3.org/2000/svg" viewBox="0 0 512 512" width="512" height="512"><path d="M251.472 87.534l-66.386-66.632a10 10 0 0 0-17.084 7.057v8.964H60c-33.084 0-60 26.916-60 60v45.333c0 2.006.597 3.87 1.614 5.436l76.456 132.43a9.997 9.997 0 0 0 6.072 4.659 9.992 9.992 0 0 0 7.588-.999l82.562-47.667c4.783-2.762 6.422-8.877 3.66-13.66l-40.527-70.196h30.578v8.719a10.001 10.001 0 0 0 17.071 7.071l66.385-66.386c3.9-3.9 3.905-10.222.013-14.129zm-64.489 50.319a10 10 0 0 0-8.98-5.596h-86.35c-5.522 0-10 4.478-10 10s4.478 10 10 10h22.676l41.301 71.536-65.241 37.668L20 139.54V96.924c0-22.056 17.944-40 40-40h118.002a10 10 0 0 0 9.041-5.721l43.215 43.375-43.275 43.275zm201.028 181.811l-82.562-47.666a9.998 9.998 0 0 0-7.658-.979 9.996 9.996 0 0 0-6.074 4.767l-35.299 63.253-15.14-26.224 7.551-4.359a9.999 9.999 0 0 0-2.412-18.32l-90.686-24.299a9.989 9.989 0 0 0-7.588.999 9.997 9.997 0 0 0-4.659 6.072l-24.298 90.686a10 10 0 0 0 14.659 11.248l7.551-4.359 54 93.532c8.013 13.879 20.951 23.808 36.432 27.955a60.298 60.298 0 0 0 15.627 2.07c10.396 0 20.658-2.727 29.902-8.064l39.26-22.666a9.96 9.96 0 0 0 3.997-4.294l71.102-125.768c2.701-4.78 1.047-10.841-3.705-13.584zM304.222 447.37l-36.865 21.283c-9.253 5.342-20.032 6.761-30.353 3.996-10.32-2.766-18.946-9.384-24.288-18.637l-59-102.192a9.997 9.997 0 0 0-6.072-4.659 9.92 9.92 0 0 0-3.266-.317l15.836-59.102 59.098 15.836a9.999 9.999 0 0 0-.355 10.575l46.002 79.68c2.762 4.782 8.875 6.423 13.66 3.66 4.783-2.762 6.422-8.877 3.66-13.66l-14.215-24.622 36.172-64.82 65.192 37.638-65.206 115.341z" data-original="#000000" class="active-path" data-old_color="#000000" fill="#47A347"/><path d="M298.159 412.022c-1.859-1.86-4.439-2.931-7.069-2.931s-5.21 1.07-7.07 2.931c-1.86 1.859-2.93 4.439-2.93 7.069s1.069 5.21 2.93 7.07c1.861 1.86 4.44 2.93 7.07 2.93s5.21-1.069 7.069-2.93c1.86-1.86 2.931-4.44 2.931-7.07s-1.07-5.21-2.931-7.069zm183.853-352.19l-39.26-22.666a9.948 9.948 0 0 0-5.482-1.321H284.323c-5.522 0-10 4.478-10 10v95.334c0 5.522 4.478 10 10 10h81.057l-15.289 26.481-7.551-4.359a10 10 0 0 0-14.659 11.248l24.299 90.685c1.197 4.468 5.237 7.415 9.653 7.415a10.023 10.023 0 0 0 2.594-.344l90.685-24.299a10 10 0 1 0 2.412-18.32l-7.551-4.359 54-93.532c16.542-28.652 6.69-65.42-21.961-81.963zm4.64 71.963l-59 102.192a9.999 9.999 0 0 0 .356 10.575l-59.098 15.836-15.836-59.098a9.997 9.997 0 0 0 9.337-4.979l49.173-85.171c2.762-4.783 1.123-10.898-3.66-13.66-4.784-2.762-10.899-1.122-13.66 3.66l-17.337 30.028h-82.604V55.845h140.781l36.907 21.308c19.101 11.028 25.67 35.541 14.641 54.642z" data-original="#000000" class="active-path" data-old_color="#000000" fill="#47A347"/><path d="M426.85 70.169c-1.861-1.86-4.44-2.93-7.07-2.93s-5.21 1.069-7.069 2.93c-1.86 1.86-2.931 4.44-2.931 7.07s1.07 5.21 2.931 7.069c1.859 1.86 4.439 2.931 7.069 2.931s5.21-1.07 7.07-2.931c1.86-1.859 2.93-4.439 2.93-7.069s-1.069-5.21-2.93-7.07zm-362.622 65.01a10.074 10.074 0 0 0-7.07-2.93c-2.64 0-5.21 1.071-7.08 2.93-1.859 1.86-2.92 4.44-2.92 7.07s1.061 5.21 2.92 7.07c1.87 1.86 4.45 2.93 7.08 2.93 2.631 0 5.21-1.07 7.07-2.93 1.861-1.86 2.93-4.44 2.93-7.07s-1.07-5.21-2.93-7.07z" data-original="#000000" class="active-path" data-old_color="#000000" fill="#47A347"/></svg>