<svg xmlns="http://www.w3.org/2000/svg" viewBox="0 0 512 512" width="512" height="512"><path d="M350.688 496.97H66.121V126.245a7.515 7.515 0 1 0-15.03 0v373.23c0 6.907 5.619 12.525 12.525 12.525h287.072a7.516 7.516 0 0 0 0-15.03zM458.782 67.951L394.906 2.276A7.515 7.515 0 0 0 389.519 0H63.616C56.71 0 51.092 5.62 51.091 12.526v58.613a7.515 7.515 0 1 0 15.03 0V15.031h320.224l59.536 61.212V496.97h-42.59a7.515 7.515 0 1 0 0 15.03h45.094c6.907 0 12.525-5.618 12.525-12.524V73.19a7.511 7.511 0 0 0-2.128-5.239z" data-original="#000000" class="active-path" data-old_color="#000000" fill="#47A347"/><path d="M458.781 67.951L394.905 2.276a7.515 7.515 0 0 0-12.901 5.24V73.19a7.515 7.515 0 0 0 7.515 7.515h63.876a7.514 7.514 0 1 0 5.386-12.754zm-61.747-2.276V26.019l38.569 39.656h-38.569zM290.78 39.899H109.714c-6.907 0-12.525 5.619-12.525 12.525v41.533c0 6.907 5.619 12.525 12.525 12.525H290.78c6.906 0 12.525-5.619 12.525-12.524V52.423c0-6.907-5.619-12.524-12.525-12.524zm-2.505 51.552H112.219V54.928h176.056v36.523zm-116.028 54.36a7.516 7.516 0 0 0-10.53 1.436l-33.203 43.688-9.972-8.726a7.515 7.515 0 0 0-9.897 11.311l16.031 14.027a7.52 7.52 0 0 0 4.948 1.859c.252 0 .505-.013.759-.037a7.517 7.517 0 0 0 5.225-2.93l38.075-50.098a7.515 7.515 0 0 0-1.436-10.53zm226.162-1.534H209.136a7.515 7.515 0 1 0 0 15.03h189.273a7.515 7.515 0 1 0 0-15.03zm-66.388 25.049H209.136a7.515 7.515 0 1 0 0 15.03h122.885a7.515 7.515 0 1 0 0-15.03zm28.055 25.05h-150.94a7.515 7.515 0 1 0 0 15.03h150.94a7.515 7.515 0 1 0 0-15.03zm-187.829 53.638a7.516 7.516 0 0 0-10.53 1.436l-33.203 43.688-9.972-8.726a7.515 7.515 0 0 0-9.897 11.311l16.031 14.027a7.52 7.52 0 0 0 4.948 1.859c.252 0 .505-.013.759-.037a7.517 7.517 0 0 0 5.225-2.93l38.075-50.098a7.516 7.516 0 0 0-1.436-10.53zm226.162-1.533H209.136a7.515 7.515 0 1 0 0 15.03h189.273a7.515 7.515 0 1 0 0-15.03zm-66.388 25.049H209.136a7.515 7.515 0 1 0 0 15.03h122.885a7.515 7.515 0 1 0 0-15.03zm28.055 25.049h-150.94a7.515 7.515 0 1 0 0 15.03h150.94a7.515 7.515 0 1 0 0-15.03zm38.333 52.106H209.136a7.515 7.515 0 1 0 0 15.03h189.273a7.516 7.516 0 0 0 0-15.03zm-66.388 25.049H209.136a7.515 7.515 0 1 0 0 15.03h122.885a7.515 7.515 0 1 0 0-15.03zm28.055 25.049h-150.94a7.515 7.515 0 1 0 0 15.03h150.94a7.515 7.515 0 1 0 0-15.03zm-201.395-50.098h-40.079c-6.907 0-12.525 5.619-12.525 12.525v40.078c0 6.907 5.619 12.525 12.525 12.525h40.079c6.907 0 12.525-5.618 12.525-12.524V361.21c0-6.907-5.619-12.525-12.525-12.525zm-2.504 50.099h-35.069v-35.069h35.069v35.069z" data-original="#000000" class="active-path" data-old_color="#000000" fill="#47A347"/></svg>