<svg xmlns="http://www.w3.org/2000/svg" viewBox="0 0 512 512" width="512" height="512"><path d="M460.475 101.099L260.721 1.147A9.953 9.953 0 0 0 256.104 0h-.191c-.005 0-.009.002-.017 0a9.953 9.953 0 0 0-4.617 1.147L51.525 101.099A9.998 9.998 0 0 0 46 110.042v190.845c0 36.458 10.697 67.283 32.703 94.236 20.4 24.988 47.903 43.222 72.116 57.762 49.905 29.969 99.776 57.59 100.274 57.865a10 10 0 0 0 4.841 1.25h.132a10 10 0 0 0 4.841-1.25c.498-.275 50.369-27.896 100.274-57.865 24.212-14.54 51.715-32.773 72.116-57.762C455.303 368.169 466 337.344 466 300.887V110.042a10 10 0 0 0-5.525-8.943zM446 300.887c0 71.727-49.096 107.217-95.115 134.853-40.641 24.406-81.271 47.25-94.885 54.853-13.611-7.6-54.233-30.44-94.885-54.853C115.096 408.104 66 372.613 66 300.887V116.22l190-95.071 190 95.071v184.667z" data-original="#000000" class="active-path" data-old_color="#000000" fill="#47A347"/><path d="M420.475 125.812l-160-80.061a10 10 0 0 0-8.975.013L92 126.133c-4.932 2.485-6.916 8.498-4.43 13.43 2.484 4.932 8.497 6.917 13.43 4.43l155.016-78.109L406 140.933v119.734c0 5.523 4.477 10 10 10s10-4.477 10-10V134.755a10 10 0 0 0-5.525-8.943zm-76.72 278.632c-2.844-4.736-8.987-6.269-13.721-3.425-27.502 16.516-55.013 32.32-74.541 43.386-19.522-11.067-46.654-26.664-73.784-42.956C132.608 371.961 106 347.202 106 300.887V264c0-5.523-4.477-10-10-10s-10 4.477-10 10v36.887c0 55.303 32.681 86.04 85.413 117.708 29.933 17.975 59.846 35.096 79.669 46.294a9.955 9.955 0 0 0 4.909 1.295 10.02 10.02 0 0 0 7.409-3.272c19.726-11.164 48.323-27.567 76.931-44.747 4.734-2.843 6.268-8.986 3.424-13.721zM96 216.08c-5.523 0-10 4.477-10 10v.179c0 5.523 4.477 10 10 10s10-4.477 10-10v-.179c0-5.523-4.477-10-10-10zm320 74.488c-5.523 0-10 4.477-10 10v.318c0 5.523 4.477 10 10 10s10-4.477 10-10v-.318c0-5.523-4.477-10-10-10z" data-original="#000000" class="active-path" data-old_color="#000000" fill="#47A347"/><path d="M260.552 119.568a10.002 10.002 0 0 0-8.536-.268c-1.808.785-44.267 19.794-44.267 68.799 0 49.006 42.459 68.013 44.267 68.797a9.984 9.984 0 0 0 7.968.001c1.808-.785 44.267-19.791 44.267-68.797 0-45.072-36.108-64.868-43.699-68.532zM266 229.002v-40.904c0-5.523-4.477-10-10-10s-10 4.477-10 10v40.845c-8.704-7.938-18.251-21.132-18.251-40.844 0-28.33 19.525-43.125 28.203-48.301 9.293 5.562 28.299 20.356 28.299 48.301 0 19.807-9.543 32.99-18.251 40.903zm-15.033 42.611a9.995 9.995 0 0 0-3.984-6.9c-1.585-1.173-39.274-28.44-81.715-3.937-39.037 22.538-38.123 63.71-37.5 72.112a10 10 0 0 0 4.037 7.524c1.096.812 19.482 14.119 44.769 14.119 11.254 0 23.875-2.636 36.946-10.183 42.441-24.503 37.671-70.777 37.447-72.735zm-47.448 55.415c-24.536 14.167-47.112 4.654-55.932-.274.17-10.829 3.479-34.685 27.681-48.658 17.156-9.904 33.344-8.231 44.55-4.645L184.4 293.902c-4.783 2.762-6.421 8.878-3.66 13.661a9.997 9.997 0 0 0 13.66 3.66l35.364-20.421c-2.522 11.506-9.175 26.371-26.245 36.226zm143.197-66.267c-42.44-24.503-80.13 2.766-81.714 3.938a9.998 9.998 0 0 0-3.984 6.9c-.224 1.958-4.994 48.232 37.447 72.735 13.004 7.508 25.58 10.143 36.83 10.142 22.52 0 39.722-10.559 44.369-13.721a9.998 9.998 0 0 0 4.5-7.259c.224-1.957 4.992-48.232-37.448-72.735zm-38.251 66.253c-17.151-9.902-23.797-24.755-26.297-36.252l35.421 20.46a9.993 9.993 0 0 0 13.661-3.658c2.762-4.782 1.125-10.899-3.657-13.661l-35.379-20.436c11.228-3.569 27.43-5.242 44.502 4.614 24.535 14.166 27.585 38.472 27.729 48.575-9.464 5.268-31.779 14.33-55.98.358z" data-original="#000000" class="active-path" data-old_color="#000000" fill="#47A347"/></svg>