<svg xmlns="http://www.w3.org/2000/svg" height="512" viewBox="0 -14 512 512" width="512"><path d="M379.09 244.227c1.601 3.843 5.539 6.382 9.719 6.164 4.14-.215 7.734-3.008 9.027-6.93 1.305-3.973-.129-8.445-3.43-10.988-3.351-2.586-8.117-2.735-11.636-.387-3.914 2.61-5.489 7.797-3.68 12.14zm0 0" data-original="#000000" class="active-path" data-old_color="#000000" fill="#47A347"/><path d="M457.93 371.805a193.72 193.72 0 0 0 2.23-5 195.576 195.576 0 0 0 8.696-24.442v-.007a194.567 194.567 0 0 0 6.96-42.325c.172-3.195.262-6.402.278-9.613v-.43c0-.722.004-1.445 0-2.168 0-.129-.02-.254-.024-.382a202.335 202.335 0 0 0-.195-7.204c-2.047-43.125-17.777-83.343-45.496-116.3-26.828-31.899-63.813-54.758-104.14-64.364a10.094 10.094 0 0 0-5.915.399l-72.226 27.844-78.438-24.305a10.093 10.093 0 0 0-6.226.101c-32.98 10.625-62.657 30-85.832 56.043-.016.02-.036.036-.055.055a196.048 196.048 0 0 0-29.867 44.649c-.024.046-.04.093-.059.136-7.617 15.739-13.035 32.489-16.183 49.692a9.966 9.966 0 0 0-.313 1.675 195.873 195.873 0 0 0-2.687 42.809 192.844 192.844 0 0 0 .242 4.031 195.788 195.788 0 0 0 7.27 41.207c.007.024.01.047.019.07 23.219 80.008 94.71 136.438 177.894 140.426.164.008.328.012.489.012 5.3 0 9.722-4.168 9.98-9.523.266-5.516-3.992-10.203-9.512-10.465a174.593 174.593 0 0 1-75.617-21.29c12.805 2.665 24.445 4.552 35.05 5.68.36.036.72.055 1.071.055 5.047 0 9.387-3.812 9.934-8.945.582-5.488-3.399-10.414-8.89-11-20.99-2.23-46.47-7.64-77.802-16.516-14.5-14.719-26.484-32.05-35.12-51.41 17.343 7.645 35.288 13.852 53.53 18.969 17.692 4.969 35.704 8.855 53.837 11.797 5.175.84 10.363 1.613 15.562 2.312 1.32.176 2.64.348 3.965.516.68.086.648.215 1 .77.578.913 1.152 1.827 1.73 2.738l50.352 79.68c2.625 4.144 8.094 5.78 12.55 3.761 4.079-1.848 6.434-6.23 5.782-10.652-.195-1.313-.473-2.618-.711-3.926l-12.363-67.188 14.164-.668a44.47 44.47 0 0 1 17.226 2.579 44.879 44.879 0 0 1 14.953 8.988c12.012 10.926 27.332 16.84 43.45 16.84a70.21 70.21 0 0 0 3.136-.075l50.133-2.378c-28.105 23.039-63.558 37.574-102.562 39.425a10 10 0 0 0-9.516 10.465c.254 5.356 4.676 9.524 9.98 9.524.16 0 .32-.004.481-.012 53.41-2.531 100.844-26.418 134.438-62.992a10.02 10.02 0 0 0 1.023-.965c12.191-13.469 22.418-28.492 30.402-44.652a182.94 182.94 0 0 0 1.942-4.051zm-17.45-10.078l-31.73 1.504c-3.09.128-5.695-2.239-5.84-5.313a5.53 5.53 0 0 1 1.461-4.031 5.527 5.527 0 0 1 3.848-1.809l36.96-1.75c-1.437 3.863-3 7.664-4.699 11.399zm-25.41-184.922c12.938 15.386 22.961 32.539 29.864 50.902l-16.957.805c-5.516.261-9.778 4.945-9.516 10.46.254 5.356 4.676 9.528 9.98 9.528.16 0 .32-.004.48-.012l22.106-1.047a176.612 176.612 0 0 1 4.707 30.95l-34.949 1.66c-17.246.816-33.152 8.305-44.789 21.082l-17.16 18.87c-8.023 8.833-19.008 14.009-30.926 14.571l-52.043 2.469 28.735-42.711a10.092 10.092 0 0 0 1.687-6.055l-2.406-50.742 40.215-1.906c8.39-.399 16.136-4.047 21.828-10.285 5.66-6.223 8.558-14.285 8.16-22.703h-.004c-.824-17.36-15.64-30.825-32.977-29.989l-40.207 1.91-1.132-23.84 27.504-30.242c33.976 9.34 64.976 29.188 87.8 56.325zm-113.218 17.73l40.203-1.906c6.355-.3 11.75 4.617 12.05 10.96a11.423 11.423 0 0 1-2.968 8.29c-2.086 2.285-4.922 3.625-7.989 3.773l-40.207 1.907zm-19.668-54.207a9.097 9.097 0 0 0-.57.692c-.016.023-.04.047-.055.07a6.94 6.94 0 0 0-.426.637c-.04.058-.086.117-.121.18a8.44 8.44 0 0 0-.383.714c-.027.05-.059.098-.082.149a9.477 9.477 0 0 0-.328.797l-.047.101a10.003 10.003 0 0 0-.578 3.863l6.562 138.383-59.574 88.559a9.989 9.989 0 0 0-1.539 7.39l7.633 41.465-20.574-32.55-5.832-9.231 9.125-29.652c0-.008.003-.012.003-.016l17.77-57.762 36.64-46.383a9.98 9.98 0 0 0 2.07-7.496l-12.487-95.343 28.707-11.067zm-97.25 233.36c-19.907-2.82-39.672-6.758-59.086-12.012-19.274-5.211-38.25-11.723-56.457-19.93a321.554 321.554 0 0 1-14.66-7.047c-.762-.394-.75-.62-.973-1.488a135.651 135.651 0 0 1-.524-2.086 169.312 169.312 0 0 1-1.007-4.383 173.911 173.911 0 0 1-1.684-8.847c17.617 7.152 35.578 13.476 53.766 19.004a649.097 649.097 0 0 0 56.718 14.511 613.255 613.255 0 0 0 31.817 5.758 18082.685 18082.685 0 0 0-4.785 15.555c-.094.304-.157.914-.36 1.164-.367.449-2.136-.11-2.765-.2zm-43.88-87.899c-29.25-9.73-59.429-19.773-88.667-34.36a174.268 174.268 0 0 1 8.84-28.363c18.265 10.36 37.656 18.68 57.472 25.586 19.844 6.918 40.184 12.403 60.735 16.778a582.287 582.287 0 0 0 33.875 6.172l.78 16.511-15.296 49.723a604.103 604.103 0 0 1-60.855-12.293c-19.852-5.074-39.47-11.086-58.739-18.066-10.406-3.77-20.715-7.817-30.883-12.184-.261-7.758 0-15.52.762-23.215 28.64 13.719 57.57 23.344 85.664 32.692a10.009 10.009 0 0 0 12.649-6.336c1.742-5.239-1.094-10.903-6.336-12.645zm-53.64-106.82c12.781 6.574 26.059 12.14 39.59 16.965 14.125 5.039 28.586 9.132 43.203 12.453 7.438 1.687 14.926 3.14 22.442 4.41 3.71.629 7.433 1.195 11.16 1.726 1.863.262 3.726.504 5.59.75.527.067 1.062-.074 1.254.352.238.52.074 1.59.101 2.152.531 11.141 1.059 22.301 1.586 33.434-23.828-3.79-47.453-9.04-70.547-16.047-22.312-6.77-44.297-15.2-64.844-26.277-1.41-.762-2.82-1.52-4.214-2.305a150.351 150.351 0 0 1-2.192-1.238c-.11-.063-.219-.13-.328-.192-.39-.078-.441-.246-.152-.511.074-.403.52-.93.718-1.29a176.864 176.864 0 0 1 4.95-8.218c3.586-5.602 7.488-11 11.683-16.164zm105.734-47.242l46.223 14.32 12.129 92.601-18.61 23.559-2.667-56.219c0-.031-.008-.062-.008-.094l-1.102-23.222a10.02 10.02 0 0 0-.566-2.86 9.993 9.993 0 0 0-1.414-2.656l-23.524-31.449zm-30.09-6.844l46.223 61.797.399 8.465c-14.793-1.97-29.496-4.72-43.965-8.383-14.375-3.645-28.559-8.078-42.36-13.52-7.417-2.922-14.738-6.101-21.902-9.601 17.63-17.11 38.63-30.332 61.606-38.758zM340.66 407.46c-11.902.559-23.348-3.547-32.187-11.59a64.781 64.781 0 0 0-21.625-13.004 64.442 64.442 0 0 0-24.954-3.738l-14.808.703 14.867-22.105 66.903-3.172c17.261-.82 33.164-8.313 44.777-21.098l17.152-18.863c8.04-8.828 19.031-14.004 30.945-14.567l34.133-1.617c-.011.219-.015.442-.027.66l-.012.16a173.713 173.713 0 0 1-4.476 30.782l-44.079 2.09c-6.84.324-13.136 3.293-17.695 8.332-4.61 5.047-6.968 11.593-6.644 18.433.648 13.68 11.984 24.367 25.539 24.367.402 0 .812-.007 1.226-.027l19.72-.933a176.461 176.461 0 0 1-16.06 21.738zm0 0" data-original="#000000" class="active-path" data-old_color="#000000" fill="#47A347"/><path d="M172.492 85.367l52.29 24.551c1.355.64 2.808.95 4.25.95a10 10 0 0 0 9.793-12.023L226.933 41.33a9.993 9.993 0 0 0-6.446-7.394 10 10 0 0 0-9.668 1.671L170.422 68.57a9.993 9.993 0 0 0 2.07 16.797zm38.196-23.836l4.504 21.793-19.813-9.305zm42.304 42.883a10 10 0 0 0 6.348 8.652 9.947 9.947 0 0 0 3.629.684c2.523 0 5.008-.957 6.902-2.762l61.942-59.054a10 10 0 0 0 2.668-10.145L323.94 7.094c-1.605-5.285-7.195-8.262-12.472-6.66l-56.516 17.168a10.002 10.002 0 0 0-7.07 10.234zm54.723-81.937l5.84 19.23-42.028 40.07-3.16-47.347zM169.922 309.094c1.601 3.843 5.55 6.386 9.726 6.168 4.121-.219 7.754-3.004 9.024-6.93 1.277-3.977-.117-8.441-3.426-10.992-3.352-2.582-8.117-2.73-11.637-.383-3.918 2.61-5.5 7.789-3.687 12.137zM30.785 139.426h46.676c5.523 0 10-4.477 10-10 0-5.52-4.477-10-10-10H30.785c-5.523 0-10 4.48-10 10 0 5.523 4.477 10 10 10zM72.84 428.867H41.066c-5.52 0-10 4.48-10 10 0 5.524 4.48 10 10 10H72.84c5.523 0 10-4.476 10-10 0-5.52-4.477-10-10-10zm-24.625-20.96c0-5.524-4.48-10-10-10H10c-5.523 0-10 4.476-10 10s4.477 10 10 10h28.215c5.52 0 10-4.477 10-10zm367.246-288.61h28.043c5.523 0 10-4.477 10-10 0-5.52-4.477-10-10-10h-28.043c-5.524 0-10 4.48-10 10 0 5.523 4.476 10 10 10zm27.223 21.148c0 5.52 4.476 10 10 10H502c5.523 0 10-4.48 10-10 0-5.523-4.477-10-10-10h-49.316c-5.524 0-10 4.477-10 10zM502 420.113h-49.316c-5.524 0-10 4.477-10 10 0 5.524 4.476 10 10 10H502c5.523 0 10-4.476 10-10 0-5.523-4.477-10-10-10zM502 174h-14.11c-5.523 0-10 4.477-10 10 0 5.52 4.477 10 10 10H502c5.523 0 10-4.48 10-10 0-5.523-4.477-10-10-10zm-492 8.617h14.105c5.524 0 10-4.48 10-10 0-5.523-4.476-10-10-10H10c-5.523 0-10 4.477-10 10 0 5.52 4.477 10 10 10zm0 0" data-original="#000000" class="active-path" data-old_color="#000000" fill="#47A347"/></svg>