<svg xmlns="http://www.w3.org/2000/svg" height="512" viewBox="0 0 512.005 512" width="512"><path d="M502.004 321.563c-15.836 0-31.094-6.688-41.852-18.344a10.007 10.007 0 0 0-7.347-3.219 10.009 10.009 0 0 0-7.352 3.219c-10.758 11.656-26.012 18.343-41.847 18.343-15.84 0-31.094-6.687-41.852-18.343a10.008 10.008 0 0 0-7.352-3.219 10.006 10.006 0 0 0-7.347 3.219c-10.758 11.656-26.016 18.343-41.852 18.343-15.84 0-31.094-6.687-41.851-18.343a10.007 10.007 0 0 0-7.348-3.219 10.009 10.009 0 0 0-7.352 3.219c-10.757 11.656-26.011 18.343-41.851 18.343-15.836 0-31.09-6.687-41.852-18.343a10.007 10.007 0 0 0-7.347-3.219 10.009 10.009 0 0 0-7.352 3.219c-10.758 11.656-26.012 18.343-41.848 18.343-15.84 0-31.093-6.687-41.851-18.343A10.008 10.008 0 0 0 59.199 300a10.006 10.006 0 0 0-7.347 3.219C41.094 314.875 25.836 321.563 10 321.563c-5.523 0-10 4.476-10 10s4.477 10 10 10c18.012 0 35.461-6.395 49.2-17.81 13.737 11.415 31.187 17.81 49.198 17.81 18.012 0 35.461-6.395 49.2-17.81 13.738 11.415 31.187 17.81 49.199 17.81s35.46-6.395 49.2-17.81c13.737 11.415 31.187 17.81 49.198 17.81 18.012 0 35.461-6.395 49.2-17.81 13.742 11.415 31.19 17.81 49.203 17.81 18.007 0 35.457-6.395 49.195-17.81 13.742 11.415 31.188 17.81 49.2 17.81 5.523 0 10-4.477 10-10s-4.466-10-9.99-10zm0-161.563h-12.816v-27.371l19.886-19.89c3.907-3.903 3.907-10.235 0-14.141-3.902-3.907-10.234-3.907-14.14 0l-5.747 5.742V85c0-5.52-4.476-10-10-10-5.519 0-10 4.48-10 10v38.86l-.93-.93c-3.905-3.903-10.234-3.903-14.14 0-3.906 3.906-3.906 10.238 0 14.144l15 14.996c.024.024.047.043.07.067V160h-73.515v-43.512l7.664-7.664 7.176 7.176a9.973 9.973 0 0 0 7.07 2.926 9.98 9.98 0 0 0 7.07-2.926c3.907-3.906 3.907-10.238 0-14.145l-6.87-6.867h17.554c5.523 0 10-4.48 10-10 0-5.523-4.477-10-10-10h-22.309a9.996 9.996 0 0 0-7.07 2.926l-10.285 10.289V69.199l16.793-9.176c4.848-2.648 6.629-8.726 3.98-13.57-2.648-4.847-8.722-6.633-13.57-3.98l-7.203 3.937v-9.062c0-5.524-4.48-10-10-10-5.524 0-10 4.476-10 10V99.18l-9.336-9.336-10.008-25.785c-2-5.149-7.793-7.7-12.941-5.703-5.149 2-7.703 7.792-5.703 12.94l5.484 14.13h-7.496c-5.52 0-10 4.48-10 10 0 5.523 4.48 10 10 10h17.961l22.039 22.039V160h-63.969c-8.535-15.863-14.625-32.777-18.113-50.129 11.66-10.613 18.316-25.57 18.316-41.402 0-30.88-25.12-56-56-56a55.87 55.87 0 0 0-22.238 4.605C223.195 6.258 208.695.004 193.426.004c-18.02 0-34.555 8.555-44.961 22.586a55.955 55.955 0 0 0-32.09-10.121c-30.879 0-56 25.12-56 56 0 21.512 11.973 40.629 30.902 50.07A181.874 181.874 0 0 1 75.148 160h-28.14c-5.524 0-10 4.48-10 10 0 5.523 4.476 10 10 10h454.996c5.523 0 10-4.477 10-10 0-5.52-4.477-10-10-10zM80.375 68.469c0-19.852 16.148-36 36-36a36.02 36.02 0 0 1 27.098 12.316 9.99 9.99 0 0 0 9.125 3.29 9.991 9.991 0 0 0 7.62-6 35.943 35.943 0 0 1 33.208-22.071c11.746 0 22.789 5.765 29.535 15.426 3.07 4.398 9.066 5.586 13.586 2.699a35.844 35.844 0 0 1 19.36-5.66c19.85 0 36 16.148 36 36 0 3.75-.59 7.422-1.7 10.91-.031-1.324-.066-2.649-.066-3.977V73.27c0-5.523-4.48-10-10-10h-61.02c-5.523 0-10 4.477-10 10v2.133c0 4.418-.191 8.836-.527 13.239-4.758 2.226-9.848 3.359-15.168 3.359a35.534 35.534 0 0 1-15.168-3.36 174.09 174.09 0 0 1-.524-13.238V73.27c0-5.524-4.48-10-10-10h-61.023c-5.52 0-10 4.476-10 10v2.132c0 7.434-.492 14.864-1.445 22.239-9.246-6.645-14.891-17.34-14.891-29.172zm191.254 30.8h-44c.66-5.312 1.11-10.652 1.328-16h41.344c.219 5.348.672 10.688 1.328 16zm-66.125 11.383a180.457 180.457 0 0 1-12.078 37.387 180.393 180.393 0 0 1-12.07-37.355 56.07 56.07 0 0 0 12.07 1.316c4.07 0 8.12-.473 12.078-1.348zM159.227 99.27h-44.004a194.089 194.089 0 0 0 1.332-16h41.34c.218 5.348.671 10.688 1.332 16zM97.55 160a200.837 200.837 0 0 0 14.133-40.73h51.082A200.841 200.841 0 0 0 176.898 160zm112.402 0a201.091 201.091 0 0 0 14.137-40.73h51.078A201.091 201.091 0 0 0 289.305 160zM10.008 180.004c2.629 0 5.21-1.07 7.07-2.934a10.063 10.063 0 0 0 2.93-7.066c0-2.64-1.07-5.211-2.93-7.07s-4.441-2.93-7.07-2.93-5.211 1.066-7.07 2.93c-1.86 1.859-2.93 4.441-2.93 7.07s1.07 5.21 2.93 7.066a10.067 10.067 0 0 0 7.07 2.934zm97.46 205.187c-7.886-7.886-20.113-8.84-29.058-2.875l-10.23-10.23a16.059 16.059 0 0 0-11.434-4.734c-4.32 0-8.379 1.68-11.434 4.734l-17.456 17.457c-6.305 6.305-6.305 16.563 0 22.867l10.23 10.23c-5.969 8.946-5.012 21.173 2.871 29.06l53.559 53.558c4.492 4.488 10.386 6.73 16.285 6.73 5.894 0 11.793-2.242 16.285-6.73l33.937-33.941c8.98-8.981 8.98-23.59 0-32.567zm-50.722 3.747l7.203 7.203-12.039 12.043-7.207-7.207zm90.137 68.234l-33.942 33.941a3.025 3.025 0 0 1-4.28 0L55.1 437.555a3.032 3.032 0 0 1 0-4.282l33.942-33.941a3.023 3.023 0 0 1 2.14-.887c.778 0 1.555.297 2.145.887l53.559 53.559a3.036 3.036 0 0 1-.004 4.28zM478.5 436.46h-19.188c-6.519-11.07-18.558-18.516-32.308-18.516h-46.84c-20.668 0-37.48 16.813-37.48 37.477v19.101c0 20.668 16.812 37.48 37.48 37.48h46.84c13.75 0 25.789-7.448 32.308-18.515H478.5c8.918 0 16.172-7.254 16.172-16.172V452.63c0-8.914-7.254-16.168-16.172-16.168zm-51.496 55.543h-46.84c-9.64 0-17.48-7.844-17.48-17.48v-19.102c0-9.637 7.84-17.477 17.48-17.477h46.84c9.64 0 17.48 7.84 17.48 17.477v19.102c0 9.636-7.84 17.48-17.48 17.48zm47.668-18.516h-10.188V456.46h10.188zM243.269 398.7c-.683-8.625-4.687-16.468-11.269-22.086-6.582-5.613-14.957-8.328-23.586-7.648-8.625.687-16.469 4.687-22.086 11.273-5.617 6.582-8.332 14.957-7.648 23.582.683 8.625 4.687 16.47 11.27 22.086 5.917 5.047 13.28 7.75 20.972 7.75.867 0 1.738-.031 2.613-.101 8.625-.684 16.469-4.688 22.086-11.27 5.613-6.586 8.328-14.96 7.648-23.586zm-22.867 10.606a12.308 12.308 0 0 1-8.449 4.312 12.292 12.292 0 0 1-9.023-2.926 12.31 12.31 0 0 1-4.313-8.453c-.261-3.3.778-6.504 2.926-9.023a12.328 12.328 0 0 1 8.453-4.309 12.296 12.296 0 0 1 9.024 2.926 12.324 12.324 0 0 1 4.312 8.45 12.3 12.3 0 0 1-2.93 9.023zM373.277 381c0-5.52-4.476-10-10-10h-24.394c-5.52 0-10 4.48-10 10 0 5.523 4.48 10 10 10h24.394c5.524 0 10-4.477 10-10zm-67.441-10c-2.64 0-5.211 1.07-7.082 2.93a10.075 10.075 0 0 0-2.918 7.07 10.06 10.06 0 0 0 2.918 7.07 10.127 10.127 0 0 0 7.082 2.93 10.1 10.1 0 0 0 7.07-2.93 10.073 10.073 0 0 0 2.93-7.07c0-2.629-1.07-5.207-2.93-7.07a10.08 10.08 0 0 0-7.07-2.93zm-51.953 102h-8.508c-5.52 0-10 4.48-10 10 0 5.523 4.48 10 10 10h8.508c5.523 0 10-4.477 10-10 0-5.52-4.477-10-10-10zM42.066 241.363a9.949 9.949 0 0 0 7.07-2.933l2.364-2.36c3.902-3.906 3.902-10.238-.004-14.144-3.906-3.903-10.238-3.903-14.14.004l-2.364 2.363c-3.902 3.906-3.902 10.238.004 14.14a9.968 9.968 0 0 0 7.07 2.93zm249.52-7.894a9.98 9.98 0 0 0 7.07-2.926c3.903-3.906 3.907-10.238 0-14.145l-4.55-4.554c-3.907-3.903-10.239-3.903-14.145 0s-3.906 10.234-.004 14.14l4.555 4.555a9.97 9.97 0 0 0 7.074 2.93zm-179.508 52.925l2.668-2.664c3.902-3.906 3.902-10.238 0-14.144-3.906-3.902-10.238-3.902-14.144 0l-2.668 2.668c-3.903 3.906-3.903 10.234 0 14.14a9.97 9.97 0 0 0 7.074 2.93 9.967 9.967 0 0 0 7.07-2.93zm250.262-8.308a9.98 9.98 0 0 0 7.07-2.926l4.621-4.625c3.907-3.906 3.907-10.238 0-14.144-3.906-3.903-10.234-3.903-14.14 0l-4.625 4.625c-3.907 3.906-3.907 10.238 0 14.144a9.982 9.982 0 0 0 7.074 2.926zm-145.332-11.957a10 10 0 0 0 9.308-13.649l-11.402-29.124a10.002 10.002 0 0 0-3.84-4.727l-25.265-16.504a10 10 0 0 0-15.47 8.371v45.633c0 5.52 4.481 10 10 10zm-26.668-37.156l7.117 4.652 4.895 12.504H190.34zm241.664 43.656a9.961 9.961 0 0 0 7.07-2.93l24.617-24.613c3.903-3.906 3.903-10.238 0-14.145l-24.617-24.617c-1.875-1.875-4.418-2.926-7.07-2.926s-5.195 1.051-7.07 2.926l-24.614 24.617c-3.906 3.907-3.906 10.239 0 14.145l24.614 24.613a9.968 9.968 0 0 0 7.07 2.93zm0-45.09l10.476 10.473-10.476 10.476-10.473-10.476zm0 0" data-original="#000000" class="active-path" data-old_color="#000000" fill="#47A347"/></svg>