<svg xmlns="http://www.w3.org/2000/svg" height="512" viewBox="-41 0 511 512" width="512"><path d="M353.5 60h-32V45c0-24.813-20.188-45-45-45h-124c-24.813 0-45 20.188-45 45v15h-32c-41.355 0-75 33.645-75 75 0 8.285 6.715 15 15 15h18.84c16.715 109.871 31.512 220.031 45.254 323.664C82.539 495.879 101.714 512 125.187 512h178.59c23.453 0 42.617-16.121 45.563-38.336 13.246-99.902 28.215-212.797 45.273-323.664H413.5c8.285 0 15-6.715 15-15 0-41.355-33.645-75-75-75zm-216-15c0-8.27 6.73-15 15-15h124c8.27 0 15 6.73 15 15v15h-154zm-62 45h278c19.555 0 36.238 12.539 42.43 30H33.07c6.192-17.461 22.875-30 42.43-30zm244.098 379.723c-.957 7.226-7.465 12.277-15.82 12.277h-178.59c-8.376 0-14.895-5.05-15.852-12.277C95.762 367.359 81.156 258.633 64.684 150h299.582c-16.817 109.703-31.582 221.039-44.668 319.723zm0 0" data-original="#000000" class="active-path" data-old_color="#000000" fill="#47A347"/><path d="M181.613 284.188a14.91 14.91 0 0 0 7.57 2.062c5.149 0 10.165-2.652 12.958-7.414L214.94 257l13.965 22.227c4.41 7.02 13.668 9.132 20.684 4.722 7.012-4.406 9.129-13.664 4.719-20.68l-27.11-43.152a15.006 15.006 0 0 0-12.93-7.02 15.008 15.008 0 0 0-12.71 7.41l-25.301 43.153c-4.188 7.149-1.793 16.336 5.355 20.528zm76.149 48.835l5.757 9.977h-18.484c-8.281 0-15 6.715-15 15s6.719 15 15 15H289.5c5.36 0 10.313-2.86 12.988-7.5a14.98 14.98 0 0 0 0-15l-18.75-32.477c-4.14-7.175-13.312-9.636-20.488-5.492s-9.633 13.317-5.488 20.492zM139.5 373h44.465c8.285 0 15-6.715 15-15s-6.715-15-15-15H165.48l5.762-9.977c4.14-7.175 1.684-16.347-5.492-20.492-7.176-4.14-16.348-1.683-20.488 5.492l-18.75 32.477a14.98 14.98 0 0 0 0 15A14.993 14.993 0 0 0 139.5 373zm0 0" data-original="#000000" class="active-path" data-old_color="#000000" fill="#47A347"/></svg>