<svg xmlns="http://www.w3.org/2000/svg" viewBox="0 0 512 512" width="512" height="512"><path d="M506.784 203.209L260.829 69.234a9.991 9.991 0 0 0-9.564 0l-84.204 45.867c-4.85 2.642-6.64 8.713-3.997 13.562 2.639 4.85 8.714 6.641 13.561 3.997l79.422-43.262 235.956 128.529V471.94h-25.995V259.98c0-5.521-4.477-9.998-9.998-9.998H56.084c-5.521 0-9.998 4.477-9.998 9.998v211.96H20.091V217.928l84.467-46.011c4.85-2.642 6.64-8.713 3.997-13.561-2.642-4.849-8.713-6.638-13.562-3.998l-89.682 48.85a9.997 9.997 0 0 0-5.216 8.779v269.95c0 5.521 4.477 9.998 9.998 9.998h491.909c5.521 0 9.998-4.477 9.998-9.998v-269.95a9.997 9.997 0 0 0-5.216-8.778zM232.568 427.186l-25.142-25.143c-3.905-3.903-10.234-3.903-14.14 0-3.904 3.904-3.904 10.235 0 14.14l34.898 34.898c.233.233.476.45.725.655a105.18 105.18 0 0 0 1.09 18.638c-14.295-2.771-30.741-9.783-46.283-25.326-30.488-30.487-28.131-64.242-25.448-78.104 12.862-2.521 47.099-5.395 78.023 25.528a103.39 103.39 0 0 1 7.57 8.452c-5.396 8.961-8.985 17.843-11.293 26.262zm30.486 44.753l34.988-34.989c3.904-3.904 3.904-10.235 0-14.14-3.905-3.903-10.234-3.903-14.14 0l-34.957 34.958c-.49-16.522 3.52-41.958 26.859-65.296 30.946-30.945 65.205-28.046 78.023-25.531 2.683 13.859 5.043 47.617-25.447 78.107-20.566 20.568-42.589 26.178-58.817 26.893h-6.509zm182.958.001H327.578c5.013-3.611 10.016-7.828 14.942-12.754 43.511-43.51 32.05-93.375 29.31-102.928l-.005-.018a10 10 0 0 0-6.539-7.017c-2.285-.759-56.487-18.024-103.622 29.107a127.174 127.174 0 0 0-5.63 6.013 124.945 124.945 0 0 0-5.606-6.013c-47.135-47.133-101.339-29.865-103.622-29.107a10 10 0 0 0-6.539 7.017l-.005.018c-2.74 9.554-14.2 59.419 29.31 102.928 4.925 4.925 9.933 9.142 14.955 12.754H66.083V269.978h379.93V471.94z" data-original="#000000" class="active-path" data-old_color="#000000" fill="#47A347"/><path d="M141.588 137.143c-1.859-1.859-4.438-2.929-7.068-2.929s-5.209 1.07-7.069 2.929c-1.86 1.86-2.929 4.439-2.929 7.069s1.069 5.209 2.929 7.069a10.075 10.075 0 0 0 7.069 2.929c2.63 0 5.209-1.07 7.068-2.929 1.86-1.86 2.93-4.439 2.93-7.069s-1.07-5.21-2.93-7.069zm340.298-64.746c-18.811-18.81-49.415-18.81-68.225 0-3.904 3.904-3.904 10.234 0 14.14 3.905 3.903 10.234 3.904 14.14 0 11.012-11.012 28.934-11.012 39.946 0a9.961 9.961 0 0 0 7.07 2.928 9.97 9.97 0 0 0 7.07-2.928c3.904-3.905 3.904-10.235-.001-14.14z" data-original="#000000" class="active-path" data-old_color="#000000" fill="#47A347"/><path d="M508.927 45.355c-33.721-33.721-88.589-33.721-122.309 0-3.904 3.904-3.904 10.235 0 14.14 3.906 3.904 10.235 3.904 14.14 0 25.923-25.925 68.106-25.925 94.03 0 1.953 1.952 4.511 2.928 7.07 2.928s5.117-.977 7.07-2.928c3.904-3.904 3.904-10.235-.001-14.14zm-54.088 54.264c-1.86-1.859-4.439-2.93-7.069-2.93s-5.208 1.071-7.069 2.93c-1.859 1.86-2.929 4.439-2.929 7.069s1.07 5.209 2.929 7.069c1.86 1.859 4.439 2.93 7.069 2.93s5.209-1.07 7.069-2.93c1.859-1.86 2.929-4.439 2.929-7.069s-1.069-5.21-2.929-7.069zM98.196 72.397c-18.811-18.81-49.415-18.81-68.225 0-3.904 3.904-3.904 10.234 0 14.14 3.905 3.903 10.234 3.904 14.14 0 11.012-11.012 28.934-11.012 39.946 0 1.953 1.953 4.51 2.928 7.07 2.928s5.118-.977 7.07-2.928c3.903-3.905 3.903-10.235-.001-14.14z" data-original="#000000" class="active-path" data-old_color="#000000" fill="#47A347"/><path d="M125.238 45.355c-33.721-33.721-88.589-33.721-122.309 0-3.904 3.904-3.904 10.235 0 14.14 3.905 3.904 10.234 3.904 14.14 0 25.923-25.925 68.106-25.925 94.03 0 1.953 1.952 4.511 2.928 7.07 2.928s5.117-.977 7.07-2.928c3.903-3.904 3.903-10.235-.001-14.14zM71.151 99.619c-1.859-1.859-4.438-2.93-7.068-2.93s-5.209 1.071-7.069 2.93c-1.86 1.86-2.929 4.439-2.929 7.069s1.069 5.209 2.929 7.069c1.86 1.859 4.439 2.93 7.069 2.93s5.209-1.07 7.068-2.93c1.86-1.86 2.93-4.439 2.93-7.069s-1.07-5.21-2.93-7.069zm254.123 295.956a10.073 10.073 0 0 0-7.069-2.93c-2.641 0-5.209 1.07-7.069 2.93-1.859 1.859-2.93 4.438-2.93 7.068s1.07 5.209 2.93 7.069a10.055 10.055 0 0 0 7.069 2.929c2.63 0 5.209-1.069 7.069-2.929a10.059 10.059 0 0 0 2.929-7.069 10.062 10.062 0 0 0-2.929-7.068z" data-original="#000000" class="active-path" data-old_color="#000000" fill="#47A347"/></svg>