<svg xmlns="http://www.w3.org/2000/svg" viewBox="0 0 512 512" width="512" height="512"><path d="M484.255 303.065H293.701c-7.134-1.875-12.233-8.395-12.233-15.837v-4.694c17.891-16.119 29.158-39.455 29.158-65.375v-59.601h8c18.748 0 34-15.252 34-34s-15.252-34-34-34h-14v-52.17C304.626 16.772 287.854 0 267.238 0h-.54c-9.986 0-19.375 3.889-26.437 10.95-9.875 9.873-25.939 9.873-35.812 0C197.388 3.889 188 0 178.014 0c-20.616 0-37.388 16.772-37.388 37.388v52.171h-14c-18.748 0-34 15.252-34 34 0 18.748 15.252 34 34 34h8v59.601c0 25.92 11.267 49.256 29.158 65.375v4.68c0 7.731-5.495 14.481-13.066 16.049l-48.691 10.082-.088.018-39.898 8.261-.118.024-9.819 2.033C21.913 329.932 0 356.846 0 387.677V502c0 5.522 4.477 10 10 10h492c5.523 0 10-4.478 10-10V330.811c0-15.299-12.446-27.746-27.745-27.746zM178.014 20c4.644 0 9.01 1.809 12.295 5.093 17.672 17.671 46.425 17.67 64.095 0A17.277 17.277 0 0 1 266.699 20h.54c9.587 0 17.388 7.8 17.388 17.388v52.171h-124V37.388h-.001c0-9.588 7.8-17.388 17.388-17.388zm-51.388 117.559c-7.72 0-14-6.281-14-14 0-7.72 6.28-14 14-14h192c7.72 0 14 6.28 14 14s-6.28 14-14 14h-192zm28 79.6v-59.601h136v59.601c0 37.495-30.505 68-68 68-37.496 0-68-30.505-68-68zm110.511 85.906h-23.411a87.355 87.355 0 0 0 20.738-7.453 36.216 36.216 0 0 0 2.673 7.453zM208.078 492H20V387.677c0-20.653 14.171-38.769 34-43.905V421.5c0 5.522 4.477 10 10 10s10-4.478 10-10v-81.929l20-4.141v55.584c0 20.409 16.604 37.013 37.013 37.013h77.065V492zm0-161.188v77.216h-77.065c-9.381 0-17.013-7.632-17.013-17.013V331.29l40.772-8.443c13.995-2.897 24.788-13.77 28.013-27.236 11.969 6.103 25.51 9.549 39.841 9.549.922 0 1.84-.019 2.756-.047-10.138 4.134-17.304 14.093-17.304 25.699zM492 492H228.078V330.811c0-4.271 3.475-7.745 7.745-7.745h56.639l.038.002.045-.002h191.71c4.271 0 7.745 3.475 7.745 7.745V492z" data-original="#000000" class="active-path" data-old_color="#000000" fill="#47A347"/><path d="M71.07 453.43c-1.86-1.86-4.44-2.93-7.07-2.93s-5.21 1.069-7.07 2.93c-1.86 1.86-2.93 4.44-2.93 7.07s1.07 5.21 2.93 7.069c1.86 1.86 4.44 2.931 7.07 2.931s5.21-1.07 7.07-2.931C72.93 465.71 74 463.13 74 460.5s-1.07-5.21-2.93-7.07zm189.13-250.5a10.093 10.093 0 0 0-7.07-2.93c-2.64 0-5.21 1.069-7.08 2.93-1.86 1.86-2.92 4.44-2.92 7.07s1.06 5.21 2.92 7.069a10.078 10.078 0 0 0 7.08 2.931c2.63 0 5.21-1.07 7.07-2.931 1.86-1.859 2.93-4.439 2.93-7.069s-1.07-5.21-2.93-7.07zm-61 0a10.076 10.076 0 0 0-7.07-2.93c-2.64 0-5.21 1.069-7.07 2.93-1.87 1.86-2.93 4.44-2.93 7.07s1.06 5.21 2.93 7.069a10.037 10.037 0 0 0 7.07 2.931c2.63 0 5.21-1.07 7.07-2.931 1.86-1.859 2.93-4.439 2.93-7.069s-1.07-5.21-2.93-7.07zm165.285 140.206a9.998 9.998 0 0 0-8.893 0c-1.787.887-43.765 22.209-43.765 64.285 0 42.023 41.912 63.716 43.696 64.619a9.997 9.997 0 0 0 4.515 1.077 9.997 9.997 0 0 0 4.515-1.077c1.784-.903 43.696-22.596 43.696-64.619.001-42.076-41.977-63.399-43.764-64.285zm5.554 100.568v-36.098c0-5.522-4.477-10-10-10s-10 4.478-10 10v36.098c-8.752-7.97-18.211-20.279-18.211-36.283 0-22.848 19.313-37.979 28.235-43.75 8.946 5.736 28.187 20.751 28.187 43.75 0 16.003-9.459 28.313-18.211 36.283zm62.329-216.19c-18.813-18.813-49.424-18.813-68.236 0-3.905 3.905-3.906 10.237 0 14.143 3.906 3.904 10.238 3.905 14.142 0 11.016-11.016 28.938-11.016 39.953 0 1.952 1.952 4.511 2.929 7.07 2.929s5.119-.977 7.071-2.929c3.905-3.905 3.905-10.237 0-14.143z" data-original="#000000" class="active-path" data-old_color="#000000" fill="#47A347"/><path d="M459.416 200.467c-16.338-16.338-38.061-25.336-61.167-25.336s-44.828 8.998-61.167 25.336c-3.904 3.906-3.904 10.238.001 14.143 3.905 3.904 10.237 3.904 14.143 0 25.929-25.93 68.119-25.93 94.048 0 1.953 1.952 4.512 2.929 7.071 2.929s5.119-.977 7.071-2.929c3.905-3.905 3.905-10.237 0-14.143zM405.32 254.74a10.077 10.077 0 0 0-7.07-2.931 10.08 10.08 0 0 0-7.07 2.931c-1.86 1.859-2.93 4.439-2.93 7.069s1.07 5.21 2.93 7.07c1.86 1.87 4.44 2.93 7.07 2.93s5.21-1.06 7.07-2.93c1.86-1.86 2.93-4.44 2.93-7.07s-1.07-5.21-2.93-7.069z" data-original="#000000" class="active-path" data-old_color="#000000" fill="#47A347"/></svg>