<svg xmlns="http://www.w3.org/2000/svg" height="512" viewBox="0 0 60 60" width="512"><path d="M58 11h-1V3.5A3.5 3.5 0 0 0 53.5 0h-31A3.5 3.5 0 0 0 19 3.5V11h-7a2 2 0 0 0-2 2v3a2 2 0 0 0 2 2v7.75L.82 48.51A8 8 0 0 0 8.06 60h29.88a8 8 0 0 0 7.24-11.5L34 25.77V18a2 2 0 0 0 2-2v-3a2 2 0 0 0-2-2h-7V8h22v3h-1a2 2 0 0 0-2 2v3a2 2 0 0 0 1 1.72V49a6 6 0 0 0 12 0V17.72A2 2 0 0 0 60 16v-3a2 2 0 0 0-2-2zM21 27h4v2a1 1 0 0 1-1 1h-2a1 1 0 0 1-1-1zm-2-2a2 2 0 0 1-1.83-1.19L14.55 18h16.9l-2.57 5.79A2 2 0 0 1 27.05 25zm24.39 24.39A6 6 0 0 1 37.94 58H8.06a6 6 0 0 1-5.45-8.61L13.9 26.44c.14-.29.1-.1.1-4.73l1.29 2.91A4 4 0 0 0 19 27v2a3 3 0 0 0 3 3h2a3 3 0 0 0 3-3v-2a4 4 0 0 0 3.71-2.38L32 21.71V26c0 .34-.64-1.16 11.39 23.39zM34 16H12v-3h22zM50 6H26a1 1 0 0 0-1 1v4h-4V3.5A1.5 1.5 0 0 1 22.5 2h31A1.5 1.5 0 0 1 55 3.5V11h-4V7a1 1 0 0 0-1-1zm-2 7h10v3H48zm9 20h-8v-2h2a1 1 0 1 0 0-2h-2v-2h2a1 1 0 1 0 0-2h-2v-2h2a1 1 0 1 0 0-2h-2v-3h8zm-4 20a4 4 0 0 1-4-4v-2h2a1 1 0 1 0 0-2h-2v-2h2a1 1 0 1 0 0-2h-2v-2h2a1 1 0 1 0 0-2h-2v-2h8v14a4 4 0 0 1-4 4z" data-original="#000000" class="active-path" data-old_color="#000000" fill="#47A347"/><path d="M23.54 49.9a3.72 3.72 0 0 0-.52.92 3.49 3.49 0 0 0-.57-1c-.19-1.39-1.07-6.2-4.5-8.46-4-2.62-9.55-.69-9.78-.61a1 1 0 0 0-.67 1c0 .26.6 6.24 4.55 8.84 2.57 1.71 6.13 1.63 9.08.82a17.3 17.3 0 0 1 .87 3.76 1 1 0 1 0 2 0 16.24 16.24 0 0 1 .89-3.7c3 .8 6.48.86 9-.83 3.95-2.6 4.52-8.58 4.55-8.84a1 1 0 0 0-.67-1c-.23-.08-5.82-2-9.78.61-3.43 2.26-4.29 7.21-4.45 8.49zm-3.49-1.76l-9.07-6c4.87-.74 7.71 1.13 9.07 6zM10 43.86l9.07 6c-4.92.74-7.76-1.13-9.07-6zm17 6l9.07-6c-1.39 4.97-4.32 6.71-9.07 5.99zm8-7.7l-9.07 6c1.39-4.99 4.32-6.73 9.07-6.01z" data-original="#000000" class="active-path" data-old_color="#000000" fill="#47A347"/></svg>