<svg xmlns="http://www.w3.org/2000/svg" viewBox="0 0 512.002 512.002" width="512" height="512"><path d="M315.441 87.445c-5.943-61.128-52.959-85.381-54.958-86.383a10 10 0 0 0-9.593.342l-.026.015c-8.308 4.606-49.979 30.51-54.511 88.313-.431 5.507 3.683 10.32 9.189 10.752.266.021.529.031.792.031 5.168 0 9.548-3.979 9.959-9.219a101.77 101.77 0 0 1 1.553-11.448L246 108.002v5.238c0 5.523 4.478 10 10 10s10-4.477 10-10V94.235L291.335 68.9c1.992 6.178 3.472 12.994 4.2 20.481a9.992 9.992 0 0 0 10.921 8.985c5.497-.535 9.52-5.424 8.985-10.921zM246 79.717l-21.268-21.268c6.012-12.945 14.151-22.39 21.268-28.858v50.126zm20-13.767V29.554a91.917 91.917 0 0 1 16.448 19.948L266 65.95zm207.005-2.032h-.003c-10.416 0-20.211 4.057-27.576 11.422-7.367 7.366-11.424 17.16-11.424 27.578v46.697c0 5.523 4.478 10 10 10s10-4.477 10-10v-46.697c0-5.075 1.977-9.847 5.565-13.436a18.876 18.876 0 0 1 13.435-5.564h.001c10.477 0 18.999 8.524 18.999 19v219.638c-.003 38.288-12.958 76.006-36.479 106.206l-49.251 63.239h-99.271v-61.959c0-24.226 10.97-46.647 30.097-61.515l22.433-17.438c24.915-19.368 39.204-48.575 39.204-80.133v-57.711c0-7.769 6.32-14.089 14.09-14.089 7.769 0 14.089 6.32 14.089 14.089v13.09c0 5.523 4.478 10 10 10s10-4.477 10-10v-13.09c0-18.797-15.292-34.089-34.089-34.089s-34.09 15.292-34.09 34.089v57.711c0 25.339-11.474 48.792-31.479 64.343l-22.433 17.438c-24.036 18.685-37.821 46.861-37.821 77.305v71.959c0 5.523 4.478 10 10 10h114.157c3.084 0 5.995-1.423 7.89-3.855l52.254-67.095c26.242-33.694 40.696-75.776 40.699-118.495V102.918c0-21.503-17.494-38.999-38.997-39z" data-original="#000000" class="active-path" data-old_color="#000000" fill="#47A347"/><path d="M443.979 255.261a10.056 10.056 0 0 0-7.069-2.93c-2.631 0-5.21 1.07-7.07 2.93-1.86 1.86-2.93 4.44-2.93 7.07s1.069 5.21 2.93 7.07a10.031 10.031 0 0 0 7.07 2.93c2.64 0 5.21-1.06 7.069-2.93a10.017 10.017 0 0 0 2.931-7.07c0-2.63-1.061-5.21-2.931-7.07zm-7.065 30.072c-5.522 0-10 4.477-10 10v21.799a86.689 86.689 0 0 1-14.053 47.38l-12.96 19.927a10 10 0 0 0-3.316 9.712c.999 4.701 5.15 7.922 9.771 7.922.688 0 1.389-.072 2.089-.221l.581-.124a10.002 10.002 0 0 0 6.304-4.329l14.297-21.982a106.644 106.644 0 0 0 17.287-58.285v-21.799c0-5.523-4.478-10-10-10zm-56.79-162.666l-.009-.032a10.001 10.001 0 0 0-6.543-7.027c-2.443-.813-60.463-19.292-110.959 31.203-50.496 50.497-32.013 108.512-31.201 110.958a10 10 0 0 0 6.341 6.34c1.051.349 12.358 3.96 28.928 3.96 21.987 0 53.234-6.365 82.03-35.161 46.614-46.614 34.346-100.01 31.413-110.241zm-60.7 12.519a92.221 92.221 0 0 1 30.206-3.436l-30.206 30.206v-26.77zm-42.668 25.768c7.477-7.477 15.131-13.134 22.668-17.385v35.427c0 .903.13 1.773.355 2.606l-52.222 52.222c-.941-17.864 2.801-46.472 29.199-72.87zm-15.059 87.014l20.541-20.54h42.621c-23.5 18.584-47.482 21.366-63.162 20.54zm82.617-40.342a10.06 10.06 0 0 0-1.984-.198h-40.093l61.456-61.456c.819 15.657-1.973 38.834-19.379 61.654z" data-original="#000000" class="active-path" data-old_color="#000000" fill="#47A347"/><path d="M237.023 135.891c-47.333-36.693-96.524-20.97-98.595-20.282a10.001 10.001 0 0 0-6.543 7.027l-.009.032c-2.933 10.231-15.201 63.627 31.413 110.241 11.405 11.406 24.2 20.185 38.028 26.092a9.975 9.975 0 0 0 3.924.806c3.884 0 7.579-2.277 9.201-6.074 2.169-5.079-.189-10.955-5.268-13.125-11.471-4.899-22.15-12.248-31.743-21.841-7.259-7.258-12.799-14.688-17.003-22.025H199c.024 0 .048-.003.073-.004l8.264 8.264c1.953 1.953 4.512 2.929 7.071 2.929s5.118-.977 7.071-2.929c3.905-3.905 3.905-10.237 0-14.143l-21.387-21.387v-31.757c8.018 3.07 16.37 7.543 24.677 13.982 4.367 3.384 10.647 2.589 14.03-1.776 3.384-4.365 2.588-10.646-1.776-14.03zm-85.132 40.85a92.456 92.456 0 0 1-3.584-30.769l30.77 30.769h-27.186zm28.202-27.268l-17.714-17.714a92.866 92.866 0 0 1 17.714.781v16.933zM144.246 38.872l-19.998-19.997c-3.906-3.905-10.238-3.905-14.143 0-3.905 3.905-3.905 10.237 0 14.142l19.999 19.997c1.953 1.953 4.512 2.929 7.071 2.929s5.119-.977 7.071-2.929c3.905-3.905 3.905-10.237 0-14.142zM166 10.026c-5.522 0-10 4.477-10 10v28.837c0 5.522 4.478 10 10 10s10-4.477 10-10V20.026c0-5.523-4.478-10-10-10zm-23.366 54.038h-28.886c-5.522 0-10 4.477-10 10s4.478 10 10 10h28.886c5.522 0 10-4.477 10-10s-4.478-10-10-10zm259.259-45.189c-3.904-3.905-10.234-3.905-14.143 0l-19.998 19.997c-3.905 3.905-3.905 10.237 0 14.142 1.954 1.953 4.513 2.929 7.072 2.929s5.118-.977 7.071-2.929l19.998-19.997c3.905-3.905 3.905-10.237 0-14.142zM346 10.026c-5.522 0-10 4.477-10 10v28.837c0 5.522 4.478 10 10 10s10-4.477 10-10V20.026c0-5.523-4.478-10-10-10zm52.252 54.038h-28.886c-5.522 0-10 4.477-10 10s4.478 10 10 10h28.886c5.522 0 10-4.477 10-10s-4.478-10-10-10zM187.179 352.737l-22.433-17.438c-20.006-15.551-31.479-39.003-31.479-64.343v-57.711c0-18.797-15.293-34.089-34.09-34.089s-34.089 15.292-34.089 34.089v13.09c0 5.523 4.478 10 10 10s10-4.477 10-10v-13.09c0-7.769 6.32-14.089 14.09-14.089 7.769 0 14.089 6.32 14.089 14.089v57.711c0 31.558 14.289 60.765 39.204 80.133l22.433 17.438C194.03 383.395 205 405.816 205 430.042v61.959h-99.271l-49.251-63.239c-23.52-30.2-36.475-67.918-36.478-106.206V102.918c0-10.476 8.522-19 18.999-19a18.88 18.88 0 0 1 13.436 5.564A18.88 18.88 0 0 1 58 102.918v46.697c0 5.523 4.478 10 10 10s10-4.477 10-10v-46.697C78 92.5 73.943 82.706 66.576 75.34c-7.366-7.366-17.161-11.422-27.579-11.422C17.494 63.919 0 81.415 0 102.918v219.639c.003 42.717 14.457 84.799 40.699 118.494l52.254 67.095a10 10 0 0 0 7.89 3.855H215c5.522 0 10-4.477 10-10v-71.959c0-30.445-13.785-58.621-37.821-77.305z" data-original="#000000" class="active-path" data-old_color="#000000" fill="#47A347"/><path d="M82.16 255.261a10.076 10.076 0 0 0-7.07-2.93c-2.64 0-5.21 1.07-7.07 2.93a10.08 10.08 0 0 0-2.93 7.07c0 2.64 1.07 5.21 2.93 7.07 1.86 1.87 4.44 2.93 7.07 2.93s5.21-1.06 7.07-2.93c1.859-1.86 2.93-4.44 2.93-7.07s-1.07-5.21-2.93-7.07zm29.941 129.179l-12.96-19.925a86.702 86.702 0 0 1-14.053-47.38v-21.799c0-5.523-4.478-10-10-10s-10 4.477-10 10v21.798c0 20.743 5.978 40.897 17.287 58.285L96.672 397.4a10 10 0 0 0 6.304 4.329l.581.124c.701.149 1.399.221 2.089.221 4.62 0 8.772-3.222 9.771-7.922a10.001 10.001 0 0 0-3.316-9.712z" data-original="#000000" class="active-path" data-old_color="#000000" fill="#47A347"/></svg>